{
DisplayStrings = (
/knK_vR.BELOW,
/knKUU,
/knReph/knJHI,
/knKA/knGAc2,
/knKA/knKHAc2,
/knYA/knKAc2/knKA/knKHAc2/knKA/knGAc2/knKA/knGHAc2/knKA/knNGAc2/knKA/knCAc2/knKA/knCHAc2/knKA/knJAc2/knKA/knJHAc2/knKA/knNYAc2/knKA/knTTAc2/knKA/knTTHAc2/knKA/knDDAc2/knKA/knDDHAc2/knKA/knNNAc2/knKA/knTAc2/knKA/knTHAc2/knKA/knDAc2/knKA/knDHAc2/knKA/knNAc2/knKA/knPAc2/knKA/knPHAc2/knKA/knBAc2/knKA/knBHAc2/knKA/knMAc2/knKA/knYAc2/knKA/knRRAc2/knKA/knLAc2/knKA/knLLAc2/knKA/knVAc2/knKA/knSHAc2/knKA/knSSAc2/knKA/knSAc2/knKA/knHAc2/knKA/knLLLAc2
);
copyright = "Copyright (c) 2015 by Indian Type Foundry. All rights reserved.";
customParameters = (
{
name = glyphOrder;
value = (
    ".notdef",
    ".null",
    CR,
    space,
    exclam,
    quotedbl,
    numbersign,
    dollar,
    percent,
    quotesingle,
    parenleft,
    parenright,
    asterisk,
    plus,
    comma,
    hyphen,
    period,
    slash,
    zero,
    one,
    two,
    three,
    four,
    five,
    six,
    seven,
    eight,
    nine,
    colon,
    semicolon,
    less,
    equal,
    greater,
    question,
    bracketleft,
    backslash,
    bracketright,
    asciicircum,
    underscore,
    braceleft,
    bar,
    braceright,
    asciitilde,
    cent,
    sterling,
    yen,
    copyright,
    guillemotleft,
    registered,
    plusminus,
    guillemotright,
    multiply,
    divide,
    endash,
    emdash,
    quoteleft,
    quoteright,
    quotedblleft,
    quotedblright,
    bullet,
    ellipsis,
    guilsinglleft,
    guilsinglright,
    Euro,
    trademark,
    minus,
    ITF,
    ZWNJ,
    ZWJ,
    rupee,
    "kn_base",
    "kn_anusvara",
    "kn_visarga",
    "kn_a",
    "kn_aa",
    "kn_i",
    "kn_ii",
    "kn_u",
    "kn_uu",
    "kn_vocalicR",
    "kn_vocalicL",
    "kn_e",
    "kn_ee",
    "kn_ai",
    "kn_o",
    "kn_oo",
    "kn_au",
    "kn_ka",
    "kn_kha",
    "kn_ga",
    "kn_gha",
    "kn_nga",
    "kn_ca",
    "kn_cha",
    "kn_ja",
    "kn_jha",
    "kn_nya",
    "kn_tta",
    "kn_ttha",

glyphs = (
{
glyphname = quotedbl;
lastChange = "2015-05-14 13:32:58 +0000";
layers = (
{
layerId = "9609CB55-EFEB-482C-9A6C-237B4D7F8578";
name = Bold;
paths = (
{
closed = 1;
nodes = (
"40 420 LINE",
"162 420 LINE",
"162 681 LINE",
"40 681 LINE"
);
},
{
closed = 1;
nodes = (
"225 420 LINE",
"347 420 LINE",
"347 681 LINE",
"225 681 LINE"
);
}
);
width = 387;
},
{
layerId = "DCCD84DA-95A9-4923-A49E-D7B289AC34C6";
name = Light;
paths = (
{
closed = 1;
nodes = (
"45 451 LINE",
"102 451 LINE",
"102 681 LINE",
"45 681 LINE"
);
},
{
closed = 1;
nodes = (
"169 451 LINE",
"226 451 LINE",
"226 681 LINE",
"169 681 LINE"
);
}
);
width = 271;
}
);
unicode = 0022;
},
{
glyphname = numbersign;
lastChange = "2015-05-14 13:32:58 +0000";
layers = (
{
layerId = "9609CB55-EFEB-482C-9A6C-237B4D7F8578";
name = Bold;
paths = (
{
closed = 1;
nodes = (
"79 400 LINE",
"712 400 LINE",
"712 516 LINE",
"79 516 LINE"
);
},
{
closed = 1;
nodes = (
"373 0 LINE",
"496 0 LINE",
"639 673 LINE",
"515 673 LINE"
);
},
{
closed = 1;
nodes = (
"113 0 LINE",
"236 0 LINE",
"379 673 LINE",
"255 673 LINE"
);
},
{
closed = 1;
nodes = (
"45 154 LINE",
"678 154 LINE",
"678 265 LINE",
"45 265 LINE"
);
}
);
width = 757;
},
{
layerId = "DCCD84DA-95A9-4923-A49E-D7B289AC34C6";
name = Light;
paths = (
{
closed = 1;
nodes = (
"114 449 LINE",
"642 449 LINE",
"642 500 LINE",
"114 500 LINE"
);
},
{
closed = 1;
nodes = (
"377 0 LINE",
"436 0 LINE",
"577 674 LINE",
"520 674 LINE"
);
},
{
closed = 1;
nodes = (
"130 0 LINE",
"187 0 LINE",
"330 674 LINE",
"271 674 LINE"
);
},
{
closed = 1;
nodes = (
"55 174 LINE",
"585 174 LINE",
"585 225 LINE",
"55 225 LINE"
);
}
);
width = 697;
}
);
unicode = 0023;
},
{
glyphname = dollar;
lastChange = "2015-05-14 13:32:58 +0000";
layers = (
{
layerId = "9609CB55-EFEB-482C-9A6C-237B4D7F8578";
name = Bold;
paths = (
{
closed = 1;
nodes = (
"349 591 LINE",
"349 790 LINE",
"227 790 LINE",
"227 591 LINE"
);
},
{
closed = 1;
nodes = (
"178 92 LINE",
"178 -118 LINE",
"299 -118 LINE",
"299 92 LINE"
);
},
{
closed = 1;
nodes = (
"449 644 LINE",
"395 669 OFFCURVE",
"331 678 OFFCURVE",
"275 678 CURVE",
"122 678 OFFCURVE",
"34 598 OFFCURVE",
"34 484 CURVE",
"34 376 OFFCURVE",
"107 326 OFFCURVE",
"178 293 CURVE SMOOTH",
"255 257 OFFCURVE",
"315 239 OFFCURVE",
"315 190 CURVE",
"315 150 OFFCURVE",
"280 123 OFFCURVE",
"234 123 CURVE",
"171 123 OFFCURVE",
"106 141 OFFCURVE",
"40 189 CURVE",
"40 34 LINE",
"90 6 OFFCURVE",
"164 -8 OFFCURVE",
"234 -8 CURVE",
"382 -8 OFFCURVE",
"479 75 OFFCURVE",
"479 196 CURVE",
"479 319 OFFCURVE",
"385 367 OFFCURVE",
"301 404 CURVE SMOOTH",
"244 429 OFFCURVE",
"201 453 OFFCURVE",
"201 490 CURVE",
"201 522 OFFCURVE",
"227 547 OFFCURVE",
"281 547 CURVE",
"338 547 OFFCURVE",
"399 529 OFFCURVE",
"449 500 CURVE"
);
}
);
width = 514;
},
{
layerId = "DCCD84DA-95A9-4923-A49E-D7B289AC34C6";
name = Light;
paths = (
{
closed = 1;
nodes = (
"306 659 LINE",
"306 781 LINE",
"251 781 LINE",
"251 659 LINE"
);
},
{
closed = 1;
nodes = (
"200 25 LINE",
"200 -107 LINE",
"255 -107 LINE",
"255 25 LINE"
);
},
{
closed = 1;
nodes = (
"408 650 LINE",
"369 671 OFFCURVE",
"315 680 OFFCURVE",
"268 680 CURVE SMOOTH",
"158 680 OFFCURVE",
"58 619 OFFCURVE",
"58 500 CURVE SMOOTH",
"58 394 OFFCURVE",
"140 352 OFFCURVE",
"221 317 CURVE SMOOTH",
"303 282 OFFCURVE",
"384 253 OFFCURVE",
"384 173 CURVE SMOOTH",
"384 94 OFFCURVE",
"327 53 OFFCURVE",
"234 53 CURVE SMOOTH",
"167 53 OFFCURVE",
"99 76 OFFCURVE",
"60 106 CURVE",
"60 37 LINE",
"108 8 OFFCURVE",
"174 -7 OFFCURVE",
"237 -7 CURVE SMOOTH",
"353 -7 OFFCURVE",
"447 52 OFFCURVE",
"447 174 CURVE SMOOTH",
"447 281 OFFCURVE",
"366 323 OFFCURVE",
"285 358 CURVE SMOOTH",
"203 394 OFFCURVE",
"122 423 OFFCURVE",
"122 504 CURVE SMOOTH",
"122 573 OFFCURVE",
"179 619 OFFCURVE",
"269 619 CURVE SMOOTH",
"319 619 OFFCURVE",
"377 602 OFFCURVE",
"408 581 CURVE"
);
}
);
width = 502;
}
);
unicode = 0024;
},
{
glyphname = percent;
lastChange = "2015-05-14 13:32:58 +0000";
layers = (
{
layerId = "9609CB55-EFEB-482C-9A6C-237B4D7F8578";
name = Bold;
paths = (
{
closed = 1;
nodes = (
"227 -1 LINE",
"358 -1 LINE",
"738 707 LINE",
"606 707 LINE"
);
},
{
closed = 1;
nodes = (
"548 182 CURVE SMOOTH",
"548 77 OFFCURVE",
"633 -8 OFFCURVE",
"738 -8 CURVE SMOOTH",
"843 -8 OFFCURVE",
"928 77 OFFCURVE",
"928 182 CURVE SMOOTH",
"928 287 OFFCURVE",
"843 372 OFFCURVE",
"738 372 CURVE SMOOTH",
"633 372 OFFCURVE",
"548 287 OFFCURVE"
);
},
{
closed = 1;
nodes = (
"45 532 CURVE SMOOTH",
"45 427 OFFCURVE",
"130 342 OFFCURVE",
"235 342 CURVE SMOOTH",
"340 342 OFFCURVE",
"425 427 OFFCURVE",
"425 532 CURVE SMOOTH",
"425 637 OFFCURVE",
"340 722 OFFCURVE",
"235 722 CURVE SMOOTH",
"130 722 OFFCURVE",
"45 637 OFFCURVE"
);
},
{
closed = 1;
nodes = (
"162 532 CURVE SMOOTH",
"162 572 OFFCURVE",
"195 605 OFFCURVE",
"235 605 CURVE SMOOTH",
"275 605 OFFCURVE",
"308 572 OFFCURVE",
"308 532 CURVE SMOOTH",
"308 492 OFFCURVE",
"275 459 OFFCURVE",
"235 459 CURVE SMOOTH",
"195 459 OFFCURVE",
"162 492 OFFCURVE"
);
},
{
closed = 1;
nodes = (
"665 182 CURVE SMOOTH",
"665 222 OFFCURVE",
"698 255 OFFCURVE",
"738 255 CURVE SMOOTH",
"778 255 OFFCURVE",
"811 222 OFFCURVE",
"811 182 CURVE SMOOTH",
"811 142 OFFCURVE",
"778 109 OFFCURVE",
"738 109 CURVE SMOOTH",
"698 109 OFFCURVE",
"665 142 OFFCURVE"
);
}
);
width = 973;
},
{
layerId = "DCCD84DA-95A9-4923-A49E-D7B289AC34C6";
name = Light;
paths = (
{
closed = 1;
nodes = (
"200 -1 LINE",
"261 -1 LINE",
"614 654 LINE",
"552 654 LINE"
);
},
{
closed = 1;
nodes = (
"464 143 CURVE SMOOTH",
"464 60 OFFCURVE",
"531 -7 OFFCURVE",
"614 -7 CURVE SMOOTH",
"696 -7 OFFCURVE",
"764 60 OFFCURVE",
"764 143 CURVE SMOOTH",
"764 225 OFFCURVE",
"696 293 OFFCURVE",
"614 293 CURVE SMOOTH",
"531 293 OFFCURVE",
"464 225 OFFCURVE"
);
},
{
closed = 1;
nodes = (
"50 510 CURVE SMOOTH",
"50 427 OFFCURVE",
"117 360 OFFCURVE",
"200 360 CURVE SMOOTH",
"282 360 OFFCURVE",
"350 427 OFFCURVE",
"350 510 CURVE SMOOTH",
"350 592 OFFCURVE",
"282 660 OFFCURVE",
"200 660 CURVE SMOOTH",
"117 660 OFFCURVE",
"50 592 OFFCURVE"
);
},
{
closed = 1;
nodes = (
"106 510 CURVE SMOOTH",
"106 562 OFFCURVE",
"148 604 OFFCURVE",
"200 604 CURVE SMOOTH",
"252 604 OFFCURVE",
"294 562 OFFCURVE",
"294 510 CURVE SMOOTH",
"294 458 OFFCURVE",
"252 416 OFFCURVE",
"200 416 CURVE SMOOTH",
"148 416 OFFCURVE",
"106 458 OFFCURVE"
);
},
{
closed = 1;
nodes = (
"520 143 CURVE SMOOTH",
"520 195 OFFCURVE",
"562 237 OFFCURVE",
"614 237 CURVE SMOOTH",
"666 237 OFFCURVE",
"708 195 OFFCURVE",
"708 143 CURVE SMOOTH",
"708 91 OFFCURVE",
"666 49 OFFCURVE",
"614 49 CURVE SMOOTH",
"562 49 OFFCURVE",
"520 91 OFFCURVE"
);
}
);
width = 814;
}
);
unicode = 0025;
},
{
glyphname = quotesingle;
lastChange = "2015-05-14 13:32:58 +0000";
layers = (
{
layerId = "9609CB55-EFEB-482C-9A6C-237B4D7F8578";
name = Bold;
paths = (
{
closed = 1;
nodes = (
"40 420 LINE",
"162 420 LINE",
"162 681 LINE",
"40 681 LINE"
);
}
);
width = 202;
},
{
layerId = "DCCD84DA-95A9-4923-A49E-D7B289AC34C6";
name = Light;
paths = (
{
closed = 1;
nodes = (
"45 451 LINE",
"102 451 LINE",
"102 681 LINE",
"45 681 LINE"
);
}
);
width = 147;
}
);
unicode = 0027;
},
{
glyphname = parenleft;
lastChange = "2015-05-14 13:32:58 +0000";
layers = (
{
layerId = "9609CB55-EFEB-482C-9A6C-237B4D7F8578";
name = Bold;
paths = (
{
closed = 1;
nodes = (
"197 707 CURVE",
"348 707 LINE",
"246 582 OFFCURVE",
"194 390 OFFCURVE",
"194 255 CURVE SMOOTH",
"194 125 OFFCURVE",
"245 -58 OFFCURVE",
"358 -196 CURVE",
"203 -196 LINE",
"96 -63 OFFCURVE",
"40 83 OFFCURVE",
"40 259 CURVE SMOOTH",
"40 439 OFFCURVE",
"97 587 OFFCURVE"
);
}
);
width = 338;
},
{
layerId = "DCCD84DA-95A9-4923-A49E-D7B289AC34C6";
name = Light;
paths = (
{
closed = 1;
nodes = (
"232 707 CURVE",
"303 707 LINE",
"196 560 OFFCURVE",
"145 419 OFFCURVE",
"145 257 CURVE SMOOTH",
"145 101 OFFCURVE",
"202 -54 OFFCURVE",
"310 -196 CURVE",
"240 -196 LINE",
"134 -61 OFFCURVE",
"80 103 OFFCURVE",
"80 262 CURVE SMOOTH",
"80 424 OFFCURVE",
"141 587 OFFCURVE"
);
}
);
width = 303;
}
);
unicode = 0028;
},
{
glyphname = parenright;
lastChange = "2015-05-14 13:32:58 +0000";
layers = (
{
layerId = "9609CB55-EFEB-482C-9A6C-237B4D7F8578";
name = Bold;
paths = (
{
closed = 1;
nodes = (
"141 707 CURVE",
"-10 707 LINE",
"92 582 OFFCURVE",
"144 390 OFFCURVE",
"144 255 CURVE SMOOTH",
"144 125 OFFCURVE",
"93 -58 OFFCURVE",
"-20 -196 CURVE",
"135 -196 LINE",
"242 -63 OFFCURVE",
"298 83 OFFCURVE",
"298 259 CURVE SMOOTH",
"298 439 OFFCURVE",
"241 587 OFFCURVE"
);
}
);
width = 338;
},
{
layerId = "DCCD84DA-95A9-4923-A49E-D7B289AC34C6";
name = Light;
paths = (
{
closed = 1;
nodes = (
"71 707 CURVE",
"0 707 LINE",
"107 560 OFFCURVE",
"158 419 OFFCURVE",
"158 257 CURVE SMOOTH",
"158 101 OFFCURVE",
"101 -54 OFFCURVE",
"-7 -196 CURVE",
"63 -196 LINE",
"169 -61 OFFCURVE",
"223 103 OFFCURVE",
"223 262 CURVE SMOOTH",
"223 424 OFFCURVE",
"162 587 OFFCURVE"
);
}
);
width = 303;
}
);
unicode = 0029;
},
{
glyphname = asterisk;
lastChange = "2015-05-14 13:32:58 +0000";
layers = (
{
layerId = "9609CB55-EFEB-482C-9A6C-237B4D7F8578";
name = Bold;
paths = (
{
closed = 1;
nodes = (
"196 576 LINE",
"196 489 OFFCURVE",
"255 455 OFFCURVE",
"255 455 CURVE",
"255 455 OFFCURVE",
"314 490 OFFCURVE",
"314 576 CURVE SMOOTH",
"314 674 LINE",
"196 674 LINE"
);
},
{
closed = 1;
nodes = (
"122 436 LINE",
"140 430 OFFCURVE",
"157 427 OFFCURVE",
"173 427 CURVE SMOOTH",
"224 427 OFFCURVE",
"255 455 OFFCURVE",
"255 455 CURVE",
"254 454 OFFCURVE",
"238 523 OFFCURVE",
"158 549 CURVE SMOOTH",
"65 579 LINE",
"28 467 LINE"
);
},
{
closed = 1;
nodes = (
"232 323 LINE",
"256 355 OFFCURVE",
"263 382 OFFCURVE",
"263 411 CURVE SMOOTH",
"263 453 OFFCURVE",
"255 455 OFFCURVE",
"255 455 CURVE SMOOTH",
"208 455 OFFCURVE",
"163 429 OFFCURVE",
"136 392 CURVE SMOOTH",
"78 313 LINE",
"173 243 LINE"
);
},
{
closed = 1;
nodes = (
"373 392 LINE",
"329 452 OFFCURVE",
"271 455 OFFCURVE",
"255 455 CURVE SMOOTH",
"255 455 OFFCURVE",
"248 452 OFFCURVE",
"248 412 CURVE SMOOTH",
"248 388 OFFCURVE",
"254 355 OFFCURVE",
"278 322 CURVE SMOOTH",
"335 243 LINE",
"431 312 LINE"
);
},
{
closed = 1;
nodes = (
"351 548 LINE",
"270 522 OFFCURVE",
"255 455 OFFCURVE",
"255 455 CURVE",
"255 455 OFFCURVE",
"286 428 OFFCURVE",
"339 428 CURVE SMOOTH",
"354 428 OFFCURVE",
"370 430 OFFCURVE",
"389 436 CURVE SMOOTH",
"481 466 LINE",
"445 578 LINE"
);
}
);
width = 508;
},
{
layerId = "DCCD84DA-95A9-4923-A49E-D7B289AC34C6";
name = Light;
paths = (
{
closed = 1;
nodes = (
"164 578 LINE",
"164 544 OFFCURVE",
"176 527 OFFCURVE",
"190 513 CURVE",
"204 527 OFFCURVE",
"214 544 OFFCURVE",
"214 578 CURVE SMOOTH",
"214 674 LINE",
"164 674 LINE"
);
},
{
closed = 1;
nodes = (
"120 508 LINE",
"132 504 OFFCURVE",
"142 503 OFFCURVE",
"151 503 CURVE SMOOTH",
"166 503 OFFCURVE",
"178 507 OFFCURVE",
"190 513 CURVE",
"181 530 OFFCURVE",
"168 545 OFFCURVE",
"136 556 CURVE SMOOTH",
"44 586 LINE",
"29 538 LINE"
);
},
{
closed = 1;
nodes = (
"173 445 LINE",
"187 464 OFFCURVE",
"191 481 OFFCURVE",
"191 496 CURVE SMOOTH",
"191 502 OFFCURVE",
"191 507 OFFCURVE",
"190 513 CURVE",
"171 509 OFFCURVE",
"152 502 OFFCURVE",
"132 475 CURVE SMOOTH",
"75 397 LINE",
"116 368 LINE"
);
},
{
closed = 1;
nodes = (
"249 476 LINE",
"230 503 OFFCURVE",
"210 510 OFFCURVE",
"190 513 CURVE",
"189 508 OFFCURVE",
"189 504 OFFCURVE",
"189 499 CURVE SMOOTH",
"189 484 OFFCURVE",
"193 467 OFFCURVE",
"208 446 CURVE SMOOTH",
"265 368 LINE",
"305 398 LINE"
);
},
{
closed = 1;
nodes = (
"243 558 LINE",
"212 548 OFFCURVE",
"199 531 OFFCURVE",
"190 513 CURVE",
"201 507 OFFCURVE",
"212 504 OFFCURVE",
"226 504 CURVE SMOOTH",
"235 504 OFFCURVE",
"247 505 OFFCURVE",
"259 509 CURVE SMOOTH",
"351 540 LINE",
"335 587 LINE"
);
}
);
width = 381;
}
);
unicode = 002A;
},
{
glyphname = plus;
lastChange = "2015-05-14 13:32:58 +0000";
layers = (
{
layerId = "9609CB55-EFEB-482C-9A6C-237B4D7F8578";
name = Bold;
paths = (
{
closed = 1;
nodes = (
"45 274 LINE",
"544 274 LINE",
"544 404 LINE",
"45 404 LINE"
);
},
{
closed = 1;
nodes = (
"361 94 LINE",
"361 585 LINE",
"227 585 LINE",
"227 94 LINE"
);
}
);
width = 589;
},
{
layerId = "DCCD84DA-95A9-4923-A49E-D7B289AC34C6";
name = Light;
paths = (
{
closed = 1;
nodes = (
"60 312 LINE",
"484 312 LINE",
"484 368 LINE",
"60 368 LINE"
);
},
{
closed = 1;
nodes = (
"296 120 LINE",
"296 560 LINE",
"239 560 LINE",
"239 120 LINE"
);
}
);
width = 544;
}
);
unicode = 002B;
},
{
glyphname = comma;
lastChange = "2015-05-14 13:32:58 +0000";
layers = (
{
layerId = "9609CB55-EFEB-482C-9A6C-237B4D7F8578";
name = Bold;
paths = (
{
closed = 1;
nodes = (
"-7 -127 LINE",
"119 -127 LINE",
"255 134 LINE",
"94 134 LINE"
);
}
);
width = 294;
},
{
layerId = "DCCD84DA-95A9-4923-A49E-D7B289AC34C6";
name = Light;
paths = (
{
closed = 1;
nodes = (
"-8 -122 LINE",
"46 -122 LINE",
"173 92 LINE",
"83 92 LINE"
);
}
);
width = 207;
}
);
unicode = 002C;
},
{
glyphname = hyphen;
lastChange = "2015-05-14 13:32:58 +0000";
layers = (
{
layerId = "9609CB55-EFEB-482C-9A6C-237B4D7F8578";
name = Bold;
paths = (
{
closed = 1;
nodes = (
"45 202 LINE",
"312 202 LINE",
"312 322 LINE",
"45 322 LINE"
);
}
);
width = 357;
},
{
layerId = "DCCD84DA-95A9-4923-A49E-D7B289AC34C6";
name = Light;
paths = (
{
closed = 1;
nodes = (
"60 243 LINE",
"285 243 LINE",
"285 298 LINE",
"60 298 LINE"
);
}
);
width = 345;
}
);
unicode = 002D;
},
{
glyphname = period;
lastChange = "2015-05-14 13:32:58 +0000";
layers = (
{
layerId = "9609CB55-EFEB-482C-9A6C-237B4D7F8578";
name = Bold;
paths = (
{
closed = 1;
nodes = (
"40 81 CURVE SMOOTH",
"40 32 OFFCURVE",
"80 -8 OFFCURVE",
"129 -8 CURVE SMOOTH",
"178 -8 OFFCURVE",
"218 32 OFFCURVE",
"218 81 CURVE SMOOTH",
"218 130 OFFCURVE",
"178 170 OFFCURVE",
"129 170 CURVE SMOOTH",
"80 170 OFFCURVE",
"40 130 OFFCURVE"
);
}
);
width = 258;
},
{
layerId = "DCCD84DA-95A9-4923-A49E-D7B289AC34C6";
name = Light;
paths = (
{
closed = 1;
nodes = (
"20 43 CURVE SMOOTH",
"20 14 OFFCURVE",
"42 -8 OFFCURVE",
"71 -8 CURVE SMOOTH",
"100 -8 OFFCURVE",
"122 14 OFFCURVE",
"122 43 CURVE SMOOTH",
"122 72 OFFCURVE",
"100 94 OFFCURVE",
"71 94 CURVE SMOOTH",
"42 94 OFFCURVE",
"20 72 OFFCURVE"
);
}
);
width = 142;
}
);
unicode = 002E;
},
{
glyphname = slash;
lastChange = "2015-05-14 13:32:58 +0000";
layers = (
{
layerId = "9609CB55-EFEB-482C-9A6C-237B4D7F8578";
name = Bold;
paths = (
{
closed = 1;
nodes = (
"-2 -103 LINE",
"149 -103 LINE",
"509 707 LINE",
"357 707 LINE"
);
}
);
width = 464;
},
{
layerId = "DCCD84DA-95A9-4923-A49E-D7B289AC34C6";
name = Light;
paths = (
{
closed = 1;
nodes = (
"-11 -102 LINE",
"50 -102 LINE",
"417 707 LINE",
"355 707 LINE"
);
}
);
width = 387;
}
);
unicode = 002F;
},
{
glyphname = zero;
lastChange = "2015-05-14 13:32:58 +0000";
layers = (
{
layerId = "9609CB55-EFEB-482C-9A6C-237B4D7F8578";
name = Bold;
paths = (
{
closed = 1;
nodes = (
"35 330 CURVE SMOOTH",
"35 132 OFFCURVE",
"111 -8 OFFCURVE",
"273 -8 CURVE SMOOTH",
"435 -8 OFFCURVE",
"512 132 OFFCURVE",
"512 330 CURVE SMOOTH",
"512 531 OFFCURVE",
"435 668 OFFCURVE",
"273 668 CURVE SMOOTH",
"111 668 OFFCURVE",
"35 531 OFFCURVE"
);
},
{
closed = 1;
nodes = (
"184 330 CURVE SMOOTH",
"184 467 OFFCURVE",
"212 538 OFFCURVE",
"273 538 CURVE SMOOTH",
"333 538 OFFCURVE",
"363 467 OFFCURVE",
"363 330 CURVE SMOOTH",
"363 195 OFFCURVE",
"333 122 OFFCURVE",
"273 122 CURVE SMOOTH",
"212 122 OFFCURVE",
"184 195 OFFCURVE"
);
}
);
width = 547;
},
{
layerId = "DCCD84DA-95A9-4923-A49E-D7B289AC34C6";
name = Light;
paths = (
{
closed = 1;
nodes = (
"45 329 CURVE SMOOTH",
"45 125 OFFCURVE",
"137 -8 OFFCURVE",
"269 -8 CURVE SMOOTH",
"417 -8 OFFCURVE",
"498 131 OFFCURVE",
"498 329 CURVE SMOOTH",
"498 537 OFFCURVE",
"403 660 OFFCURVE",
"269 660 CURVE SMOOTH",
"142 660 OFFCURVE",
"45 537 OFFCURVE"
);
},
{
closed = 1;
nodes = (
"108 329 CURVE SMOOTH",
"108 513 OFFCURVE",
"192 600 OFFCURVE",
"269 600 CURVE SMOOTH",
"357 600 OFFCURVE",
"435 513 OFFCURVE",
"435 329 CURVE SMOOTH",
"435 148 OFFCURVE",
"367 52 OFFCURVE",
"269 52 CURVE SMOOTH",
"185 52 OFFCURVE",
"108 148 OFFCURVE"
);
}
);
width = 543;
}
);
unicode = 0030;
},
{
glyphname = one;
lastChange = "2015-05-14 13:32:58 +0000";
layers = (
{
layerId = "9609CB55-EFEB-482C-9A6C-237B4D7F8578";
name = Bold;
paths = (
{
closed = 1;
nodes = (
"10 398 LINE",
"175 497 LINE",
"175 0 LINE",
"320 0 LINE",
"320 654 LINE",
"194 654 LINE",
"10 547 LINE"
);
}
);
width = 380;
},
{
layerId = "DCCD84DA-95A9-4923-A49E-D7B289AC34C6";
name = Light;
paths = (
{
closed = 1;
nodes = (
"20 495 LINE",
"167 587 LINE",
"167 0 LINE",
"228 0 LINE",
"228 654 LINE",
"167 654 LINE",
"20 564 LINE"
);
}
);
width = 308;
}
);
unicode = 0031;
},
{
glyphname = two;
lastChange = "2015-05-14 13:32:58 +0000";
layers = (
{
layerId = "9609CB55-EFEB-482C-9A6C-237B4D7F8578";
name = Bold;
paths = (
{
closed = 1;
nodes = (
"80 26 LINE",
"318 157 OFFCURVE",
"454 306 OFFCURVE",
"454 460 CURVE SMOOTH",
"454 591 OFFCURVE",
"364 663 OFFCURVE",
"231 663 CURVE SMOOTH",
"160 663 OFFCURVE",
"83 636 OFFCURVE",
"41 605 CURVE",
"41 464 LINE",
"82 498 OFFCURVE",
"145 527 OFFCURVE",
"202 527 CURVE SMOOTH",
"272 527 OFFCURVE",
"303 490 OFFCURVE",
"303 436 CURVE SMOOTH",
"303 335 OFFCURVE",
"153 197 OFFCURVE",
"30 113 CURVE"
);
},
{
closed = 1;
nodes = (
"30 0 LINE",
"466 0 LINE",
"466 124 LINE",
"224 124 LINE",
"30 113 LINE"
);
}
);
width = 501;
},
{
layerId = "DCCD84DA-95A9-4923-A49E-D7B289AC34C6";
name = Light;
paths = (
{
closed = 1;
nodes = (
"77 16 LINE",
"274 164 OFFCURVE",
"424 324 OFFCURVE",
"424 466 CURVE SMOOTH",
"424 598 OFFCURVE",
"323 660 OFFCURVE",
"220 660 CURVE SMOOTH",
"167 660 OFFCURVE",
"108 641 OFFCURVE",
"64 606 CURVE",
"64 544 LINE",
"113 580 OFFCURVE",
"172 602 OFFCURVE",
"218 602 CURVE SMOOTH",
"301 602 OFFCURVE",
"360 556 OFFCURVE",
"360 463 CURVE SMOOTH",
"360 329 OFFCURVE",
"197 175 OFFCURVE",
"40 55 CURVE"
);
},
{
closed = 1;
nodes = (
"40 0 LINE",
"447 0 LINE",
"447 55 LINE",
"88 55 LINE",
"40 55 LINE"
);
}
);
width = 492;
}
);
unicode = 0032;
},
{
glyphname = three;
lastChange = "2015-05-14 13:32:58 +0000";
layers = (
{
layerId = "9609CB55-EFEB-482C-9A6C-237B4D7F8578";
name = Bold;
paths = (
{
closed = 1;
nodes = (
"164 392 LINE",
"229 392 OFFCURVE",
"285 413 OFFCURVE",
"285 464 CURVE SMOOTH",
"285 513 OFFCURVE",
"248 533 OFFCURVE",
"195 533 CURVE SMOOTH",
"146 533 OFFCURVE",
"90 511 OFFCURVE",
"56 490 CURVE",
"56 626 LINE",
"92 644 OFFCURVE",
"149 663 OFFCURVE",
"205 663 CURVE SMOOTH",
"348 663 OFFCURVE",
"435 587 OFFCURVE",
"435 481 CURVE SMOOTH",
"435 383 OFFCURVE",
"369 318 OFFCURVE",
"251 311 CURVE",
"251 335 LINE",
"372 342 OFFCURVE",
"448 287 OFFCURVE",
"448 180 CURVE SMOOTH",
"448 71 OFFCURVE",
"362 -5 OFFCURVE",
"207 -5 CURVE SMOOTH",
"145 -5 OFFCURVE",
"75 7 OFFCURVE",
"30 29 CURVE",
"30 169 LINE",
"77 143 OFFCURVE",
"129 125 OFFCURVE",
"195 125 CURVE SMOOTH",
"263 125 OFFCURVE",
"299 158 OFFCURVE",
"299 199 CURVE SMOOTH",
"299 238 OFFCURVE",
"269 272 OFFCURVE",
"164 272 CURVE"
);
},
{
closed = 1;
nodes = (
"288 272 LINE",
"129 272 LINE",
"129 392 LINE",
"288 392 LINE"
);
}
);
width = 483;
},
{
layerId = "DCCD84DA-95A9-4923-A49E-D7B289AC34C6";
name = Light;
paths = (
{
closed = 1;
nodes = (
"186 358 LINE",
"258 358 OFFCURVE",
"322 405 OFFCURVE",
"322 485 CURVE SMOOTH",
"322 565 OFFCURVE",
"269 602 OFFCURVE",
"189 602 CURVE SMOOTH",
"144 602 OFFCURVE",
"93 585 OFFCURVE",
"58 562 CURVE",
"58 624 LINE",
"85 642 OFFCURVE",
"137 660 OFFCURVE",
"188 660 CURVE SMOOTH",
"323 660 OFFCURVE",
"386 578 OFFCURVE",
"386 491 CURVE SMOOTH",
"386 411 OFFCURVE",
"340 340 OFFCURVE",
"237 318 CURVE",
"238 338 LINE",
"333 335 OFFCURVE",
"406 275 OFFCURVE",
"406 180 CURVE SMOOTH",
"406 80 OFFCURVE",
"337 -6 OFFCURVE",
"199 -6 CURVE SMOOTH",
"150 -6 OFFCURVE",
"84 6 OFFCURVE",
"40 27 CURVE",
"40 89 LINE",
"90 63 OFFCURVE",
"144 52 OFFCURVE",
"200 52 CURVE SMOOTH",
"292 52 OFFCURVE",
"343 107 OFFCURVE",
"343 182 CURVE SMOOTH",
"343 262 OFFCURVE",
"282 303 OFFCURVE",
"186 303 CURVE"
);
},
{
closed = 1;
nodes = (
"225 303 LINE",
"142 303 LINE",
"142 358 LINE",
"225 358 LINE"
);
}
);
width = 461;
}
);
unicode = 0033;
},
{
glyphname = four;
lastChange = "2015-05-14 13:32:58 +0000";
layers = (
{
layerId = "9609CB55-EFEB-482C-9A6C-237B4D7F8578";
name = Bold;
paths = (
{
closed = 1;
nodes = (
"30 263 LINE",
"542 263 LINE",
"542 139 LINE",
"30 139 LINE"
);
},
{
closed = 1;
nodes = (
"230 656 LINE",
"364 656 LINE",
"173 263 LINE",
"30 263 LINE"
);
},
{
closed = 1;
nodes = (
"317 656 LINE",
"462 656 LINE",
"462 0 LINE",
"317 0 LINE"
);
}
);
width = 562;
},
{
layerId = "DCCD84DA-95A9-4923-A49E-D7B289AC34C6";
name = Light;
paths = (
{
closed = 1;
nodes = (
"45 219 LINE",
"509 219 LINE",
"509 164 LINE",
"45 164 LINE"
);
},
{
closed = 1;
nodes = (
"307 654 LINE",
"369 654 LINE",
"108 219 LINE",
"45 219 LINE"
);
},
{
closed = 1;
nodes = (
"348 654 LINE",
"408 654 LINE",
"408 0 LINE",
"348 0 LINE"
);
}
);
width = 534;
}
);
unicode = 0034;
},
{
glyphname = five;
lastChange = "2015-05-14 13:32:58 +0000";
layers = (
{
layerId = "9609CB55-EFEB-482C-9A6C-237B4D7F8578";
name = Bold;
paths = (
{
closed = 1;
nodes = (
"63 266 CURVE",
"63 370 LINE",
"114 400 OFFCURVE",
"185 424 OFFCURVE",
"249 424 CURVE SMOOTH",
"394 424 OFFCURVE",
"470 343 OFFCURVE",
"470 219 CURVE SMOOTH",
"470 87 OFFCURVE",
"381 -6 OFFCURVE",
"211 -6 CURVE SMOOTH",
"148 -6 OFFCURVE",
"85 3 OFFCURVE",
"35 29 CURVE",
"35 167 LINE",
"72 144 OFFCURVE",
"130 125 OFFCURVE",
"187 125 CURVE SMOOTH",
"280 125 OFFCURVE",
"321 163 OFFCURVE",
"321 221 CURVE SMOOTH",
"321 268 OFFCURVE",
"286 299 OFFCURVE",
"211 299 CURVE SMOOTH",
"154 299 OFFCURVE",
"91 279 OFFCURVE"
);
},
{
closed = 1;
nodes = (
"430 532 LINE",
"63 532 LINE",
"63 656 LINE",
"430 656 LINE"
);
},
{
closed = 1;
nodes = (
"63 617 LINE",
"205 617 LINE",
"205 338 LINE",
"63 338 LINE"
);
}
);
width = 500;
},
{
layerId = "DCCD84DA-95A9-4923-A49E-D7B289AC34C6";
name = Light;
paths = (
{
closed = 1;
nodes = (
"98 299 CURVE",
"98 361 LINE",
"150 381 OFFCURVE",
"202 392 OFFCURVE",
"247 392 CURVE SMOOTH",
"376 392 OFFCURVE",
"462 318 OFFCURVE",
"462 200 CURVE SMOOTH",
"462 73 OFFCURVE",
"374 -8 OFFCURVE",
"231 -8 CURVE SMOOTH",
"179 -8 OFFCURVE",
"114 2 OFFCURVE",
"65 25 CURVE",
"65 87 LINE",
"105 64 OFFCURVE",
"169 50 OFFCURVE",
"221 50 CURVE SMOOTH",
"335 50 OFFCURVE",
"398 98 OFFCURVE",
"398 203 CURVE SMOOTH",
"398 291 OFFCURVE",
"331 334 OFFCURVE",
"250 334 CURVE SMOOTH",
"194 334 OFFCURVE",
"141 318 OFFCURVE"
);
},
{
closed = 1;
nodes = (
"416 599 LINE",
"98 599 LINE",
"98 654 LINE",
"416 654 LINE"
);
},
{
closed = 1;
nodes = (
"98 609 LINE",
"160 609 LINE",
"160 351 LINE",
"98 351 LINE"
);
}
);
width = 512;
}
);
unicode = 0035;
},
{
glyphname = six;
lastChange = "2015-05-14 13:32:58 +0000";
layers = (
{
layerId = "9609CB55-EFEB-482C-9A6C-237B4D7F8578";
name = Bold;
paths = (
{
closed = 1;
nodes = (
"135 295 LINE",
"160 364 OFFCURVE",
"228 422 OFFCURVE",
"321 422 CURVE SMOOTH",
"435 422 OFFCURVE",
"512 341 OFFCURVE",
"512 212 CURVE SMOOTH",
"512 85 OFFCURVE",
"428 -20 OFFCURVE",
"279 -20 CURVE SMOOTH",
"112 -20 OFFCURVE",
"35 112 OFFCURVE",
"35 299 CURVE SMOOTH",
"35 527 OFFCURVE",
"175 666 OFFCURVE",
"358 666 CURVE SMOOTH",
"396 666 OFFCURVE",
"436 658 OFFCURVE",
"461 650 CURVE",
"461 515 LINE",
"433 530 OFFCURVE",
"404 536 OFFCURVE",
"370 536 CURVE SMOOTH",
"245 536 OFFCURVE",
"184 427 OFFCURVE",
"184 299 CURVE SMOOTH",
"184 157 OFFCURVE",
"229 110 OFFCURVE",
"280 110 CURVE SMOOTH",
"332 110 OFFCURVE",
"363 149 OFFCURVE",
"363 209 CURVE SMOOTH",
"363 262 OFFCURVE",
"334 299 OFFCURVE",
"281 299 CURVE SMOOTH",
"216 299 OFFCURVE",
"175 252 OFFCURVE",
"141 196 CURVE"
);
}
);
width = 537;
},
{
layerId = "DCCD84DA-95A9-4923-A49E-D7B289AC34C6";
name = Light;
paths = (
{
closed = 1;
nodes = (
"99 322 LINE",
"138 383 OFFCURVE",
"219 421 OFFCURVE",
"290 421 CURVE SMOOTH",
"413 421 OFFCURVE",
"484 336 OFFCURVE",
"484 213 CURVE SMOOTH",
"484 79 OFFCURVE",
"403 -8 OFFCURVE",
"285 -8 CURVE SMOOTH",
"135 -8 OFFCURVE",
"57 122 OFFCURVE",
"57 295 CURVE SMOOTH",
"57 499 OFFCURVE",
"155 675 OFFCURVE",
"350 675 CURVE SMOOTH",
"386 675 OFFCURVE",
"411 670 OFFCURVE",
"439 660 CURVE",
"439 598 LINE",
"413 610 OFFCURVE",
"383 617 OFFCURVE",
"349 617 CURVE SMOOTH",
"190 617 OFFCURVE",
"117 455 OFFCURVE",
"117 295 CURVE SMOOTH",
"117 130 OFFCURVE",
"189 49 OFFCURVE",
"285 49 CURVE SMOOTH",
"369 49 OFFCURVE",
"420 118 OFFCURVE",
"420 215 CURVE SMOOTH",
"420 308 OFFCURVE",
"365 363 OFFCURVE",
"289 363 CURVE SMOOTH",
"206 363 OFFCURVE",
"132 313 OFFCURVE",
"99 259 CURVE"
);
}
);
width = 523;
}
);
unicode = 0036;
},
{
glyphname = seven;
lastChange = "2015-05-14 13:32:58 +0000";
layers = (
{
layerId = "9609CB55-EFEB-482C-9A6C-237B4D7F8578";
name = Bold;
paths = (
{
closed = 1;
nodes = (
"206 0 LINE",
"52 0 LINE",
"307 531 LINE",
"460 531 LINE"
);
},
{
closed = 1;
nodes = (
"460 531 LINE",
"20 531 LINE",
"20 655 LINE",
"460 655 LINE"
);
}
);
width = 480;
},
{
layerId = "DCCD84DA-95A9-4923-A49E-D7B289AC34C6";
name = Light;
paths = (
{
closed = 1;
nodes = (
"158 0 LINE",
"92 0 LINE",
"368 599 LINE",
"433 599 LINE"
);
},
{
closed = 1;
nodes = (
"433 599 LINE",
"10 599 LINE",
"10 654 LINE",
"433 654 LINE"
);
}
);
width = 443;
}
);
unicode = 0037;
},
{
glyphname = eight;
lastChange = "2015-05-14 13:32:58 +0000";
layers = (
{
layerId = "9609CB55-EFEB-482C-9A6C-237B4D7F8578";
name = Bold;
paths = (
{
closed = 1;
nodes = (
"45 471 CURVE SMOOTH",
"45 361 OFFCURVE",
"144 297 OFFCURVE",
"270 297 CURVE SMOOTH",
"398 297 OFFCURVE",
"499 361 OFFCURVE",
"499 471 CURVE SMOOTH",
"499 607 OFFCURVE",
"398 666 OFFCURVE",
"270 666 CURVE SMOOTH",
"144 666 OFFCURVE",
"45 597 OFFCURVE"
);
},
{
closed = 1;
nodes = (
"270 550 CURVE SMOOTH",
"340 550 OFFCURVE",
"353 511 OFFCURVE",
"353 473 CURVE SMOOTH",
"353 419 OFFCURVE",
"315 393 OFFCURVE",
"273 393 CURVE SMOOTH",
"229 393 OFFCURVE",
"192 420 OFFCURVE",
"192 473 CURVE SMOOTH",
"192 511 OFFCURVE",
"212 550 OFFCURVE"
);
},
{
closed = 1;
nodes = (
"35 177 CURVE SMOOTH",
"35 62 OFFCURVE",
"126 -10 OFFCURVE",
"270 -10 CURVE SMOOTH",
"412 -10 OFFCURVE",
"510 67 OFFCURVE",
"510 182 CURVE SMOOTH",
"510 319 OFFCURVE",
"398 359 OFFCURVE",
"270 359 CURVE SMOOTH",
"144 359 OFFCURVE",
"35 305 OFFCURVE"
);
},
{
closed = 1;
nodes = (
"271 265 CURVE SMOOTH",
"332 265 OFFCURVE",
"364 229 OFFCURVE",
"364 183 CURVE SMOOTH",
"364 145 OFFCURVE",
"337 106 OFFCURVE",
"271 106 CURVE SMOOTH",
"204 106 OFFCURVE",
"181 144 OFFCURVE",
"181 181 CURVE SMOOTH",
"181 222 OFFCURVE",
"207 265 OFFCURVE"
);
}
);
width = 545;
},
{
layerId = "DCCD84DA-95A9-4923-A49E-D7B289AC34C6";
name = Light;
paths = (
{
closed = 1;
nodes = (
"66 479 CURVE SMOOTH",
"66 378 OFFCURVE",
"144 314 OFFCURVE",
"263 314 CURVE SMOOTH",
"383 314 OFFCURVE",
"461 381 OFFCURVE",
"461 477 CURVE SMOOTH",
"461 602 OFFCURVE",
"360 660 OFFCURVE",
"263 660 CURVE SMOOTH",
"167 660 OFFCURVE",
"66 599 OFFCURVE"
);
},
{
closed = 1;
nodes = (
"263 602 CURVE SMOOTH",
"352 602 OFFCURVE",
"398 547 OFFCURVE",
"398 481 CURVE SMOOTH",
"398 399 OFFCURVE",
"341 355 OFFCURVE",
"267 355 CURVE SMOOTH",
"191 355 OFFCURVE",
"129 392 OFFCURVE",
"129 479 CURVE SMOOTH",
"129 545 OFFCURVE",
"179 602 OFFCURVE"
);
},
{
closed = 1;
nodes = (
"55 162 CURVE SMOOTH",
"55 56 OFFCURVE",
"151 -8 OFFCURVE",
"263 -8 CURVE SMOOTH",
"380 -8 OFFCURVE",
"478 58 OFFCURVE",
"478 167 CURVE SMOOTH",
"478 284 OFFCURVE",
"385 336 OFFCURVE",
"263 336 CURVE SMOOTH",
"143 336 OFFCURVE",
"55 272 OFFCURVE"
);
},
{
closed = 1;
nodes = (
"264 297 CURVE",
"373 298 OFFCURVE",
"415 237 OFFCURVE",
"415 176 CURVE SMOOTH",
"415 110 OFFCURVE",
"366 50 OFFCURVE",
"264 50 CURVE SMOOTH",
"167 50 OFFCURVE",
"118 104 OFFCURVE",
"118 166 CURVE SMOOTH",
"118 233 OFFCURVE",
"160 296 OFFCURVE"
);
}
);
width = 533;
}
);
unicode = 0038;
},
{
glyphname = nine;
lastChange = "2015-05-14 13:32:58 +0000";
layers = (
{
layerId = "9609CB55-EFEB-482C-9A6C-237B4D7F8578";
name = Bold;
paths = (
{
closed = 1;
nodes = (
"379 431 CURVE",
"385 333 LINE",
"360 265 OFFCURVE",
"313 228 OFFCURVE",
"217 228 CURVE SMOOTH",
"101 228 OFFCURVE",
"20 308 OFFCURVE",
"20 435 CURVE SMOOTH",
"20 561 OFFCURVE",
"103 663 OFFCURVE",
"248 663 CURVE SMOOTH",
"405 663 OFFCURVE",
"498 542 OFFCURVE",
"498 348 CURVE SMOOTH",
"498 98 OFFCURVE",
"365 -8 OFFCURVE",
"186 -8 CURVE SMOOTH",
"140 -8 OFFCURVE",
"94 1 OFFCURVE",
"67 11 CURVE",
"67 149 LINE",
"92 137 OFFCURVE",
"135 124 OFFCURVE",
"170 124 CURVE SMOOTH",
"297 124 OFFCURVE",
"353 192 OFFCURVE",
"353 348 CURVE SMOOTH",
"353 489 OFFCURVE",
"305 533 OFFCURVE",
"255 533 CURVE SMOOTH",
"203 533 OFFCURVE",
"169 498 OFFCURVE",
"169 438 CURVE SMOOTH",
"169 386 OFFCURVE",
"201 346 OFFCURVE",
"254 346 CURVE SMOOTH",
"318 346 OFFCURVE",
"345 376 OFFCURVE"
);
}
);
width = 533;
},
{
layerId = "DCCD84DA-95A9-4923-A49E-D7B289AC34C6";
name = Light;
paths = (
{
closed = 1;
nodes = (
"414 398 CURVE",
"414 335 LINE",
"371 264 OFFCURVE",
"323 236 OFFCURVE",
"236 236 CURVE SMOOTH",
"138 236 OFFCURVE",
"40 315 OFFCURVE",
"40 450 CURVE SMOOTH",
"40 568 OFFCURVE",
"113 662 OFFCURVE",
"239 662 CURVE SMOOTH",
"394 662 OFFCURVE",
"452 524 OFFCURVE",
"452 380 CURVE SMOOTH",
"452 156 OFFCURVE",
"374 -8 OFFCURVE",
"175 -8 CURVE SMOOTH",
"134 -8 OFFCURVE",
"100 -2 OFFCURVE",
"63 11 CURVE",
"63 73 LINE",
"100 57 OFFCURVE",
"134 50 OFFCURVE",
"175 50 CURVE SMOOTH",
"331 50 OFFCURVE",
"392 179 OFFCURVE",
"392 380 CURVE SMOOTH",
"392 486 OFFCURVE",
"361 604 OFFCURVE",
"240 604 CURVE SMOOTH",
"158 604 OFFCURVE",
"104 545 OFFCURVE",
"104 450 CURVE SMOOTH",
"104 346 OFFCURVE",
"163 293 OFFCURVE",
"251 293 CURVE SMOOTH",
"334 293 OFFCURVE",
"392 346 OFFCURVE"
);
}
);
width = 496;
}
);
unicode = 0039;
},
{
glyphname = colon;
lastChange = "2015-05-14 13:32:58 +0000";
layers = (
{
layerId = "9609CB55-EFEB-482C-9A6C-237B4D7F8578";
name = Bold;
paths = (
{
closed = 1;
nodes = (
"55 419 CURVE SMOOTH",
"55 370 OFFCURVE",
"94 331 OFFCURVE",
"143 331 CURVE SMOOTH",
"192 331 OFFCURVE",
"231 370 OFFCURVE",
"231 419 CURVE SMOOTH",
"231 468 OFFCURVE",
"192 507 OFFCURVE",
"143 507 CURVE SMOOTH",
"94 507 OFFCURVE",
"55 468 OFFCURVE"
);
},
{
closed = 1;
nodes = (
"55 88 CURVE SMOOTH",
"55 39 OFFCURVE",
"94 0 OFFCURVE",
"143 0 CURVE SMOOTH",
"192 0 OFFCURVE",
"231 39 OFFCURVE",
"231 88 CURVE SMOOTH",
"231 137 OFFCURVE",
"192 176 OFFCURVE",
"143 176 CURVE SMOOTH",
"94 176 OFFCURVE",
"55 137 OFFCURVE"
);
}
);
width = 286;
},
{
layerId = "DCCD84DA-95A9-4923-A49E-D7B289AC34C6";
name = Light;
paths = (
{
closed = 1;
nodes = (
"60 369 CURVE SMOOTH",
"60 340 OFFCURVE",
"81 319 OFFCURVE",
"110 319 CURVE SMOOTH",
"139 319 OFFCURVE",
"162 340 OFFCURVE",
"162 369 CURVE SMOOTH",
"162 397 OFFCURVE",
"139 420 OFFCURVE",
"110 420 CURVE SMOOTH",
"81 420 OFFCURVE",
"60 397 OFFCURVE"
);
},
{
closed = 1;
nodes = (
"60 49 CURVE SMOOTH",
"60 20 OFFCURVE",
"81 -1 OFFCURVE",
"110 -1 CURVE SMOOTH",
"139 -1 OFFCURVE",
"162 20 OFFCURVE",
"162 49 CURVE SMOOTH",
"162 77 OFFCURVE",
"139 100 OFFCURVE",
"110 100 CURVE SMOOTH",
"81 100 OFFCURVE",
"60 77 OFFCURVE"
);
}
);
width = 222;
}
);
unicode = 003A;
},
{
glyphname = semicolon;
lastChange = "2015-05-14 13:32:58 +0000";
layers = (
{
layerId = "9609CB55-EFEB-482C-9A6C-237B4D7F8578";
name = Bold;
paths = (
{
closed = 1;
nodes = (
"73 419 CURVE SMOOTH",
"73 370 OFFCURVE",
"112 331 OFFCURVE",
"161 331 CURVE SMOOTH",
"210 331 OFFCURVE",
"249 370 OFFCURVE",
"249 419 CURVE SMOOTH",
"249 468 OFFCURVE",
"210 507 OFFCURVE",
"161 507 CURVE SMOOTH",
"112 507 OFFCURVE",
"73 468 OFFCURVE"
);
},
{
closed = 1;
nodes = (
"-7 -127 LINE",
"119 -127 LINE",
"255 134 LINE",
"94 134 LINE"
);
}
);
width = 294;
},
{
layerId = "DCCD84DA-95A9-4923-A49E-D7B289AC34C6";
name = Light;
paths = (
{
closed = 1;
nodes = (
"69 368 CURVE SMOOTH",
"69 339 OFFCURVE",
"90 318 OFFCURVE",
"119 318 CURVE SMOOTH",
"148 318 OFFCURVE",
"171 339 OFFCURVE",
"171 368 CURVE SMOOTH",
"171 396 OFFCURVE",
"148 419 OFFCURVE",
"119 419 CURVE SMOOTH",
"90 419 OFFCURVE",
"69 396 OFFCURVE"
);
},
{
closed = 1;
nodes = (
"-8 -122 LINE",
"46 -122 LINE",
"173 92 LINE",
"83 92 LINE"
);
}
);
width = 207;
}
);
unicode = 003B;
},
{
glyphname = less;
lastChange = "2015-05-14 13:32:58 +0000";
layers = (
{
layerId = "9609CB55-EFEB-482C-9A6C-237B4D7F8578";
name = Bold;
paths = (
{
closed = 1;
nodes = (
"45 271 LINE",
"544 93 LINE",
"544 237 LINE",
"190 340 LINE",
"544 443 LINE",
"544 587 LINE",
"45 409 LINE"
);
}
);
width = 589;
},
{
layerId = "DCCD84DA-95A9-4923-A49E-D7B289AC34C6";
name = Light;
paths = (
{
closed = 1;
nodes = (
"60 311 LINE",
"460 120 LINE",
"460 185 LINE",
"127 342 LINE",
"460 497 LINE",
"460 562 LINE",
"60 371 LINE"
);
}
);
width = 510;
}
);
unicode = 003C;
},
{
glyphname = equal;
lastChange = "2015-05-14 13:32:58 +0000";
layers = (
{
layerId = "9609CB55-EFEB-482C-9A6C-237B4D7F8578";
name = Bold;
paths = (
{
closed = 1;
nodes = (
"45 394 LINE",
"544 394 LINE",
"544 514 LINE",
"45 514 LINE"
);
},
{
closed = 1;
nodes = (
"45 166 LINE",
"544 166 LINE",
"544 286 LINE",
"45 286 LINE"
);
}
);
width = 589;
},
{
layerId = "DCCD84DA-95A9-4923-A49E-D7B289AC34C6";
name = Light;
paths = (
{
closed = 1;
nodes = (
"60 410 LINE",
"484 410 LINE",
"484 465 LINE",
"60 465 LINE"
);
},
{
closed = 1;
nodes = (
"60 215 LINE",
"484 215 LINE",
"484 271 LINE",
"60 271 LINE"
);
}
);
width = 544;
}
);
unicode = 003D;
},
{
glyphname = greater;
lastChange = "2015-05-14 13:32:58 +0000";
layers = (
{
layerId = "9609CB55-EFEB-482C-9A6C-237B4D7F8578";
name = Bold;
paths = (
{
closed = 1;
nodes = (
"544 409 LINE",
"45 587 LINE",
"45 443 LINE",
"399 340 LINE",
"45 237 LINE",
"45 93 LINE",
"544 271 LINE"
);
}
);
width = 589;
},
{
layerId = "DCCD84DA-95A9-4923-A49E-D7B289AC34C6";
name = Light;
paths = (
{
closed = 1;
nodes = (
"450 371 LINE",
"50 562 LINE",
"50 497 LINE",
"383 342 LINE",
"50 185 LINE",
"50 120 LINE",
"450 311 LINE"
);
}
);
width = 510;
}
);
unicode = 003E;
},
{
glyphname = question;
lastChange = "2015-05-14 13:32:58 +0000";
layers = (
{
layerId = "9609CB55-EFEB-482C-9A6C-237B4D7F8578";
name = Bold;
paths = (
{
closed = 1;
nodes = (
"65 517 LINE",
"106 544 OFFCURVE",
"150 560 OFFCURVE",
"195 560 CURVE SMOOTH",
"253 560 OFFCURVE",
"280 527 OFFCURVE",
"280 481 CURVE SMOOTH",
"280 421 OFFCURVE",
"238 387 OFFCURVE",
"126 387 CURVE",
"129 236 LINE",
"262 236 LINE",
"265 318 LINE",
"315 319 OFFCURVE",
"428 371 OFFCURVE",
"428 499 CURVE SMOOTH",
"428 613 OFFCURVE",
"341 682 OFFCURVE",
"218 682 CURVE SMOOTH",
"156 682 OFFCURVE",
"106 673 OFFCURVE",
"65 654 CURVE"
);
},
{
closed = 1;
nodes = (
"103 83 CURVE SMOOTH",
"103 32 OFFCURVE",
"143 -8 OFFCURVE",
"194 -8 CURVE SMOOTH",
"245 -8 OFFCURVE",
"285 32 OFFCURVE",
"285 83 CURVE SMOOTH",
"285 134 OFFCURVE",
"245 174 OFFCURVE",
"194 174 CURVE SMOOTH",
"143 174 OFFCURVE",
"103 134 OFFCURVE"
);
}
);
width = 458;
},
{
layerId = "DCCD84DA-95A9-4923-A49E-D7B289AC34C6";
name = Light;
paths = (
{
closed = 1;
nodes = (
"40 573 LINE",
"98 610 OFFCURVE",
"150 624 OFFCURVE",
"202 624 CURVE SMOOTH",
"302 624 OFFCURVE",
"346 569 OFFCURVE",
"346 500 CURVE SMOOTH",
"346 407 OFFCURVE",
"264 366 OFFCURVE",
"144 366 CURVE",
"144 196 LINE",
"205 196 LINE",
"205 312 LINE",
"308 322 OFFCURVE",
"410 377 OFFCURVE",
"410 499 CURVE SMOOTH",
"410 617 OFFCURVE",
"327 682 OFFCURVE",
"201 682 CURVE SMOOTH",
"137 682 OFFCURVE",
"73 660 OFFCURVE",
"40 638 CURVE"
);
},
{
closed = 1;
nodes = (
"123 42 CURVE SMOOTH",
"123 13 OFFCURVE",
"144 -8 OFFCURVE",
"173 -8 CURVE SMOOTH",
"202 -8 OFFCURVE",
"225 13 OFFCURVE",
"225 42 CURVE SMOOTH",
"225 70 OFFCURVE",
"202 93 OFFCURVE",
"173 93 CURVE SMOOTH",
"144 93 OFFCURVE",
"123 70 OFFCURVE"
);
}
);
width = 450;
}
);
unicode = 003F;
},
{
glyphname = bracketleft;
lastChange = "2015-05-14 13:32:58 +0000";
layers = (
{
layerId = "9609CB55-EFEB-482C-9A6C-237B4D7F8578";
name = Bold;
paths = (
{
closed = 1;
nodes = (
"65 -196 LINE",
"203 -196 LINE",
"203 707 LINE",
"65 707 LINE"
);
},
{
closed = 1;
nodes = (
"65 580 LINE",
"348 580 LINE",
"348 707 LINE",
"65 707 LINE"
);
},
{
closed = 1;
nodes = (
"65 -196 LINE",
"348 -196 LINE",
"348 -68 LINE",
"65 -68 LINE"
);
}
);
width = 363;
},
{
layerId = "DCCD84DA-95A9-4923-A49E-D7B289AC34C6";
name = Light;
paths = (
{
closed = 1;
nodes = (
"80 -179 LINE",
"142 -179 LINE",
"142 707 LINE",
"80 707 LINE"
);
},
{
closed = 1;
nodes = (
"80 652 LINE",
"296 652 LINE",
"296 707 LINE",
"80 707 LINE"
);
},
{
closed = 1;
nodes = (
"80 -179 LINE",
"296 -179 LINE",
"296 -123 LINE",
"80 -123 LINE"
);
}
);
width = 296;
}
);
unicode = 005B;
},
{
glyphname = backslash;
lastChange = "2015-05-14 13:32:58 +0000";
layers = (
{
layerId = "9609CB55-EFEB-482C-9A6C-237B4D7F8578";
name = Bold;
paths = (
{
closed = 1;
nodes = (
"466 -103 LINE",
"315 -103 LINE",
"-45 707 LINE",
"107 707 LINE"
);
}
);
width = 464;
},
{
layerId = "DCCD84DA-95A9-4923-A49E-D7B289AC34C6";
name = Light;
paths = (
{
closed = 1;
nodes = (
"398 -103 LINE",
"336 -103 LINE",
"-30 707 LINE",
"32 707 LINE"
);
}
);
width = 386;
}
);
unicode = 005C;
},
{
glyphname = bracketright;
lastChange = "2015-05-14 13:32:58 +0000";
layers = (
{
layerId = "9609CB55-EFEB-482C-9A6C-237B4D7F8578";
name = Bold;
paths = (
{
closed = 1;
nodes = (
"298 -196 LINE",
"160 -196 LINE",
"160 707 LINE",
"298 707 LINE"
);
},
{
closed = 1;
nodes = (
"298 580 LINE",
"15 580 LINE",
"15 707 LINE",
"298 707 LINE"
);
},
{
closed = 1;
nodes = (
"298 -196 LINE",
"15 -196 LINE",
"15 -68 LINE",
"298 -68 LINE"
);
}
);
width = 363;
},
{
layerId = "DCCD84DA-95A9-4923-A49E-D7B289AC34C6";
name = Light;
paths = (
{
closed = 1;
nodes = (
"216 -179 LINE",
"154 -179 LINE",
"154 707 LINE",
"216 707 LINE"
);
},
{
closed = 1;
nodes = (
"216 652 LINE",
"0 652 LINE",
"0 707 LINE",
"216 707 LINE"
);
},
{
closed = 1;
nodes = (
"216 -179 LINE",
"0 -179 LINE",
"0 -123 LINE",
"216 -123 LINE"
);
}
);
width = 296;
}
);
unicode = 005D;
},
{
glyphname = asciicircum;
lastChange = "2015-05-14 13:32:58 +0000";
layers = (
{
layerId = "9609CB55-EFEB-482C-9A6C-237B4D7F8578";
name = Bold;
paths = (
{
closed = 1;
nodes = (
"33 332 LINE",
"168 332 LINE",
"307 594 LINE",
"184 594 LINE"
);
},
{
closed = 1;
nodes = (
"307 594 LINE",
"184 594 LINE",
"323 332 LINE",
"458 332 LINE"
);
}
);
width = 491;
},
{
layerId = "DCCD84DA-95A9-4923-A49E-D7B289AC34C6";
name = Light;
paths = (
{
closed = 1;
nodes = (
"48 332 LINE",
"112 332 LINE",
"247 594 LINE",
"188 594 LINE"
);
},
{
closed = 1;
nodes = (
"270 594 LINE",
"210 594 LINE",
"341 332 LINE",
"405 332 LINE"
);
}
);
width = 453;
}
);
unicode = 005E;
},
{
glyphname = underscore;
lastChange = "2015-05-14 13:32:58 +0000";
layers = (
{
layerId = "9609CB55-EFEB-482C-9A6C-237B4D7F8578";
name = Bold;
paths = (
{
closed = 1;
nodes = (
"20 -166 LINE",
"526 -166 LINE",
"526 -45 LINE",
"20 -45 LINE"
);
}
);
width = 546;
},
{
layerId = "DCCD84DA-95A9-4923-A49E-D7B289AC34C6";
name = Light;
paths = (
{
closed = 1;
nodes = (
"30 -82 LINE",
"535 -82 LINE",
"535 -27 LINE",
"30 -27 LINE"
);
}
);
width = 565;
}
);
unicode = 005F;
},
{
glyphname = braceleft;
lastChange = "2015-05-14 13:32:58 +0000";
layers = (
{
layerId = "9609CB55-EFEB-482C-9A6C-237B4D7F8578";
name = Bold;
paths = (
{
closed = 1;
nodes = (
"169 255 CURVE",
"229 263 OFFCURVE",
"285 322 OFFCURVE",
"285 407 CURVE SMOOTH",
"285 451 OFFCURVE",
"273 494 OFFCURVE",
"273 522 CURVE SMOOTH",
"273 555 OFFCURVE",
"297 577 OFFCURVE",
"324 577 CURVE SMOOTH",
"334 577 OFFCURVE",
"345 574 OFFCURVE",
"355 568 CURVE",
"355 703 LINE",
"332 711 OFFCURVE",
"310 715 OFFCURVE",
"289 715 CURVE SMOOTH",
"196 715 OFFCURVE",
"130 639 OFFCURVE",
"130 535 CURVE SMOOTH",
"130 493 OFFCURVE",
"142 455 OFFCURVE",
"142 421 CURVE SMOOTH",
"142 374 OFFCURVE",
"112 325 OFFCURVE",
"57 325 CURVE SMOOTH",
"47 325 OFFCURVE",
"40 325 OFFCURVE",
"40 325 CURVE",
"40 184 LINE",
"40 184 OFFCURVE",
"47 185 OFFCURVE",
"57 185 CURVE SMOOTH",
"112 185 OFFCURVE",
"142 135 OFFCURVE",
"142 88 CURVE SMOOTH",
"142 54 OFFCURVE",
"130 16 OFFCURVE",
"130 -26 CURVE SMOOTH",
"130 -130 OFFCURVE",
"196 -206 OFFCURVE",
"289 -206 CURVE SMOOTH",
"310 -206 OFFCURVE",
"332 -202 OFFCURVE",
"355 -194 CURVE",
"355 -59 LINE",
"345 -65 OFFCURVE",
"334 -68 OFFCURVE",
"324 -68 CURVE SMOOTH",
"297 -68 OFFCURVE",
"273 -46 OFFCURVE",
"273 -13 CURVE SMOOTH",
"273 15 OFFCURVE",
"285 58 OFFCURVE",
"285 102 CURVE SMOOTH",
"285 187 OFFCURVE",
"229 247 OFFCURVE"
);
}
);
width = 380;
},
{
layerId = "DCCD84DA-95A9-4923-A49E-D7B289AC34C6";
name = Light;
paths = (
{
closed = 1;
nodes = (
"112 264 CURVE",
"198 278 OFFCURVE",
"235 336 OFFCURVE",
"235 404 CURVE SMOOTH",
"235 466 OFFCURVE",
"212 512 OFFCURVE",
"212 573 CURVE SMOOTH",
"212 615 OFFCURVE",
"231 652 OFFCURVE",
"278 652 CURVE SMOOTH",
"288 652 OFFCURVE",
"301 649 OFFCURVE",
"312 643 CURVE",
"312 705 LINE",
"298 710 OFFCURVE",
"284 712 OFFCURVE",
"270 712 CURVE SMOOTH",
"206 712 OFFCURVE",
"148 661 OFFCURVE",
"148 571 CURVE SMOOTH",
"148 516 OFFCURVE",
"171 469 OFFCURVE",
"171 420 CURVE SMOOTH",
"171 359 OFFCURVE",
"143 308 OFFCURVE",
"82 297 CURVE SMOOTH",
"71 295 OFFCURVE",
"59 295 OFFCURVE",
"50 295 CURVE",
"50 234 LINE",
"59 234 OFFCURVE",
"74 234 OFFCURVE",
"82 232 CURVE SMOOTH",
"147 216 OFFCURVE",
"171 168 OFFCURVE",
"171 107 CURVE SMOOTH",
"171 58 OFFCURVE",
"148 11 OFFCURVE",
"148 -44 CURVE SMOOTH",
"148 -134 OFFCURVE",
"206 -185 OFFCURVE",
"270 -185 CURVE SMOOTH",
"284 -185 OFFCURVE",
"298 -183 OFFCURVE",
"312 -178 CURVE",
"312 -116 LINE",
"301 -122 OFFCURVE",
"288 -125 OFFCURVE",
"278 -125 CURVE SMOOTH",
"231 -125 OFFCURVE",
"212 -88 OFFCURVE",
"212 -46 CURVE SMOOTH",
"212 15 OFFCURVE",
"235 61 OFFCURVE",
"235 123 CURVE SMOOTH",
"235 191 OFFCURVE",
"198 250 OFFCURVE"
);
}
);
width = 322;
}
);
unicode = 007B;
},
{
glyphname = bar;
lastChange = "2015-05-14 13:32:58 +0000";
layers = (
{
layerId = "9609CB55-EFEB-482C-9A6C-237B4D7F8578";
name = Bold;
paths = (
{
closed = 1;
nodes = (
"70 -194 LINE",
"210 -194 LINE",
"210 695 LINE",
"70 695 LINE"
);
}
);
width = 280;
},
{
layerId = "DCCD84DA-95A9-4923-A49E-D7B289AC34C6";
name = Light;
paths = (
{
closed = 1;
nodes = (
"80 -194 LINE",
"134 -194 LINE",
"134 695 LINE",
"80 695 LINE"
);
}
);
width = 214;
}
);
unicode = 007C;
},
{
glyphname = braceright;
lastChange = "2015-05-14 13:32:58 +0000";
layers = (
{
layerId = "9609CB55-EFEB-482C-9A6C-237B4D7F8578";
name = Bold;
paths = (
{
closed = 1;
nodes = (
"211 255 CURVE",
"151 247 OFFCURVE",
"95 187 OFFCURVE",
"95 102 CURVE SMOOTH",
"95 58 OFFCURVE",
"107 15 OFFCURVE",
"107 -13 CURVE SMOOTH",
"107 -46 OFFCURVE",
"83 -68 OFFCURVE",
"56 -68 CURVE SMOOTH",
"46 -68 OFFCURVE",
"35 -65 OFFCURVE",
"25 -59 CURVE",
"25 -194 LINE",
"48 -202 OFFCURVE",
"70 -206 OFFCURVE",
"91 -206 CURVE SMOOTH",
"184 -206 OFFCURVE",
"250 -130 OFFCURVE",
"250 -26 CURVE SMOOTH",
"250 16 OFFCURVE",
"238 54 OFFCURVE",
"238 88 CURVE SMOOTH",
"238 135 OFFCURVE",
"268 185 OFFCURVE",
"323 185 CURVE SMOOTH",
"333 185 OFFCURVE",
"340 184 OFFCURVE",
"340 184 CURVE",
"340 325 LINE",
"340 325 OFFCURVE",
"333 325 OFFCURVE",
"323 325 CURVE SMOOTH",
"268 325 OFFCURVE",
"238 374 OFFCURVE",
"238 421 CURVE SMOOTH",
"238 455 OFFCURVE",
"250 493 OFFCURVE",
"250 535 CURVE SMOOTH",
"250 639 OFFCURVE",
"184 715 OFFCURVE",
"91 715 CURVE SMOOTH",
"70 715 OFFCURVE",
"48 711 OFFCURVE",
"25 703 CURVE",
"25 568 LINE",
"35 574 OFFCURVE",
"46 577 OFFCURVE",
"56 577 CURVE SMOOTH",
"83 577 OFFCURVE",
"107 555 OFFCURVE",
"107 522 CURVE SMOOTH",
"107 494 OFFCURVE",
"95 451 OFFCURVE",
"95 407 CURVE SMOOTH",
"95 322 OFFCURVE",
"151 263 OFFCURVE"
);
}
);
width = 380;
},
{
layerId = "DCCD84DA-95A9-4923-A49E-D7B289AC34C6";
name = Light;
paths = (
{
closed = 1;
nodes = (
"210 264 CURVE",
"124 250 OFFCURVE",
"87 191 OFFCURVE",
"87 123 CURVE SMOOTH",
"87 61 OFFCURVE",
"110 15 OFFCURVE",
"110 -46 CURVE SMOOTH",
"110 -88 OFFCURVE",
"91 -125 OFFCURVE",
"44 -125 CURVE SMOOTH",
"34 -125 OFFCURVE",
"21 -122 OFFCURVE",
"10 -116 CURVE",
"10 -178 LINE",
"24 -183 OFFCURVE",
"38 -185 OFFCURVE",
"52 -185 CURVE SMOOTH",
"116 -185 OFFCURVE",
"174 -134 OFFCURVE",
"174 -44 CURVE SMOOTH",
"174 11 OFFCURVE",
"151 58 OFFCURVE",
"151 107 CURVE SMOOTH",
"151 168 OFFCURVE",
"175 216 OFFCURVE",
"240 232 CURVE SMOOTH",
"248 234 OFFCURVE",
"263 234 OFFCURVE",
"272 234 CURVE",
"272 295 LINE",
"263 295 OFFCURVE",
"251 295 OFFCURVE",
"240 297 CURVE SMOOTH",
"179 308 OFFCURVE",
"151 359 OFFCURVE",
"151 420 CURVE SMOOTH",
"151 469 OFFCURVE",
"174 516 OFFCURVE",
"174 571 CURVE SMOOTH",
"174 661 OFFCURVE",
"116 712 OFFCURVE",
"52 712 CURVE SMOOTH",
"38 712 OFFCURVE",
"24 710 OFFCURVE",
"10 705 CURVE",
"10 643 LINE",
"21 649 OFFCURVE",
"34 652 OFFCURVE",
"44 652 CURVE SMOOTH",
"91 652 OFFCURVE",
"110 615 OFFCURVE",
"110 573 CURVE SMOOTH",
"110 512 OFFCURVE",
"87 466 OFFCURVE",
"87 404 CURVE SMOOTH",
"87 336 OFFCURVE",
"124 278 OFFCURVE"
);
}
);
width = 322;
}
);
unicode = 007D;
},
{
glyphname = asciitilde;
lastChange = "2015-05-14 13:32:58 +0000";
layers = (
{
layerId = "9609CB55-EFEB-482C-9A6C-237B4D7F8578";
name = Bold;
paths = (
{
closed = 1;
nodes = (
"524 379 LINE",
"494 344 OFFCURVE",
"469 320 OFFCURVE",
"421 320 CURVE",
"359 320 OFFCURVE",
"318 369 OFFCURVE",
"200 369 CURVE SMOOTH",
"124 369 OFFCURVE",
"61 307 OFFCURVE",
"28 260 CURVE",
"129 180 LINE",
"159 215 OFFCURVE",
"184 238 OFFCURVE",
"232 238 CURVE SMOOTH",
"308 238 OFFCURVE",
"345 189 OFFCURVE",
"452 189 CURVE SMOOTH",
"536 189 OFFCURVE",
"592 251 OFFCURVE",
"625 298 CURVE"
);
}
);
width = 654;
},
{
layerId = "DCCD84DA-95A9-4923-A49E-D7B289AC34C6";
name = Light;
paths = (
{
closed = 1;
nodes = (
"499 312 LINE",
"480 276 OFFCURVE",
"449 252 OFFCURVE",
"411 252 CURVE SMOOTH",
"338 252 OFFCURVE",
"285 332 OFFCURVE",
"190 332 CURVE SMOOTH",
"136 332 OFFCURVE",
"84 305 OFFCURVE",
"38 241 CURVE",
"78 204 LINE",
"114 257 OFFCURVE",
"155 276 OFFCURVE",
"197 276 CURVE SMOOTH",
"255 276 OFFCURVE",
"328 195 OFFCURVE",
"411 195 CURVE SMOOTH",
"472 195 OFFCURVE",
"511 224 OFFCURVE",
"546 280 CURVE"
);
}
);
width = 585;
}
);
unicode = 007E;
},
{
glyphname = cent;
lastChange = "2015-05-14 13:32:58 +0000";
layers = (
{
layerId = "9609CB55-EFEB-482C-9A6C-237B4D7F8578";
name = Bold;
paths = (
{
closed = 1;
nodes = (
"178 252 CURVE",
"179 347 OFFCURVE",
"242 394 OFFCURVE",
"320 394 CURVE SMOOTH",
"360 394 OFFCURVE",
"403 383 OFFCURVE",
"438 361 CURVE",
"438 483 LINE",
"392 507 OFFCURVE",
"345 515 OFFCURVE",
"305 515 CURVE SMOOTH",
"133 515 OFFCURVE",
"32 398 OFFCURVE",
"30 252 CURVE",
"30 98 OFFCURVE",
"145 -8 OFFCURVE",
"296 -8 CURVE SMOOTH",
"348 -8 OFFCURVE",
"399 3 OFFCURVE",
"438 24 CURVE",
"438 146 LINE",
"400 123 OFFCURVE",
"357 111 OFFCURVE",
"317 111 CURVE SMOOTH",
"238 111 OFFCURVE",
"183 163 OFFCURVE"
);
},
{
closed = 1;
nodes = (
"359 421 LINE",
"359 620 LINE",
"237 620 LINE",
"237 421 LINE"
);
},
{
closed = 1;
nodes = (
"238 99 LINE",
"238 -111 LINE",
"359 -111 LINE",
"359 99 LINE"
);
}
);
width = 478;
},
{
layerId = "DCCD84DA-95A9-4923-A49E-D7B289AC34C6";
name = Light;
paths = (
{
closed = 1;
nodes = (
"114 251 CURVE SMOOTH",
"114 358 OFFCURVE",
"188 453 OFFCURVE",
"317 453 CURVE SMOOTH",
"345 453 OFFCURVE",
"377 445 OFFCURVE",
"405 430 CURVE",
"405 492 LINE",
"371 507 OFFCURVE",
"340 512 OFFCURVE",
"311 512 CURVE SMOOTH",
"142 512 OFFCURVE",
"50 384 OFFCURVE",
"50 252 CURVE SMOOTH",
"50 116 OFFCURVE",
"139 -8 OFFCURVE",
"311 -8 CURVE SMOOTH",
"340 -8 OFFCURVE",
"372 -3 OFFCURVE",
"405 11 CURVE",
"405 73 LINE",
"380 59 OFFCURVE",
"346 51 OFFCURVE",
"318 51 CURVE SMOOTH",
"180 51 OFFCURVE",
"114 145 OFFCURVE"
);
},
{
closed = 1;
nodes = (
"327 470 LINE",
"327 614 LINE",
"272 614 LINE",
"272 470 LINE"
);
},
{
closed = 1;
nodes = (
"272 32 LINE",
"272 -111 LINE",
"327 -111 LINE",
"327 32 LINE"
);
}
);
width = 445;
}
);
unicode = 00A2;
},
{
glyphname = sterling;
lastChange = "2015-05-14 13:32:58 +0000";
layers = (
{
layerId = "9609CB55-EFEB-482C-9A6C-237B4D7F8578";
name = Bold;
paths = (
{
closed = 1;
nodes = (
"45 121 LINE",
"103 151 OFFCURVE",
"118 199 OFFCURVE",
"118 251 CURVE SMOOTH",
"118 307 OFFCURVE",
"101 368 OFFCURVE",
"101 420 CURVE SMOOTH",
"101 567 OFFCURVE",
"176 660 OFFCURVE",
"335 660 CURVE SMOOTH",
"394 660 OFFCURVE",
"441 647 OFFCURVE",
"472 628 CURVE",
"472 490 LINE",
"444 510 OFFCURVE",
"405 523 OFFCURVE",
"368 523 CURVE SMOOTH",
"298 523 OFFCURVE",
"263 490 OFFCURVE",
"263 414 CURVE SMOOTH",
"263 361 OFFCURVE",
"276 301 OFFCURVE",
"276 250 CURVE SMOOTH",
"276 200 OFFCURVE",
"264 154 OFFCURVE",
"215 123 CURVE",
"507 123 LINE",
"507 0 LINE",
"45 0 LINE"
);
},
{
closed = 1;
nodes = (
"44 373 LINE",
"431 373 LINE",
"431 267 LINE",
"44 267 LINE"
);
}
);
width = 540;
},
{
layerId = "DCCD84DA-95A9-4923-A49E-D7B289AC34C6";
name = Light;
paths = (
{
closed = 1;
nodes = (
"65 52 LINE",
"148 90 OFFCURVE",
"171 136 OFFCURVE",
"171 249 CURVE",
"171 312 OFFCURVE",
"154 398 OFFCURVE",
"154 457 CURVE",
"154 589 OFFCURVE",
"229 659 OFFCURVE",
"350 659 CURVE SMOOTH",
"384 659 OFFCURVE",
"421 650 OFFCURVE",
"451 635 CURVE",
"451 573 LINE",
"415 593 OFFCURVE",
"389 600 OFFCURVE",
"351 600 CURVE SMOOTH",
"264 600 OFFCURVE",
"214 558 OFFCURVE",
"214 463 CURVE",
"214 396 OFFCURVE",
"231 315 OFFCURVE",
"231 250 CURVE",
"231 121 OFFCURVE",
"188 80 OFFCURVE",
"147 55 CURVE",
"477 55 LINE",
"477 0 LINE",
"65 0 LINE"
);
},
{
closed = 1;
nodes = (
"72 350 LINE",
"407 350 LINE",
"407 299 LINE",
"72 299 LINE"
);
}
);
width = 517;
}
);
unicode = 00A3;
},
{
glyphname = yen;
lastChange = "2015-05-14 13:32:58 +0000";
layers = (
{
layerId = "9609CB55-EFEB-482C-9A6C-237B4D7F8578";
name = Bold;
paths = (
{
closed = 1;
nodes = (
"283 271 LINE",
"66 271 LINE",
"66 361 LINE",
"283 361 LINE"
);
},
{
closed = 1;
nodes = (
"66 207 LINE",
"568 207 LINE",
"568 117 LINE",
"66 117 LINE"
);
},
{
closed = 1;
nodes = (
"254 226 LINE",
"9 655 LINE",
"189 655 LINE",
"315 409 LINE",
"447 655 LINE",
"626 655 LINE",
"378 226 LINE"
);
},
{
closed = 1;
nodes = (
"239 253 LINE",
"393 253 LINE",
"393 0 LINE",
"239 0 LINE"
);
},
{
closed = 1;
nodes = (
"568 271 LINE",
"347 271 LINE",
"347 361 LINE",
"568 361 LINE"
);
}
);
width = 635;
},
{
layerId = "DCCD84DA-95A9-4923-A49E-D7B289AC34C6";
name = Light;
paths = (
{
closed = 1;
nodes = (
"252 312 LINE",
"73 312 LINE",
"73 362 LINE",
"252 362 LINE"
);
},
{
closed = 1;
nodes = (
"73 217 LINE",
"493 217 LINE",
"493 167 LINE",
"73 167 LINE"
);
},
{
closed = 1;
nodes = (
"252 252 LINE",
"40 654 LINE",
"108 654 LINE",
"283 311 LINE",
"460 654 LINE",
"528 654 LINE",
"314 252 LINE"
);
},
{
closed = 1;
nodes = (
"252 272 LINE",
"314 272 LINE",
"314 0 LINE",
"252 0 LINE"
);
},
{
closed = 1;
nodes = (
"493 312 LINE",
"314 312 LINE",
"314 362 LINE",
"493 362 LINE"
);
}
);
width = 572;
}
);
unicode = 00A5;
},
{
glyphname = copyright;
lastChange = "2015-05-14 13:32:58 +0000";
layers = (
{
layerId = "9609CB55-EFEB-482C-9A6C-237B4D7F8578";
name = Bold;
paths = (
{
closed = 1;
nodes = (
"35 338 CURVE SMOOTH",
"35 147 OFFCURVE",
"190 -8 OFFCURVE",
"381 -8 CURVE SMOOTH",
"571 -8 OFFCURVE",
"726 147 OFFCURVE",
"726 338 CURVE SMOOTH",
"726 528 OFFCURVE",
"571 683 OFFCURVE",
"381 683 CURVE SMOOTH",
"190 683 OFFCURVE",
"35 528 OFFCURVE"
);
},
{
closed = 1;
nodes = (
"132 337 CURVE SMOOTH",
"132 480 OFFCURVE",
"237 585 OFFCURVE",
"381 585 CURVE SMOOTH",
"524 585 OFFCURVE",
"629 480 OFFCURVE",
"629 337 CURVE SMOOTH",
"629 192 OFFCURVE",
"524 88 OFFCURVE",
"381 88 CURVE SMOOTH",
"237 88 OFFCURVE",
"132 192 OFFCURVE"
);
},
{
closed = 1;
nodes = (
"334 337 CURVE",
"335 390 OFFCURVE",
"375 412 OFFCURVE",
"407 412 CURVE SMOOTH",
"435 412 OFFCURVE",
"463 405 OFFCURVE",
"487 390 CURVE",
"487 484 LINE",
"455 501 OFFCURVE",
"424 506 OFFCURVE",
"397 506 CURVE SMOOTH",
"289 506 OFFCURVE",
"222 436 OFFCURVE",
"221 337 CURVE",
"221 234 OFFCURVE",
"303 171 OFFCURVE",
"391 171 CURVE SMOOTH",
"426 171 OFFCURVE",
"461 178 OFFCURVE",
"487 192 CURVE",
"487 287 LINE",
"461 271 OFFCURVE",
"432 263 OFFCURVE",
"405 263 CURVE SMOOTH",
"369 263 OFFCURVE",
"337 289 OFFCURVE"
);
}
);
width = 761;
},
{
layerId = "DCCD84DA-95A9-4923-A49E-D7B289AC34C6";
name = Light;
paths = (
{
closed = 1;
nodes = (
"45 336 CURVE SMOOTH",
"45 148 OFFCURVE",
"202 -9 OFFCURVE",
"390 -9 CURVE SMOOTH",
"578 -9 OFFCURVE",
"735 148 OFFCURVE",
"735 336 CURVE SMOOTH",
"735 524 OFFCURVE",
"578 682 OFFCURVE",
"390 682 CURVE SMOOTH",
"202 682 OFFCURVE",
"45 524 OFFCURVE"
);
},
{
closed = 1;
nodes = (
"104 336 CURVE SMOOTH",
"104 493 OFFCURVE",
"234 624 OFFCURVE",
"391 624 CURVE SMOOTH",
"548 624 OFFCURVE",
"678 493 OFFCURVE",
"678 336 CURVE SMOOTH",
"678 179 OFFCURVE",
"548 49 OFFCURVE",
"391 49 CURVE SMOOTH",
"234 49 OFFCURVE",
"104 179 OFFCURVE"
);
},
{
closed = 1;
nodes = (
"282 333 CURVE SMOOTH",
"282 415 OFFCURVE",
"336 475 OFFCURVE",
"420 475 CURVE SMOOTH",
"441 475 OFFCURVE",
"475 467 OFFCURVE",
"497 452 CURVE",
"497 509 LINE",
"471 524 OFFCURVE",
"437 529 OFFCURVE",
"416 529 CURVE SMOOTH",
"291 529 OFFCURVE",
"224 431 OFFCURVE",
"224 334 CURVE SMOOTH",
"224 234 OFFCURVE",
"290 140 OFFCURVE",
"416 140 CURVE SMOOTH",
"443 140 OFFCURVE",
"479 149 OFFCURVE",
"497 162 CURVE",
"497 219 LINE",
"481 205 OFFCURVE",
"449 194 OFFCURVE",
"420 194 CURVE SMOOTH",
"335 194 OFFCURVE",
"282 256 OFFCURVE"
);
}
);
width = 780;
}
);
unicode = 00A9;
},
{
glyphname = guillemotleft;
lastChange = "2015-05-14 13:32:58 +0000";
layers = (
{
layerId = "9609CB55-EFEB-482C-9A6C-237B4D7F8578";
name = Bold;
paths = (
{
closed = 1;
nodes = (
"26 253 LINE",
"178 415 LINE",
"330 415 LINE",
"184 253 LINE"
);
},
{
closed = 1;
nodes = (
"184 253 LINE",
"330 91 LINE",
"178 91 LINE",
"26 253 LINE"
);
},
{
closed = 1;
nodes = (
"246 253 LINE",
"398 415 LINE",
"550 415 LINE",
"404 253 LINE"
);
},
{
closed = 1;
nodes = (
"404 253 LINE",
"550 91 LINE",
"398 91 LINE",
"246 253 LINE"
);
}
);
width = 592;
},
{
layerId = "DCCD84DA-95A9-4923-A49E-D7B289AC34C6";
name = Light;
paths = (
{
closed = 1;
nodes = (
"27 253 LINE",
"177 415 LINE",
"247 415 LINE",
"100 253 LINE"
);
},
{
closed = 1;
nodes = (
"100 253 LINE",
"247 91 LINE",
"177 91 LINE",
"27 253 LINE"
);
},
{
closed = 1;
nodes = (
"204 253 LINE",
"354 415 LINE",
"424 415 LINE",
"277 253 LINE"
);
},
{
closed = 1;
nodes = (
"277 253 LINE",
"424 91 LINE",
"354 91 LINE",
"204 253 LINE"
);
}
);
width = 450;
}
);
unicode = 00AB;
},
{
glyphname = registered;
lastChange = "2015-05-14 13:32:58 +0000";
layers = (
{
layerId = "9609CB55-EFEB-482C-9A6C-237B4D7F8578";
name = Bold;
paths = (
{
closed = 1;
nodes = (
"220 561 LINE",
"291 440 LINE",
"357 440 LINE",
"281 561 LINE"
);
},
{
closed = 1;
nodes = (
"278 602 CURVE SMOOTH",
"278 586 OFFCURVE",
"269 571 OFFCURVE",
"250 571 CURVE",
"174 571 LINE",
"174 526 LINE",
"247 526 LINE",
"305 526 OFFCURVE",
"335 555 OFFCURVE",
"335 602 CURVE SMOOTH",
"335 648 OFFCURVE",
"308 677 OFFCURVE",
"244 677 CURVE",
"174 677 LINE",
"174 632 LINE",
"246 632 LINE",
"267 632 OFFCURVE",
"278 624 OFFCURVE"
);
},
{
closed = 1;
nodes = (
"174 440 LINE",
"228 440 LINE",
"228 677 LINE",
"174 677 LINE"
);
},
{
closed = 1;
nodes = (
"10 551 CURVE SMOOTH",
"10 414 OFFCURVE",
"109 317 OFFCURVE",
"246 317 CURVE SMOOTH",
"382 317 OFFCURVE",
"482 414 OFFCURVE",
"482 551 CURVE SMOOTH",
"482 688 OFFCURVE",
"382 786 OFFCURVE",
"246 786 CURVE SMOOTH",
"109 786 OFFCURVE",
"10 688 OFFCURVE"
);
},
{
closed = 1;
nodes = (
"72 551 CURVE SMOOTH",
"72 656 OFFCURVE",
"140 728 OFFCURVE",
"247 728 CURVE SMOOTH",
"353 728 OFFCURVE",
"421 656 OFFCURVE",
"421 551 CURVE SMOOTH",
"421 446 OFFCURVE",
"353 376 OFFCURVE",
"247 376 CURVE SMOOTH",
"140 376 OFFCURVE",
"72 446 OFFCURVE"
);
}
);
width = 492;
},
{
layerId = "DCCD84DA-95A9-4923-A49E-D7B289AC34C6";
name = Light;
paths = (
{
closed = 1;
nodes = (
"201 584 LINE",
"262 482 LINE",
"310 482 LINE",
"246 584 LINE"
);
},
{
closed = 1;
nodes = (
"252 624 CURVE SMOOTH",
"252 603 OFFCURVE",
"243 591 OFFCURVE",
"222 591 CURVE SMOOTH",
"155 591 LINE",
"155 558 LINE",
"217 558 LINE SMOOTH",
"267 558 OFFCURVE",
"293 584 OFFCURVE",
"293 624 CURVE SMOOTH",
"293 665 OFFCURVE",
"269 690 OFFCURVE",
"214 690 CURVE SMOOTH",
"155 690 LINE",
"155 656 LINE",
"219 656 LINE SMOOTH",
"240 656 OFFCURVE",
"252 648 OFFCURVE"
);
},
{
closed = 1;
nodes = (
"155 482 LINE",
"196 482 LINE",
"196 690 LINE",
"155 690 LINE"
);
},
{
closed = 1;
nodes = (
"10 579 CURVE SMOOTH",
"10 458 OFFCURVE",
"98 371 OFFCURVE",
"219 371 CURVE SMOOTH",
"340 371 OFFCURVE",
"428 458 OFFCURVE",
"428 579 CURVE SMOOTH",
"428 700 OFFCURVE",
"340 788 OFFCURVE",
"219 788 CURVE SMOOTH",
"98 788 OFFCURVE",
"10 700 OFFCURVE"
);
},
{
closed = 1;
nodes = (
"55 579 CURVE SMOOTH",
"55 677 OFFCURVE",
"120 745 OFFCURVE",
"220 745 CURVE SMOOTH",
"319 745 OFFCURVE",
"385 677 OFFCURVE",
"385 579 CURVE SMOOTH",
"385 481 OFFCURVE",
"319 414 OFFCURVE",
"220 414 CURVE SMOOTH",
"120 414 OFFCURVE",
"55 481 OFFCURVE"
);
}
);
width = 438;
}
);
unicode = 00AE;
},
{
glyphname = plusminus;
lastChange = "2015-05-14 13:32:58 +0000";
layers = (
{
layerId = "9609CB55-EFEB-482C-9A6C-237B4D7F8578";
name = Bold;
paths = (
{
closed = 1;
nodes = (
"227 186 LINE",
"361 186 LINE",
"361 585 LINE",
"227 585 LINE"
);
},
{
closed = 1;
nodes = (
"45 326 LINE",
"544 326 LINE",
"544 446 LINE",
"45 446 LINE"
);
},
{
closed = 1;
nodes = (
"45 28 LINE",
"544 28 LINE",
"544 148 LINE",
"45 148 LINE"
);
}
);
width = 589;
},
{
layerId = "DCCD84DA-95A9-4923-A49E-D7B289AC34C6";
name = Light;
paths = (
{
closed = 1;
nodes = (
"239 155 LINE",
"296 155 LINE",
"296 565 LINE",
"239 565 LINE"
);
},
{
closed = 1;
nodes = (
"60 332 LINE",
"484 332 LINE",
"484 388 LINE",
"60 388 LINE"
);
},
{
closed = 1;
nodes = (
"60 31 LINE",
"484 31 LINE",
"484 87 LINE",
"60 87 LINE"
);
}
);
width = 544;
}
);
unicode = 00B1;
},
{
glyphname = guillemotright;
lastChange = "2015-05-14 13:32:58 +0000";
layers = (
{
layerId = "9609CB55-EFEB-482C-9A6C-237B4D7F8578";
name = Bold;
paths = (
{
closed = 1;
nodes = (
"565 253 LINE",
"413 415 LINE",
"261 415 LINE",
"407 253 LINE"
);
},
{
closed = 1;
nodes = (
"407 253 LINE",
"261 91 LINE",
"413 91 LINE",
"565 253 LINE"
);
},
{
closed = 1;
nodes = (
"345 253 LINE",
"193 415 LINE",
"41 415 LINE",
"187 253 LINE"
);
},
{
closed = 1;
nodes = (
"187 253 LINE",
"41 91 LINE",
"193 91 LINE",
"345 253 LINE"
);
}
);
width = 591;
},
{
layerId = "DCCD84DA-95A9-4923-A49E-D7B289AC34C6";
name = Light;
paths = (
{
closed = 1;
nodes = (
"423 253 LINE",
"273 415 LINE",
"203 415 LINE",
"350 253 LINE"
);
},
{
closed = 1;
nodes = (
"350 253 LINE",
"203 91 LINE",
"273 91 LINE",
"423 253 LINE"
);
},
{
closed = 1;
nodes = (
"246 253 LINE",
"96 415 LINE",
"26 415 LINE",
"173 253 LINE"
);
},
{
closed = 1;
nodes = (
"173 253 LINE",
"26 91 LINE",
"96 91 LINE",
"246 253 LINE"
);
}
);
width = 453;
}
);
unicode = 00BB;
},
{
glyphname = multiply;
lastChange = "2015-05-14 13:32:58 +0000";
layers = (
{
layerId = "9609CB55-EFEB-482C-9A6C-237B4D7F8578";
name = Bold;
paths = (
{
closed = 1;
nodes = (
"395 117 LINE",
"487 209 LINE",
"134 561 LINE",
"42 469 LINE"
);
},
{
closed = 1;
nodes = (
"138 119 LINE",
"485 466 LINE",
"390 560 LINE",
"43 213 LINE"
);
}
);
width = 530;
},
{
layerId = "DCCD84DA-95A9-4923-A49E-D7B289AC34C6";
name = Light;
paths = (
{
closed = 1;
nodes = (
"372 170 LINE",
"412 210 LINE",
"103 516 LINE",
"63 476 LINE"
);
},
{
closed = 1;
nodes = (
"108 170 LINE",
"417 477 LINE",
"377 517 LINE",
"68 210 LINE"
);
}
);
width = 481;
}
);
unicode = 00D7;
},
{
glyphname = divide;
lastChange = "2015-05-14 13:32:58 +0000";
layers = (
{
layerId = "9609CB55-EFEB-482C-9A6C-237B4D7F8578";
name = Bold;
paths = (
{
closed = 1;
nodes = (
"214 516 CURVE SMOOTH",
"214 475 OFFCURVE",
"249 440 OFFCURVE",
"290 440 CURVE SMOOTH",
"331 440 OFFCURVE",
"366 475 OFFCURVE",
"366 516 CURVE SMOOTH",
"366 557 OFFCURVE",
"331 592 OFFCURVE",
"290 592 CURVE SMOOTH",
"249 592 OFFCURVE",
"214 557 OFFCURVE"
);
},
{
closed = 1;
nodes = (
"45 275 LINE",
"544 275 LINE",
"544 405 LINE",
"45 405 LINE"
);
},
{
closed = 1;
nodes = (
"214 164 CURVE SMOOTH",
"214 123 OFFCURVE",
"249 88 OFFCURVE",
"290 88 CURVE SMOOTH",
"331 88 OFFCURVE",
"366 123 OFFCURVE",
"366 164 CURVE SMOOTH",
"366 205 OFFCURVE",
"331 240 OFFCURVE",
"290 240 CURVE SMOOTH",
"249 240 OFFCURVE",
"214 205 OFFCURVE"
);
}
);
width = 589;
},
{
layerId = "DCCD84DA-95A9-4923-A49E-D7B289AC34C6";
name = Light;
paths = (
{
closed = 1;
nodes = (
"226 519 CURVE SMOOTH",
"226 494 OFFCURVE",
"247 473 OFFCURVE",
"272 473 CURVE SMOOTH",
"297 473 OFFCURVE",
"318 494 OFFCURVE",
"318 519 CURVE SMOOTH",
"318 544 OFFCURVE",
"297 565 OFFCURVE",
"272 565 CURVE SMOOTH",
"247 565 OFFCURVE",
"226 544 OFFCURVE"
);
},
{
closed = 1;
nodes = (
"60 312 LINE",
"484 312 LINE",
"484 368 LINE",
"60 368 LINE"
);
},
{
closed = 1;
nodes = (
"226 161 CURVE SMOOTH",
"226 136 OFFCURVE",
"247 115 OFFCURVE",
"272 115 CURVE SMOOTH",
"297 115 OFFCURVE",
"318 136 OFFCURVE",
"318 161 CURVE SMOOTH",
"318 186 OFFCURVE",
"297 207 OFFCURVE",
"272 207 CURVE SMOOTH",
"247 207 OFFCURVE",
"226 186 OFFCURVE"
);
}
);
width = 544;
}
);
unicode = 00F7;
},
{
glyphname = endash;
lastChange = "2015-05-14 13:32:58 +0000";
layers = (
{
layerId = "9609CB55-EFEB-482C-9A6C-237B4D7F8578";
name = Bold;
paths = (
{
closed = 1;
nodes = (
"45 215 LINE",
"510 215 LINE",
"510 322 LINE",
"45 322 LINE"
);
}
);
width = 555;
},
{
layerId = "DCCD84DA-95A9-4923-A49E-D7B289AC34C6";
name = Light;
paths = (
{
closed = 1;
nodes = (
"60 243 LINE",
"476 243 LINE",
"476 298 LINE",
"60 298 LINE"
);
}
);
width = 536;
}
);
unicode = 2013;
},
{
glyphname = emdash;
lastChange = "2015-05-14 13:32:58 +0000";
layers = (
{
layerId = "9609CB55-EFEB-482C-9A6C-237B4D7F8578";
name = Bold;
paths = (
{
closed = 1;
nodes = (
"45 218 LINE",
"791 218 LINE",
"791 325 LINE",
"45 325 LINE"
);
}
);
width = 836;
},
{
layerId = "DCCD84DA-95A9-4923-A49E-D7B289AC34C6";
name = Light;
paths = (
{
closed = 1;
nodes = (
"60 245 LINE",
"759 245 LINE",
"759 300 LINE",
"60 300 LINE"
);
}
);
width = 819;
}
);
unicode = 2014;
},
{
glyphname = quoteleft;
lastChange = "2015-05-14 13:32:58 +0000";
layers = (
{
layerId = "9609CB55-EFEB-482C-9A6C-237B4D7F8578";
name = Bold;
paths = (
{
closed = 1;
nodes = (
"289 694 LINE",
"163 694 LINE",
"27 433 LINE",
"188 433 LINE"
);
}
);
width = 267;
},
{
layerId = "DCCD84DA-95A9-4923-A49E-D7B289AC34C6";
name = Light;
paths = (
{
closed = 1;
nodes = (
"167 695 LINE",
"122 695 LINE",
"7 481 LINE",
"88 481 LINE"
);
}
);
width = 157;
}
);
unicode = 2018;
},
{
glyphname = quoteright;
lastChange = "2015-05-14 13:32:58 +0000";
layers = (
{
layerId = "9609CB55-EFEB-482C-9A6C-237B4D7F8578";
name = Bold;
paths = (
{
closed = 1;
nodes = (
"28 433 LINE",
"154 433 LINE",
"290 694 LINE",
"129 694 LINE"
);
}
);
width = 267;
},
{
layerId = "DCCD84DA-95A9-4923-A49E-D7B289AC34C6";
name = Light;
paths = (
{
closed = 1;
nodes = (
"8 481 LINE",
"53 481 LINE",
"168 695 LINE",
"87 695 LINE"
);
}
);
width = 158;
}
);
unicode = 2019;
},
{
glyphname = quotedblleft;
lastChange = "2015-05-14 13:32:58 +0000";
layers = (
{
layerId = "9609CB55-EFEB-482C-9A6C-237B4D7F8578";
name = Bold;
paths = (
{
closed = 1;
nodes = (
"289 694 LINE",
"168 694 LINE",
"27 433 LINE",
"185 433 LINE"
);
},
{
closed = 1;
nodes = (
"474 694 LINE",
"353 694 LINE",
"232 433 LINE",
"378 433 LINE"
);
}
);
width = 452;
},
{
layerId = "DCCD84DA-95A9-4923-A49E-D7B289AC34C6";
name = Light;
paths = (
{
closed = 1;
nodes = (
"168 695 LINE",
"123 695 LINE",
"8 481 LINE",
"89 481 LINE"
);
},
{
closed = 1;
nodes = (
"300 695 LINE",
"255 695 LINE",
"140 481 LINE",
"221 481 LINE"
);
}
);
width = 290;
}
);
unicode = 201C;
},
{
glyphname = quotedblright;
lastChange = "2015-05-14 13:32:58 +0000";
layers = (
{
layerId = "9609CB55-EFEB-482C-9A6C-237B4D7F8578";
name = Bold;
paths = (
{
closed = 1;
nodes = (
"213 433 LINE",
"334 433 LINE",
"475 694 LINE",
"317 694 LINE"
);
},
{
closed = 1;
nodes = (
"28 433 LINE",
"149 433 LINE",
"270 694 LINE",
"124 694 LINE"
);
}
);
width = 452;
},
{
layerId = "DCCD84DA-95A9-4923-A49E-D7B289AC34C6";
name = Light;
paths = (
{
closed = 1;
nodes = (
"140 481 LINE",
"185 481 LINE",
"300 695 LINE",
"219 695 LINE"
);
},
{
closed = 1;
nodes = (
"8 481 LINE",
"53 481 LINE",
"168 695 LINE",
"87 695 LINE"
);
}
);
width = 289;
}
);
unicode = 201D;
},
{
glyphname = bullet;
lastChange = "2015-05-14 13:32:58 +0000";
layers = (
{
layerId = "9609CB55-EFEB-482C-9A6C-237B4D7F8578";
name = Bold;
paths = (
{
closed = 1;
nodes = (
"80 356 CURVE",
"80 281 OFFCURVE",
"136 223 OFFCURVE",
"213 223 CURVE",
"287 223 OFFCURVE",
"345 281 OFFCURVE",
"345 356 CURVE",
"345 431 OFFCURVE",
"287 489 OFFCURVE",
"212 489 CURVE",
"136 489 OFFCURVE",
"80 431 OFFCURVE"
);
}
);
width = 425;
},
{
layerId = "DCCD84DA-95A9-4923-A49E-D7B289AC34C6";
name = Light;
paths = (
{
closed = 1;
nodes = (
"95 356 CURVE",
"95 281 OFFCURVE",
"151 223 OFFCURVE",
"228 223 CURVE",
"302 223 OFFCURVE",
"360 281 OFFCURVE",
"360 356 CURVE",
"360 431 OFFCURVE",
"302 489 OFFCURVE",
"227 489 CURVE",
"151 489 OFFCURVE",
"95 431 OFFCURVE"
);
}
);
width = 455;
}
);
unicode = 2022;
},
{
glyphname = guilsinglleft;
lastChange = "2015-05-14 13:32:58 +0000";
layers = (
{
layerId = "9609CB55-EFEB-482C-9A6C-237B4D7F8578";
name = Bold;
paths = (
{
closed = 1;
nodes = (
"26 253 LINE",
"178 415 LINE",
"330 415 LINE",
"184 253 LINE"
);
},
{
closed = 1;
nodes = (
"184 253 LINE",
"330 91 LINE",
"178 91 LINE",
"26 253 LINE"
);
}
);
width = 371;
},
{
layerId = "DCCD84DA-95A9-4923-A49E-D7B289AC34C6";
name = Light;
paths = (
{
closed = 1;
nodes = (
"30 253 LINE",
"180 415 LINE",
"250 415 LINE",
"103 253 LINE"
);
},
{
closed = 1;
nodes = (
"103 253 LINE",
"250 91 LINE",
"180 91 LINE",
"30 253 LINE"
);
}
);
width = 280;
}
);
unicode = 2039;
},
{
glyphname = guilsinglright;
lastChange = "2015-05-14 13:32:58 +0000";
layers = (
{
layerId = "9609CB55-EFEB-482C-9A6C-237B4D7F8578";
name = Bold;
paths = (
{
closed = 1;
nodes = (
"345 253 LINE",
"193 415 LINE",
"41 415 LINE",
"187 253 LINE"
);
},
{
closed = 1;
nodes = (
"187 253 LINE",
"41 91 LINE",
"193 91 LINE",
"345 253 LINE"
);
}
);
width = 371;
},
{
layerId = "DCCD84DA-95A9-4923-A49E-D7B289AC34C6";
name = Light;
paths = (
{
closed = 1;
nodes = (
"250 253 LINE",
"100 415 LINE",
"30 415 LINE",
"177 253 LINE"
);
},
{
closed = 1;
nodes = (
"177 253 LINE",
"30 91 LINE",
"100 91 LINE",
"250 253 LINE"
);
}
);
width = 277;
}
);
unicode = 203A;
},
{
glyphname = Euro;
lastChange = "2015-05-14 13:32:58 +0000";
layers = (
{
layerId = "9609CB55-EFEB-482C-9A6C-237B4D7F8578";
name = Bold;
paths = (
{
closed = 1;
nodes = (
"269 319 CURVE SMOOTH",
"269 198 OFFCURVE",
"337 126 OFFCURVE",
"440 126 CURVE SMOOTH",
"507 126 OFFCURVE",
"550 149 OFFCURVE",
"582 175 CURVE",
"582 27 LINE",
"549 9 OFFCURVE",
"514 -8 OFFCURVE",
"426 -8 CURVE SMOOTH",
"238 -8 OFFCURVE",
"115 132 OFFCURVE",
"115 320 CURVE SMOOTH",
"115 544 OFFCURVE",
"258 663 OFFCURVE",
"421 663 CURVE SMOOTH",
"501 663 OFFCURVE",
"542 649 OFFCURVE",
"582 625 CURVE",
"582 478 LINE",
"550 504 OFFCURVE",
"510 526 OFFCURVE",
"445 526 CURVE SMOOTH",
"337 526 OFFCURVE",
"269 444 OFFCURVE"
);
},
{
closed = 1;
nodes = (
"40 445 LINE",
"477 445 LINE",
"477 355 LINE",
"40 355 LINE"
);
},
{
closed = 1;
nodes = (
"40 291 LINE",
"477 291 LINE",
"477 201 LINE",
"40 201 LINE"
);
}
);
width = 622;
},
{
layerId = "DCCD84DA-95A9-4923-A49E-D7B289AC34C6";
name = Light;
paths = (
{
closed = 1;
nodes = (
"213 325 CURVE SMOOTH",
"213 148 OFFCURVE",
"313 51 OFFCURVE",
"433 51 CURVE SMOOTH",
"470 51 OFFCURVE",
"511 55 OFFCURVE",
"542 72 CURVE",
"542 13 LINE",
"507 -5 OFFCURVE",
"467 -8 OFFCURVE",
"425 -8 CURVE SMOOTH",
"271 -8 OFFCURVE",
"149 120 OFFCURVE",
"149 325 CURVE SMOOTH",
"149 532 OFFCURVE",
"269 659 OFFCURVE",
"432 659 CURVE SMOOTH",
"469 659 OFFCURVE",
"512 655 OFFCURVE",
"542 640 CURVE",
"542 581 LINE",
"513 596 OFFCURVE",
"475 600 OFFCURVE",
"438 600 CURVE SMOOTH",
"306 600 OFFCURVE",
"213 504 OFFCURVE"
);
},
{
closed = 1;
nodes = (
"55 434 LINE",
"430 434 LINE",
"430 385 LINE",
"55 385 LINE"
);
},
{
closed = 1;
nodes = (
"55 275 LINE",
"430 275 LINE",
"430 226 LINE",
"55 226 LINE"
);
}
);
width = 582;
}
);
unicode = 20AC;
},
{
glyphname = trademark;
lastChange = "2015-05-14 13:32:58 +0000";
layers = (
{
layerId = "9609CB55-EFEB-482C-9A6C-237B4D7F8578";
name = Bold;
paths = (
{
closed = 1;
nodes = (
"305 331 LINE",
"396 331 LINE",
"405 442 LINE SMOOTH",
"411 510 OFFCURVE",
"402 570 OFFCURVE",
"402 570 CURVE SMOOTH",
"402 570 OFFCURVE",
"414 508 OFFCURVE",
"438 442 CURVE SMOOTH",
"477 335 LINE",
"555 335 LINE",
"595 442 LINE SMOOTH",
"623 514 OFFCURVE",
"633 570 OFFCURVE",
"633 570 CURVE",
"633 570 OFFCURVE",
"627 514 OFFCURVE",
"633 443 CURVE",
"643 331 LINE",
"734 331 LINE",
"699 674 LINE",
"600 674 LINE",
"564 581 LINE SMOOTH",
"524 475 OFFCURVE",
"515 442 OFFCURVE",
"515 442 CURVE",
"515 442 OFFCURVE",
"510 476 OFFCURVE",
"469 581 CURVE SMOOTH",
"433 674 LINE",
"334 674 LINE"
);
},
{
closed = 1;
nodes = (
"10 592 LINE",
"94 592 LINE",
"94 331 LINE",
"188 331 LINE",
"188 592 LINE",
"271 592 LINE",
"271 674 LINE",
"10 674 LINE"
);
}
);
width = 753;
},
{
layerId = "DCCD84DA-95A9-4923-A49E-D7B289AC34C6";
name = Light;
paths = (
{
closed = 1;
nodes = (
"255 331 LINE",
"308 331 LINE",
"317 498 LINE SMOOTH",
"322 584 OFFCURVE",
"325 611 OFFCURVE",
"325 611 CURVE SMOOTH",
"325 611 OFFCURVE",
"332 590 OFFCURVE",
"364 498 CURVE SMOOTH",
"420 339 LINE",
"477 339 LINE",
"537 498 LINE SMOOTH",
"569 585 OFFCURVE",
"578 611 OFFCURVE",
"578 611 CURVE SMOOTH",
"578 611 OFFCURVE",
"578 577 OFFCURVE",
"583 498 CURVE SMOOTH",
"594 331 LINE",
"646 331 LINE",
"623 674 LINE",
"549 674 LINE",
"482 494 LINE SMOOTH",
"464 445 OFFCURVE",
"448 396 OFFCURVE",
"448 396 CURVE",
"448 396 OFFCURVE",
"435 442 OFFCURVE",
"417 494 CURVE SMOOTH",
"354 674 LINE",
"282 674 LINE"
);
},
{
closed = 1;
nodes = (
"0 628 LINE",
"88 628 LINE",
"88 330 LINE",
"139 330 LINE",
"139 628 LINE",
"224 628 LINE",
"224 674 LINE",
"0 674 LINE"
);
}
);
width = 678;
}
);
unicode = 2122;
},
{
glyphname = minus;
lastChange = "2015-05-14 13:32:58 +0000";
layers = (
{
layerId = "9609CB55-EFEB-482C-9A6C-237B4D7F8578";
name = Bold;
paths = (
{
closed = 1;
nodes = (
"45 275 LINE",
"544 275 LINE",
"544 404 LINE",
"45 404 LINE"
);
}
);
width = 589;
},
{
layerId = "DCCD84DA-95A9-4923-A49E-D7B289AC34C6";
name = Light;
paths = (
{
closed = 1;
nodes = (
"60 312 LINE",
"484 312 LINE",
"484 368 LINE",
"60 368 LINE"
);
}
);
width = 544;
}
);
unicode = 2212;
},
{
glyphname = ITF;
lastChange = "2015-05-15 08:49:02 +0000";
layers = (
{
layerId = "DCCD84DA-95A9-4923-A49E-D7B289AC34C6";
name = Light;
paths = (
{
closed = 1;
nodes = (
"80 0 LINE",
"287 0 LINE",
"287 671 LINE",
"80 671 LINE"
);
},
{
closed = 1;
nodes = (
"330 475 LINE",
"537 475 LINE",
"537 671 LINE",
"330 671 LINE"
);
},
{
closed = 1;
nodes = (
"580 0 LINE",
"787 0 LINE",
"787 671 LINE",
"580 671 LINE"
);
},
{
closed = 1;
nodes = (
"829 475 LINE",
"1037 475 LINE",
"1037 671 LINE",
"829 671 LINE"
);
},
{
closed = 1;
nodes = (
"1079 0 LINE",
"1287 0 LINE",
"1287 671 LINE",
"1079 671 LINE"
);
},
{
closed = 1;
nodes = (
"1329 475 LINE",
"1536 475 LINE",
"1536 671 LINE",
"1329 671 LINE"
);
},
{
closed = 1;
nodes = (
"1329 237 LINE",
"1536 237 LINE",
"1536 433 LINE",
"1329 433 LINE"
);
}
);
width = 1616;
},
{
layerId = "9609CB55-EFEB-482C-9A6C-237B4D7F8578";
name = Bold;
paths = (
{
closed = 1;
nodes = (
"90 0 LINE",
"306 0 LINE",
"306 700 LINE",
"90 700 LINE"
);
},
{
closed = 1;
nodes = (
"351 496 LINE",
"567 496 LINE",
"567 700 LINE",
"351 700 LINE"
);
},
{
closed = 1;
nodes = (
"611 0 LINE",
"828 0 LINE",
"828 700 LINE",
"611 700 LINE"
);
},
{
closed = 1;
nodes = (
"872 496 LINE",
"1088 496 LINE",
"1088 700 LINE",
"872 700 LINE"
);
},
{
closed = 1;
nodes = (
"1132 0 LINE",
"1349 0 LINE",
"1349 700 LINE",
"1132 700 LINE"
);
},
{
closed = 1;
nodes = (
"1393 496 LINE",
"1609 496 LINE",
"1609 700 LINE",
"1393 700 LINE"
);
},
{
closed = 1;
nodes = (
"1393 247 LINE",
"1609 247 LINE",
"1609 452 LINE",
"1393 452 LINE"
);
}
);
width = 1699;
}
);
leftMetricsKey = H;
rightMetricsKey = H;
},
{
glyphname = at;
lastChange = "2015-05-14 13:32:58 +0000";
layers = (
{
layerId = "9609CB55-EFEB-482C-9A6C-237B4D7F8578";
name = Bold;
paths = (
{
closed = 1;
nodes = (
"589 442 CURVE",
"705 442 LINE",
"704 422 LINE SMOOTH",
"696 302 OFFCURVE",
"692 247 OFFCURVE",
"692 221 CURVE SMOOTH",
"692 137 OFFCURVE",
"715 113 OFFCURVE",
"743 113 CURVE SMOOTH",
"789 113 OFFCURVE",
"822 170 OFFCURVE",
"822 267 CURVE SMOOTH",
"822 466 OFFCURVE",
"682 553 OFFCURVE",
"514 553 CURVE SMOOTH",
"301 553 OFFCURVE",
"168 378 OFFCURVE",
"168 196 CURVE SMOOTH",
"168 9 OFFCURVE",
"305 -98 OFFCURVE",
"467 -98 CURVE SMOOTH",
"528 -98 OFFCURVE",
"603 -83 OFFCURVE",
"668 -52 CURVE",
"664 -175 LINE",
"599 -204 OFFCURVE",
"526 -216 OFFCURVE",
"468 -216 CURVE SMOOTH",
"190 -216 OFFCURVE",
"40 -21 OFFCURVE",
"40 200 CURVE SMOOTH",
"40 464 OFFCURVE",
"258 671 OFFCURVE",
"519 671 CURVE SMOOTH",
"741 671 OFFCURVE",
"942 523 OFFCURVE",
"942 277 CURVE SMOOTH",
"942 117 OFFCURVE",
"849 0 OFFCURVE",
"739 0 CURVE SMOOTH",
"618 0 OFFCURVE",
"576 94 OFFCURVE",
"576 177 CURVE SMOOTH",
"576 267 OFFCURVE",
"584 355 OFFCURVE"
);
},
{
closed = 1;
nodes = (
"613 267 CURVE",
"578 238 LINE",
"571 308 OFFCURVE",
"530 340 OFFCURVE",
"488 340 CURVE SMOOTH",
"436 340 OFFCURVE",
"387 295 OFFCURVE",
"387 207 CURVE SMOOTH",
"387 143 OFFCURVE",
"430 105 OFFCURVE",
"476 105 CURVE SMOOTH",
"518 105 OFFCURVE",
"564 138 OFFCURVE",
"577 208 CURVE",
"602 172 LINE",
"587 57 OFFCURVE",
"517 1 OFFCURVE",
"434 1 CURVE SMOOTH",
"322 1 OFFCURVE",
"259 99 OFFCURVE",
"259 213 CURVE SMOOTH",
"259 357 OFFCURVE",
"358 444 OFFCURVE",
"464 444 CURVE SMOOTH",
"541 444 OFFCURVE",
"601 390 OFFCURVE"
);
}
);
width = 977;
},
{
layerId = "DCCD84DA-95A9-4923-A49E-D7B289AC34C6";
name = Light;
paths = (
{
closed = 1;
nodes = (
"567 401 CURVE",
"620 401 LINE",
"602 232 LINE SMOOTH",
"600 213 OFFCURVE",
"599 194 OFFCURVE",
"599 177 CURVE SMOOTH",
"599 119 OFFCURVE",
"614 77 OFFCURVE",
"670 77 CURVE SMOOTH",
"730 77 OFFCURVE",
"779 151 OFFCURVE",
"779 257 CURVE SMOOTH",
"779 442 OFFCURVE",
"648 544 OFFCURVE",
"482 544 CURVE SMOOTH",
"301 544 OFFCURVE",
"127 404 OFFCURVE",
"127 196 CURVE SMOOTH",
"127 -7 OFFCURVE",
"263 -100 OFFCURVE",
"402 -100 CURVE SMOOTH",
"461 -100 OFFCURVE",
"518 -91 OFFCURVE",
"574 -58 CURVE",
"570 -123 LINE",
"521 -149 OFFCURVE",
"451 -155 OFFCURVE",
"400 -155 CURVE SMOOTH",
"192 -155 OFFCURVE",
"65 -8 OFFCURVE",
"65 195 CURVE SMOOTH",
"65 431 OFFCURVE",
"254 597 OFFCURVE",
"484 597 CURVE SMOOTH",
"677 597 OFFCURVE",
"836 469 OFFCURVE",
"836 260 CURVE SMOOTH",
"836 95 OFFCURVE",
"742 26 OFFCURVE",
"666 26 CURVE SMOOTH",
"553 26 OFFCURVE",
"551 131 OFFCURVE",
"551 162 CURVE SMOOTH",
"551 213 OFFCURVE",
"560 273 OFFCURVE"
);
},
{
closed = 1;
nodes = (
"592 274 CURVE",
"558 219 LINE",
"552 299 OFFCURVE",
"525 352 OFFCURVE",
"443 352 CURVE SMOOTH",
"366 352 OFFCURVE",
"317 277 OFFCURVE",
"317 195 CURVE SMOOTH",
"317 124 OFFCURVE",
"356 77 OFFCURVE",
"416 77 CURVE SMOOTH",
"475 77 OFFCURVE",
"537 123 OFFCURVE",
"557 206 CURVE",
"579 145 LINE",
"547 74 OFFCURVE",
"491 23 OFFCURVE",
"411 23 CURVE SMOOTH",
"313 23 OFFCURVE",
"256 100 OFFCURVE",
"256 199 CURVE SMOOTH",
"256 312 OFFCURVE",
"335 407 OFFCURVE",
"446 407 CURVE SMOOTH",
"533 407 OFFCURVE",
"573 352 OFFCURVE"
);
}
);
width = 886;
}
);
unicode = 0040;
},
{
glyphname = ampersand;
lastChange = "2015-05-14 13:32:58 +0000";
layers = (
{
layerId = "9609CB55-EFEB-482C-9A6C-237B4D7F8578";
name = Bold;
paths = (
{
closed = 1;
nodes = (
"737 0 LINE",
"388 345 LINE SMOOTH",
"340 393 OFFCURVE",
"272 448 OFFCURVE",
"272 504 CURVE SMOOTH",
"272 548 OFFCURVE",
"303 569 OFFCURVE",
"339 569 CURVE SMOOTH",
"386 569 OFFCURVE",
"416 542 OFFCURVE",
"416 492 CURVE SMOOTH",
"416 461 OFFCURVE",
"401 419 OFFCURVE",
"324 382 CURVE",
"414 309 LINE",
"522 361 OFFCURVE",
"563 422 OFFCURVE",
"563 500 CURVE SMOOTH",
"563 619 OFFCURVE",
"478 688 OFFCURVE",
"339 688 CURVE SMOOTH",
"221 688 OFFCURVE",
"124 626 OFFCURVE",
"124 502 CURVE SMOOTH",
"124 389 OFFCURVE",
"242 309 OFFCURVE",
"298 254 CURVE SMOOTH",
"558 0 LINE"
);
},
{
closed = 1;
nodes = (
"222 362 LINE",
"94 330 OFFCURVE",
"50 269 OFFCURVE",
"50 184 CURVE SMOOTH",
"50 82 OFFCURVE",
"152 -8 OFFCURVE",
"335 -8 CURVE SMOOTH",
"532 -8 OFFCURVE",
"668 126 OFFCURVE",
"668 301 CURVE",
"537 301 LINE",
"537 168 OFFCURVE",
"429 112 OFFCURVE",
"336 112 CURVE SMOOTH",
"257 112 OFFCURVE",
"199 144 OFFCURVE",
"199 189 CURVE SMOOTH",
"199 229 OFFCURVE",
"219 261 OFFCURVE",
"321 285 CURVE"
);
}
);
width = 742;
},
{
layerId = "DCCD84DA-95A9-4923-A49E-D7B289AC34C6";
name = Light;
paths = (
{
closed = 1;
nodes = (
"692 0 LINE",
"309 351 LINE",
"215 445 OFFCURVE",
"199 480 OFFCURVE",
"199 527 CURVE SMOOTH",
"199 594 OFFCURVE",
"248 631 OFFCURVE",
"312 631 CURVE SMOOTH",
"393 631 OFFCURVE",
"430 578 OFFCURVE",
"430 523 CURVE SMOOTH",
"430 457 OFFCURVE",
"381 416 OFFCURVE",
"282 372 CURVE",
"325 331 LINE",
"452 386 OFFCURVE",
"494 448 OFFCURVE",
"494 522 CURVE SMOOTH",
"494 613 OFFCURVE",
"422 691 OFFCURVE",
"314 691 CURVE SMOOTH",
"202 691 OFFCURVE",
"134 622 OFFCURVE",
"134 528 CURVE SMOOTH",
"134 463 OFFCURVE",
"165 412 OFFCURVE",
"258 319 CURVE",
"604 0 LINE"
);
},
{
closed = 1;
nodes = (
"239 352 LINE",
"134 310 OFFCURVE",
"69 259 OFFCURVE",
"69 174 CURVE SMOOTH",
"69 66 OFFCURVE",
"169 -8 OFFCURVE",
"312 -8 CURVE SMOOTH",
"499 -8 OFFCURVE",
"594 110 OFFCURVE",
"610 259 CURVE",
"549 259 LINE",
"536 125 OFFCURVE",
"442 52 OFFCURVE",
"309 52 CURVE SMOOTH",
"208 52 OFFCURVE",
"133 98 OFFCURVE",
"133 174 CURVE SMOOTH",
"133 241 OFFCURVE",
"195 276 OFFCURVE",
"285 312 CURVE"
);
}
);
width = 693;
}
);
unicode = 0026;
},
{
glyphname = A;
lastChange = "2015-05-14 13:32:58 +0000";
layers = (
{
layerId = "9609CB55-EFEB-482C-9A6C-237B4D7F8578";
name = Bold;
paths = (
{
closed = 1;
nodes = (
"23 0 LINE",
"184 0 LINE",
"269 286 LINE SMOOTH",
"335 507 OFFCURVE",
"343 562 OFFCURVE",
"343 562 CURVE",
"343 562 OFFCURVE",
"351 507 OFFCURVE",
"417 286 CURVE SMOOTH",
"502 0 LINE",
"667 0 LINE",
"442 674 LINE",
"248 674 LINE"
);
},
{
closed = 1;
nodes = (
"199 138 LINE",
"514 138 LINE",
"514 262 LINE",
"199 262 LINE"
);
}
);
width = 690;
},
{
layerId = "DCCD84DA-95A9-4923-A49E-D7B289AC34C6";
name = Light;
paths = (
{
closed = 1;
nodes = (
"38 0 LINE",
"105 0 LINE",
"204 284 LINE SMOOTH",
"308 583 OFFCURVE",
"321 622 OFFCURVE",
"321 622 CURVE",
"321 622 OFFCURVE",
"333 583 OFFCURVE",
"435 285 CURVE SMOOTH",
"532 0 LINE",
"599 0 LINE",
"366 674 LINE",
"276 674 LINE"
);
},
{
closed = 1;
nodes = (
"135 187 LINE",
"496 187 LINE",
"496 242 LINE",
"135 242 LINE"
);
}
);
width = 637;
}
);
unicode = 0041;
},
{
glyphname = B;
lastChange = "2015-05-14 13:32:58 +0000";
layers = (
{
layerId = "9609CB55-EFEB-482C-9A6C-237B4D7F8578";
name = Bold;
paths = (
{
closed = 1;
nodes = (
"554 488 CURVE SMOOTH",
"554 589 OFFCURVE",
"483 674 OFFCURVE",
"327 674 CURVE",
"65 674 LINE",
"65 551 LINE",
"301 551 LINE",
"368 551 OFFCURVE",
"397 525 OFFCURVE",
"397 480 CURVE SMOOTH",
"397 435 OFFCURVE",
"359 400 OFFCURVE",
"276 400 CURVE",
"65 400 LINE",
"65 279 LINE",
"301 279 LINE",
"387 279 OFFCURVE",
"414 243 OFFCURVE",
"414 201 CURVE SMOOTH",
"414 151 OFFCURVE",
"378 123 OFFCURVE",
"300 123 CURVE",
"65 123 LINE",
"65 0 LINE",
"356 0 LINE",
"491 0 OFFCURVE",
"570 79 OFFCURVE",
"570 183 CURVE SMOOTH",
"570 277 OFFCURVE",
"514 323 OFFCURVE",
"453 341 CURVE",
"512 360 OFFCURVE",
"554 417 OFFCURVE"
);
},
{
closed = 1;
nodes = (
"65 0 LINE",
"219 0 LINE",
"219 674 LINE",
"65 674 LINE"
);
}
);
width = 605;
},
{
layerId = "DCCD84DA-95A9-4923-A49E-D7B289AC34C6";
name = Light;
paths = (
{
closed = 1;
nodes = (
"497 499 CURVE SMOOTH",
"497 610 OFFCURVE",
"401 674 OFFCURVE",
"268 674 CURVE SMOOTH",
"80 674 LINE",
"80 619 LINE",
"275 619 LINE SMOOTH",
"385 619 OFFCURVE",
"432 563 OFFCURVE",
"432 501 CURVE SMOOTH",
"432 430 OFFCURVE",
"387 368 OFFCURVE",
"263 368 CURVE SMOOTH",
"80 368 LINE",
"80 313 LINE",
"295 313 LINE SMOOTH",
"393 313 OFFCURVE",
"452 266 OFFCURVE",
"452 181 CURVE SMOOTH",
"452 98 OFFCURVE",
"400 55 OFFCURVE",
"314 55 CURVE",
"80 55 LINE",
"80 0 LINE",
"314 0 LINE SMOOTH",
"449 0 OFFCURVE",
"517 75 OFFCURVE",
"517 179 CURVE SMOOTH",
"517 283 OFFCURVE",
"446 335 OFFCURVE",
"377 343 CURVE",
"446 357 OFFCURVE",
"497 418 OFFCURVE"
);
},
{
closed = 1;
nodes = (
"80 0 LINE",
"142 0 LINE",
"142 674 LINE",
"80 674 LINE"
);
}
);
width = 562;
}
);
unicode = 0042;
},
{
glyphname = C;
lastChange = "2015-05-14 13:32:58 +0000";
layers = (
{
layerId = "9609CB55-EFEB-482C-9A6C-237B4D7F8578";
name = Bold;
paths = (
{
closed = 1;
nodes = (
"205 335 CURVE SMOOTH",
"205 208 OFFCURVE",
"288 133 OFFCURVE",
"402 133 CURVE SMOOTH",
"455 133 OFFCURVE",
"518 149 OFFCURVE",
"563 181 CURVE",
"563 30 LINE",
"508 -4 OFFCURVE",
"435 -8 OFFCURVE",
"387 -8 CURVE SMOOTH",
"193 -8 OFFCURVE",
"40 129 OFFCURVE",
"40 335 CURVE SMOOTH",
"40 540 OFFCURVE",
"180 683 OFFCURVE",
"388 683 CURVE SMOOTH",
"436 683 OFFCURVE",
"508 679 OFFCURVE",
"563 645 CURVE",
"563 497 LINE",
"503 534 OFFCURVE",
"456 543 OFFCURVE",
"396 543 CURVE SMOOTH",
"292 543 OFFCURVE",
"205 466 OFFCURVE"
);
}
);
width = 613;
},
{
layerId = "DCCD84DA-95A9-4923-A49E-D7B289AC34C6";
name = Light;
paths = (
{
closed = 1;
nodes = (
"114 341 CURVE SMOOTH",
"114 164 OFFCURVE",
"226 51 OFFCURVE",
"394 51 CURVE SMOOTH",
"460 51 OFFCURVE",
"521 73 OFFCURVE",
"559 103 CURVE",
"559 35 LINE",
"519 7 OFFCURVE",
"455 -8 OFFCURVE",
"391 -8 CURVE SMOOTH",
"190 -8 OFFCURVE",
"50 120 OFFCURVE",
"50 341 CURVE SMOOTH",
"50 547 OFFCURVE",
"200 683 OFFCURVE",
"387 683 CURVE SMOOTH",
"459 683 OFFCURVE",
"510 671 OFFCURVE",
"557 647 CURVE",
"557 582 LINE",
"507 608 OFFCURVE",
"473 624 OFFCURVE",
"385 624 CURVE SMOOTH",
"233 624 OFFCURVE",
"114 512 OFFCURVE"
);
}
);
width = 599;
}
);
unicode = 0043;
},
{
glyphname = D;
lastChange = "2015-05-14 13:32:58 +0000";
layers = (
{
layerId = "9609CB55-EFEB-482C-9A6C-237B4D7F8578";
name = Bold;
paths = (
{
closed = 1;
nodes = (
"65 0 LINE",
"223 0 LINE",
"223 674 LINE",
"65 674 LINE"
);
},
{
closed = 1;
nodes = (
"295 0 LINE",
"502 0 OFFCURVE",
"643 130 OFFCURVE",
"643 348 CURVE SMOOTH",
"643 530 OFFCURVE",
"503 674 OFFCURVE",
"297 674 CURVE SMOOTH",
"65 674 LINE",
"65 547 LINE",
"292 547 LINE",
"419 547 OFFCURVE",
"487 464 OFFCURVE",
"487 348 CURVE SMOOTH",
"487 207 OFFCURVE",
"418 126 OFFCURVE",
"293 126 CURVE SMOOTH",
"65 126 LINE",
"65 0 LINE"
);
}
);
width = 683;
},
{
layerId = "DCCD84DA-95A9-4923-A49E-D7B289AC34C6";
name = Light;
paths = (
{
closed = 1;
nodes = (
"80 0 LINE",
"142 0 LINE",
"142 674 LINE",
"80 674 LINE"
);
},
{
closed = 1;
nodes = (
"277 0 LINE",
"503 0 OFFCURVE",
"610 166 OFFCURVE",
"610 341 CURVE SMOOTH",
"610 541 OFFCURVE",
"468 674 OFFCURVE",
"272 674 CURVE",
"80 674 LINE",
"80 617 LINE",
"272 617 LINE",
"436 617 OFFCURVE",
"545 491 OFFCURVE",
"545 341 CURVE SMOOTH",
"545 198 OFFCURVE",
"467 57 OFFCURVE",
"277 57 CURVE",
"80 57 LINE",
"80 0 LINE"
);
}
);
width = 655;
}
);
unicode = 0044;
},
{
glyphname = E;
lastChange = "2015-05-14 13:32:58 +0000";
layers = (
{
layerId = "9609CB55-EFEB-482C-9A6C-237B4D7F8578";
name = Bold;
paths = (
{
closed = 1;
nodes = (
"123 0 LINE",
"484 0 LINE",
"484 123 LINE",
"123 123 LINE"
);
},
{
closed = 1;
nodes = (
"65 0 LINE",
"220 0 LINE",
"220 674 LINE",
"65 674 LINE"
);
},
{
closed = 1;
nodes = (
"123 276 LINE",
"452 276 LINE",
"452 398 LINE",
"123 398 LINE"
);
},
{
closed = 1;
nodes = (
"123 551 LINE",
"480 551 LINE",
"480 674 LINE",
"123 674 LINE"
);
}
);
width = 544;
},
{
layerId = "DCCD84DA-95A9-4923-A49E-D7B289AC34C6";
name = Light;
paths = (
{
closed = 1;
nodes = (
"88 0 LINE",
"445 0 LINE",
"445 57 LINE",
"88 57 LINE"
);
},
{
closed = 1;
nodes = (
"80 0 LINE",
"142 0 LINE",
"142 674 LINE",
"80 674 LINE"
);
},
{
closed = 1;
nodes = (
"88 308 LINE",
"404 308 LINE",
"404 365 LINE",
"88 365 LINE"
);
},
{
closed = 1;
nodes = (
"88 617 LINE",
"439 617 LINE",
"439 674 LINE",
"88 674 LINE"
);
}
);
width = 490;
}
);
unicode = 0045;
},
{
glyphname = F;
lastChange = "2015-05-14 13:32:58 +0000";
layers = (
{
layerId = "9609CB55-EFEB-482C-9A6C-237B4D7F8578";
name = Bold;
paths = (
{
closed = 1;
nodes = (
"65 0 LINE",
"220 0 LINE",
"220 674 LINE",
"65 674 LINE"
);
},
{
closed = 1;
nodes = (
"123 254 LINE",
"443 254 LINE",
"443 377 LINE",
"123 377 LINE"
);
},
{
closed = 1;
nodes = (
"123 551 LINE",
"476 551 LINE",
"476 674 LINE",
"123 674 LINE"
);
}
);
width = 506;
},
{
layerId = "DCCD84DA-95A9-4923-A49E-D7B289AC34C6";
name = Light;
paths = (
{
closed = 1;
nodes = (
"80 0 LINE",
"142 0 LINE",
"142 674 LINE",
"80 674 LINE"
);
},
{
closed = 1;
nodes = (
"88 303 LINE",
"404 303 LINE",
"404 360 LINE",
"88 360 LINE"
);
},
{
closed = 1;
nodes = (
"88 617 LINE",
"439 617 LINE",
"439 674 LINE",
"88 674 LINE"
);
}
);
width = 484;
}
);
unicode = 0046;
},
{
glyphname = G;
lastChange = "2015-05-14 13:32:58 +0000";
layers = (
{
layerId = "9609CB55-EFEB-482C-9A6C-237B4D7F8578";
name = Bold;
paths = (
{
closed = 1;
nodes = (
"610 490 LINE",
"530 536 OFFCURVE",
"463 545 OFFCURVE",
"413 545 CURVE SMOOTH",
"286 545 OFFCURVE",
"206 463 OFFCURVE",
"206 338 CURVE SMOOTH",
"206 212 OFFCURVE",
"283 131 OFFCURVE",
"411 131 CURVE SMOOTH",
"520 131 OFFCURVE",
"603 193 OFFCURVE",
"646 235 CURVE",
"646 62 LINE",
"602 30 OFFCURVE",
"522 -8 OFFCURVE",
"404 -8 CURVE SMOOTH",
"191 -8 OFFCURVE",
"40 122 OFFCURVE",
"40 338 CURVE SMOOTH",
"40 553 OFFCURVE",
"201 686 OFFCURVE",
"413 686 CURVE SMOOTH",
"475 686 OFFCURVE",
"545 677 OFFCURVE",
"610 644 CURVE"
);
},
{
closed = 1;
nodes = (
"496 402 LINE",
"646 402 LINE",
"646 77 LINE",
"496 37 LINE"
);
},
{
closed = 1;
nodes = (
"387 402 LINE",
"646 402 LINE",
"646 271 LINE",
"387 271 LINE"
);
}
);
width = 706;
},
{
layerId = "DCCD84DA-95A9-4923-A49E-D7B289AC34C6";
name = Light;
paths = (
{
closed = 1;
nodes = (
"569 570 LINE",
"516 607 OFFCURVE",
"445 624 OFFCURVE",
"381 624 CURVE SMOOTH",
"225 624 OFFCURVE",
"114 512 OFFCURVE",
"114 338 CURVE SMOOTH",
"114 160 OFFCURVE",
"219 54 OFFCURVE",
"392 54 CURVE SMOOTH",
"478 54 OFFCURVE",
"533 84 OFFCURVE",
"561 104 CURVE",
"591 50 LINE",
"542 14 OFFCURVE",
"466 -8 OFFCURVE",
"391 -8 CURVE SMOOTH",
"189 -8 OFFCURVE",
"50 121 OFFCURVE",
"50 338 CURVE SMOOTH",
"50 541 OFFCURVE",
"187 686 OFFCURVE",
"373 686 CURVE SMOOTH",
"439 686 OFFCURVE",
"513 673 OFFCURVE",
"569 639 CURVE"
);
},
{
closed = 1;
nodes = (
"529 371 LINE",
"591 371 LINE",
"591 50 LINE",
"529 35 LINE"
);
},
{
closed = 1;
nodes = (
"370 371 LINE",
"591 371 LINE",
"591 316 LINE",
"370 316 LINE"
);
}
);
width = 661;
}
);
unicode = 0047;
},
{
glyphname = H;
lastChange = "2015-05-14 13:32:58 +0000";
layers = (
{
layerId = "9609CB55-EFEB-482C-9A6C-237B4D7F8578";
name = Bold;
paths = (
{
closed = 1;
nodes = (
"134 269 LINE",
"527 269 LINE",
"527 400 LINE",
"134 400 LINE"
);
},
{
closed = 1;
nodes = (
"466 0 LINE",
"621 0 LINE",
"621 674 LINE",
"466 674 LINE"
);
},
{
closed = 1;
nodes = (
"65 0 LINE",
"219 0 LINE",
"219 674 LINE",
"65 674 LINE"
);
}
);
width = 686;
},
{
layerId = "DCCD84DA-95A9-4923-A49E-D7B289AC34C6";
name = Light;
paths = (
{
closed = 1;
nodes = (
"128 315 LINE",
"509 315 LINE",
"509 372 LINE",
"128 372 LINE"
);
},
{
closed = 1;
nodes = (
"490 0 LINE",
"552 0 LINE",
"552 674 LINE",
"490 674 LINE"
);
},
{
closed = 1;
nodes = (
"80 0 LINE",
"142 0 LINE",
"142 674 LINE",
"80 674 LINE"
);
}
);
width = 632;
}
);
unicode = 0048;
},
{
glyphname = I;
lastChange = "2015-05-14 13:32:58 +0000";
layers = (
{
layerId = "9609CB55-EFEB-482C-9A6C-237B4D7F8578";
name = Bold;
paths = (
{
closed = 1;
nodes = (
"75 0 LINE",
"229 0 LINE",
"229 674 LINE",
"75 674 LINE"
);
}
);
width = 304;
},
{
layerId = "DCCD84DA-95A9-4923-A49E-D7B289AC34C6";
name = Light;
paths = (
{
closed = 1;
nodes = (
"85 0 LINE",
"147 0 LINE",
"147 674 LINE",
"85 674 LINE"
);
}
);
width = 232;
}
);
unicode = 0049;
},
{
glyphname = J;
lastChange = "2015-05-14 13:32:58 +0000";
layers = (
{
layerId = "9609CB55-EFEB-482C-9A6C-237B4D7F8578";
name = Bold;
paths = (
{
closed = 1;
nodes = (
"30 19 LINE",
"55 6 OFFCURVE",
"100 -1 OFFCURVE",
"137 -1 CURVE SMOOTH",
"260 -1 OFFCURVE",
"332 74 OFFCURVE",
"332 204 CURVE SMOOTH",
"332 673 LINE",
"178 673 LINE",
"178 208 LINE SMOOTH",
"178 155 OFFCURVE",
"152 132 OFFCURVE",
"107 132 CURVE SMOOTH",
"78 132 OFFCURVE",
"51 142 OFFCURVE",
"30 155 CURVE"
);
}
);
width = 392;
},
{
layerId = "DCCD84DA-95A9-4923-A49E-D7B289AC34C6";
name = Light;
paths = (
{
closed = 1;
nodes = (
"30 23 LINE",
"55 8 OFFCURVE",
"94 0 OFFCURVE",
"122 0 CURVE SMOOTH",
"199 0 OFFCURVE",
"269 34 OFFCURVE",
"269 165 CURVE",
"269 674 LINE",
"207 674 LINE",
"207 155 LINE SMOOTH",
"207 89 OFFCURVE",
"176 59 OFFCURVE",
"116 59 CURVE SMOOTH",
"85 59 OFFCURVE",
"54 70 OFFCURVE",
"30 86 CURVE"
);
}
);
width = 349;
}
);
unicode = 004A;
},
{
glyphname = K;
lastChange = "2015-05-14 13:32:58 +0000";
layers = (
{
layerId = "9609CB55-EFEB-482C-9A6C-237B4D7F8578";
name = Bold;
paths = (
{
closed = 1;
nodes = (
"65 0 LINE",
"219 0 LINE",
"219 674 LINE",
"65 674 LINE"
);
},
{
closed = 1;
nodes = (
"226 335 LINE",
"452 0 LINE",
"645 0 LINE",
"406 337 LINE"
);
},
{
closed = 1;
nodes = (
"406 337 LINE",
"627 674 LINE",
"444 674 LINE",
"226 335 LINE"
);
}
);
width = 662;
},
{
layerId = "DCCD84DA-95A9-4923-A49E-D7B289AC34C6";
name = Light;
paths = (
{
closed = 1;
nodes = (
"80 0 LINE",
"142 0 LINE",
"142 674 LINE",
"80 674 LINE"
);
},
{
closed = 1;
nodes = (
"160 332 LINE",
"437 0 LINE",
"519 0 LINE",
"239 332 LINE"
);
},
{
closed = 1;
nodes = (
"239 332 LINE",
"505 674 LINE",
"427 674 LINE",
"160 332 LINE"
);
}
);
width = 549;
}
);
unicode = 004B;
},
{
glyphname = L;
lastChange = "2015-05-14 13:32:58 +0000";
layers = (
{
layerId = "9609CB55-EFEB-482C-9A6C-237B4D7F8578";
name = Bold;
paths = (
{
closed = 1;
nodes = (
"65 674 LINE",
"219 674 LINE",
"219 0 LINE",
"65 0 LINE"
);
},
{
closed = 1;
nodes = (
"123 135 LINE",
"468 135 LINE",
"468 0 LINE",
"123 0 LINE"
);
}
);
width = 488;
},
{
layerId = "DCCD84DA-95A9-4923-A49E-D7B289AC34C6";
name = Light;
paths = (
{
closed = 1;
nodes = (
"80 674 LINE",
"142 674 LINE",
"142 0 LINE",
"80 0 LINE"
);
},
{
closed = 1;
nodes = (
"88 57 LINE",
"439 57 LINE",
"439 0 LINE",
"88 0 LINE"
);
}
);
width = 474;
}
);
unicode = 004C;
},
{
glyphname = M;
lastChange = "2015-05-14 13:32:58 +0000";
layers = (
{
layerId = "9609CB55-EFEB-482C-9A6C-237B4D7F8578";
name = Bold;
paths = (
{
closed = 1;
nodes = (
"50 0 LINE",
"204 0 LINE",
"225 261 LINE SMOOTH",
"230 331 OFFCURVE",
"234 400 OFFCURVE",
"234 458 CURVE SMOOTH",
"234 458 OFFCURVE",
"248 400 OFFCURVE",
"299 261 CURVE SMOOTH",
"393 7 LINE",
"484 7 LINE",
"579 261 LINE SMOOTH",
"625 383 OFFCURVE",
"651 458 OFFCURVE",
"651 458 CURVE",
"651 458 OFFCURVE",
"653 382 OFFCURVE",
"664 261 CURVE SMOOTH",
"689 0 LINE",
"843 0 LINE",
"773 674 LINE",
"604 674 LINE",
"509 430 LINE SMOOTH",
"455 292 OFFCURVE",
"439 226 OFFCURVE",
"439 226 CURVE",
"439 226 OFFCURVE",
"424 293 OFFCURVE",
"371 430 CURVE SMOOTH",
"277 674 LINE",
"108 674 LINE"
);
}
);
width = 893;
},
{
layerId = "DCCD84DA-95A9-4923-A49E-D7B289AC34C6";
name = Light;
paths = (
{
closed = 1;
nodes = (
"75 0 LINE",
"137 0 LINE",
"156 267 LINE SMOOTH",
"168 435 OFFCURVE",
"177 586 OFFCURVE",
"177 586 CURVE",
"177 586 OFFCURVE",
"230 435 OFFCURVE",
"289 267 CURVE SMOOTH",
"377 17 LINE",
"450 17 LINE",
"543 267 LINE SMOOTH",
"602 426 OFFCURVE",
"662 593 OFFCURVE",
"662 593 CURVE",
"662 593 OFFCURVE",
"675 427 OFFCURVE",
"689 267 CURVE SMOOTH",
"712 0 LINE",
"774 0 LINE",
"717 674 LINE",
"632 674 LINE",
"540 427 LINE SMOOTH",
"483 274 OFFCURVE",
"414 84 OFFCURVE",
"414 84 CURVE",
"414 84 OFFCURVE",
"347 280 OFFCURVE",
"295 427 CURVE SMOOTH",
"207 674 LINE",
"122 674 LINE"
);
}
);
width = 848;
}
);
unicode = 004D;
},
{
glyphname = N;
lastChange = "2015-05-14 13:32:58 +0000";
layers = (
{
layerId = "9609CB55-EFEB-482C-9A6C-237B4D7F8578";
name = Bold;
paths = (
{
closed = 1;
nodes = (
"65 0 LINE",
"219 0 LINE",
"219 279 LINE SMOOTH",
"219 398 OFFCURVE",
"204 488 OFFCURVE",
"204 488 CURVE",
"204 488 OFFCURVE",
"231 401 OFFCURVE",
"302 279 CURVE SMOOTH",
"463 0 LINE",
"632 0 LINE",
"632 674 LINE",
"478 674 LINE",
"478 395 LINE SMOOTH",
"478 264 OFFCURVE",
"488 190 OFFCURVE",
"488 190 CURVE",
"488 190 OFFCURVE",
"466 262 OFFCURVE",
"391 395 CURVE SMOOTH",
"234 674 LINE",
"65 674 LINE"
);
}
);
width = 697;
},
{
layerId = "DCCD84DA-95A9-4923-A49E-D7B289AC34C6";
name = Light;
paths = (
{
closed = 1;
nodes = (
"80 0 LINE",
"142 0 LINE",
"142 285 LINE SMOOTH",
"142 493 OFFCURVE",
"140 601 OFFCURVE",
"140 601 CURVE",
"140 601 OFFCURVE",
"205 492 OFFCURVE",
"331 283 CURVE SMOOTH",
"502 0 LINE",
"587 0 LINE",
"587 674 LINE",
"525 674 LINE",
"525 388 LINE SMOOTH",
"525 177 OFFCURVE",
"527 73 OFFCURVE",
"527 73 CURVE",
"527 73 OFFCURVE",
"465 177 OFFCURVE",
"337 389 CURVE SMOOTH",
"165 674 LINE",
"80 674 LINE"
);
}
);
width = 667;
}
);
unicode = 004E;
},
{
glyphname = O;
lastChange = "2015-05-14 13:32:58 +0000";
layers = (
{
layerId = "9609CB55-EFEB-482C-9A6C-237B4D7F8578";
name = Bold;
paths = (
{
closed = 1;
nodes = (
"40 339 CURVE",
"40 132 OFFCURVE",
"167 -7 OFFCURVE",
"368 -7 CURVE SMOOTH",
"568 -7 OFFCURVE",
"696 133 OFFCURVE",
"696 339 CURVE SMOOTH",
"696 546 OFFCURVE",
"569 685 OFFCURVE",
"368 685 CURVE SMOOTH",
"168 685 OFFCURVE",
"40 545 OFFCURVE"
);
},
{
closed = 1;
nodes = (
"205 339 CURVE",
"205 465 OFFCURVE",
"268 545 OFFCURVE",
"368 545 CURVE SMOOTH",
"468 545 OFFCURVE",
"531 465 OFFCURVE",
"531 339 CURVE SMOOTH",
"531 213 OFFCURVE",
"468 133 OFFCURVE",
"368 133 CURVE SMOOTH",
"268 133 OFFCURVE",
"205 213 OFFCURVE"
);
}
);
width = 736;
},
{
layerId = "DCCD84DA-95A9-4923-A49E-D7B289AC34C6";
name = Light;
paths = (
{
closed = 1;
nodes = (
"50 340 CURVE SMOOTH",
"50 128 OFFCURVE",
"169 -8 OFFCURVE",
"347 -8 CURVE SMOOTH",
"529 -8 OFFCURVE",
"641 128 OFFCURVE",
"641 340 CURVE SMOOTH",
"641 552 OFFCURVE",
"533 688 OFFCURVE",
"345 688 CURVE SMOOTH",
"164 688 OFFCURVE",
"50 552 OFFCURVE"
);
},
{
closed = 1;
nodes = (
"114 340 CURVE SMOOTH",
"114 519 OFFCURVE",
"200 628 OFFCURVE",
"345 628 CURVE SMOOTH",
"495 628 OFFCURVE",
"577 519 OFFCURVE",
"577 340 CURVE SMOOTH",
"577 161 OFFCURVE",
"495 52 OFFCURVE",
"347 52 CURVE SMOOTH",
"207 52 OFFCURVE",
"114 161 OFFCURVE"
);
}
);
width = 691;
}
);
unicode = 004F;
},
{
glyphname = P;
lastChange = "2015-05-14 13:32:58 +0000";
layers = (
{
layerId = "9609CB55-EFEB-482C-9A6C-237B4D7F8578";
name = Bold;
paths = (
{
closed = 1;
nodes = (
"297 218 LINE SMOOTH",
"430 218 OFFCURVE",
"548 295 OFFCURVE",
"548 451 CURVE SMOOTH",
"548 578 OFFCURVE",
"449 674 OFFCURVE",
"297 674 CURVE SMOOTH",
"65 674 LINE",
"65 551 LINE",
"279 551 LINE SMOOTH",
"359 551 OFFCURVE",
"392 511 OFFCURVE",
"392 451 CURVE SMOOTH",
"392 384 OFFCURVE",
"359 340 OFFCURVE",
"270 340 CURVE SMOOTH",
"65 340 LINE",
"65 218 LINE"
);
},
{
closed = 1;
nodes = (
"65 0 LINE",
"219 0 LINE",
"219 674 LINE",
"65 674 LINE"
);
}
);
width = 563;
},
{
layerId = "DCCD84DA-95A9-4923-A49E-D7B289AC34C6";
name = Light;
paths = (
{
closed = 1;
nodes = (
"253 256 LINE",
"407 256 OFFCURVE",
"495 351 OFFCURVE",
"495 458 CURVE",
"495 584 OFFCURVE",
"403 674 OFFCURVE",
"242 674 CURVE SMOOTH",
"80 674 LINE",
"80 619 LINE",
"249 619 LINE SMOOTH",
"366 619 OFFCURVE",
"432 555 OFFCURVE",
"432 458 CURVE SMOOTH",
"432 377 OFFCURVE",
"369 311 OFFCURVE",
"260 311 CURVE SMOOTH",
"80 311 LINE",
"80 256 LINE"
);
},
{
closed = 1;
nodes = (
"80 0 LINE",
"142 0 LINE",
"142 674 LINE",
"80 674 LINE"
);
}
);
width = 540;
}
);
unicode = 0050;
},
{
glyphname = Q;
lastChange = "2015-05-14 13:32:58 +0000";
layers = (
{
layerId = "9609CB55-EFEB-482C-9A6C-237B4D7F8578";
name = Bold;
paths = (
{
closed = 1;
nodes = (
"40 339 CURVE SMOOTH",
"40 132 OFFCURVE",
"167 -7 OFFCURVE",
"368 -7 CURVE SMOOTH",
"568 -7 OFFCURVE",
"696 133 OFFCURVE",
"696 339 CURVE SMOOTH",
"696 546 OFFCURVE",
"569 685 OFFCURVE",
"368 685 CURVE SMOOTH",
"168 685 OFFCURVE",
"40 545 OFFCURVE"
);
},
{
closed = 1;
nodes = (
"205 339 CURVE SMOOTH",
"205 465 OFFCURVE",
"268 545 OFFCURVE",
"368 545 CURVE SMOOTH",
"468 545 OFFCURVE",
"531 465 OFFCURVE",
"531 339 CURVE SMOOTH",
"531 213 OFFCURVE",
"468 133 OFFCURVE",
"368 133 CURVE SMOOTH",
"268 133 OFFCURVE",
"205 213 OFFCURVE"
);
},
{
closed = 1;
nodes = (
"287 49 LINE",
"563 -151 LINE",
"738 -84 LINE",
"445 80 LINE"
);
}
);
width = 741;
},
{
layerId = "DCCD84DA-95A9-4923-A49E-D7B289AC34C6";
name = Light;
paths = (
{
closed = 1;
nodes = (
"50 340 CURVE SMOOTH",
"50 128 OFFCURVE",
"169 -8 OFFCURVE",
"347 -8 CURVE SMOOTH",
"529 -8 OFFCURVE",
"641 128 OFFCURVE",
"641 340 CURVE SMOOTH",
"641 552 OFFCURVE",
"533 688 OFFCURVE",
"345 688 CURVE SMOOTH",
"164 688 OFFCURVE",
"50 552 OFFCURVE"
);
},
{
closed = 1;
nodes = (
"114 340 CURVE SMOOTH",
"114 519 OFFCURVE",
"200 628 OFFCURVE",
"345 628 CURVE SMOOTH",
"495 628 OFFCURVE",
"577 519 OFFCURVE",
"577 340 CURVE SMOOTH",
"577 161 OFFCURVE",
"495 52 OFFCURVE",
"347 52 CURVE SMOOTH",
"207 52 OFFCURVE",
"114 161 OFFCURVE"
);
},
{
closed = 1;
nodes = (
"386 6 LINE",
"603 -139 LINE",
"668 -111 LINE",
"443 34 LINE"
);
}
);
width = 701;
}
);
unicode = 0051;
},
{
glyphname = R;
lastChange = "2015-05-14 13:32:58 +0000";
layers = (
{
layerId = "9609CB55-EFEB-482C-9A6C-237B4D7F8578";
name = Bold;
paths = (
{
closed = 1;
nodes = (
"208 326 LINE",
"412 0 LINE",
"596 0 LINE",
"381 326 LINE"
);
},
{
closed = 1;
nodes = (
"392 457 CURVE SMOOTH",
"392 393 OFFCURVE",
"362 359 OFFCURVE",
"292 359 CURVE",
"65 359 LINE",
"65 234 LINE",
"298 234 LINE SMOOTH",
"430 234 OFFCURVE",
"548 301 OFFCURVE",
"548 458 CURVE SMOOTH",
"548 585 OFFCURVE",
"450 674 OFFCURVE",
"298 674 CURVE SMOOTH",
"65 674 LINE",
"65 549 LINE",
"295 549 LINE SMOOTH",
"354 549 OFFCURVE",
"392 515 OFFCURVE"
);
},
{
closed = 1;
nodes = (
"65 0 LINE",
"219 0 LINE",
"219 674 LINE",
"65 674 LINE"
);
}
);
width = 614;
},
{
layerId = "DCCD84DA-95A9-4923-A49E-D7B289AC34C6";
name = Light;
paths = (
{
closed = 1;
nodes = (
"244 306 LINE",
"432 0 LINE",
"506 0 LINE",
"314 306 LINE"
);
},
{
closed = 1;
nodes = (
"405 472 CURVE SMOOTH",
"405 395 OFFCURVE",
"354 329 OFFCURVE",
"251 329 CURVE SMOOTH",
"80 329 LINE",
"80 274 LINE",
"244 274 LINE SMOOTH",
"391 274 OFFCURVE",
"463 357 OFFCURVE",
"467 469 CURVE",
"467 596 OFFCURVE",
"393 674 OFFCURVE",
"232 674 CURVE SMOOTH",
"80 674 LINE",
"80 619 LINE",
"239 619 LINE SMOOTH",
"353 619 OFFCURVE",
"405 568 OFFCURVE"
);
},
{
closed = 1;
nodes = (
"80 0 LINE",
"142 0 LINE",
"142 674 LINE",
"80 674 LINE"
);
}
);
width = 531;
}
);
unicode = 0052;
},
{
glyphname = S;
lastChange = "2015-05-14 13:32:58 +0000";
layers = (
{
layerId = "9609CB55-EFEB-482C-9A6C-237B4D7F8578";
name = Bold;
paths = (
{
closed = 1;
nodes = (
"454 644 LINE",
"400 669 OFFCURVE",
"336 678 OFFCURVE",
"280 678 CURVE",
"127 678 OFFCURVE",
"39 598 OFFCURVE",
"39 484 CURVE",
"39 376 OFFCURVE",
"112 326 OFFCURVE",
"183 293 CURVE SMOOTH",
"260 257 OFFCURVE",
"320 239 OFFCURVE",
"320 190 CURVE",
"320 150 OFFCURVE",
"285 123 OFFCURVE",
"239 123 CURVE",
"176 123 OFFCURVE",
"111 141 OFFCURVE",
"45 189 CURVE",
"45 34 LINE",
"95 6 OFFCURVE",
"169 -8 OFFCURVE",
"239 -8 CURVE",
"387 -8 OFFCURVE",
"484 75 OFFCURVE",
"484 196 CURVE",
"484 319 OFFCURVE",
"390 367 OFFCURVE",
"306 404 CURVE SMOOTH",
"249 429 OFFCURVE",
"206 453 OFFCURVE",
"206 490 CURVE",
"206 522 OFFCURVE",
"232 547 OFFCURVE",
"286 547 CURVE",
"343 547 OFFCURVE",
"404 529 OFFCURVE",
"454 500 CURVE"
);
}
);
width = 514;
},
{
layerId = "DCCD84DA-95A9-4923-A49E-D7B289AC34C6";
name = Light;
paths = (
{
closed = 1;
nodes = (
"423 650 LINE",
"384 671 OFFCURVE",
"330 680 OFFCURVE",
"283 680 CURVE SMOOTH",
"173 680 OFFCURVE",
"73 619 OFFCURVE",
"73 500 CURVE SMOOTH",
"73 374 OFFCURVE",
"188 339 OFFCURVE",
"282 297 CURVE SMOOTH",
"345 269 OFFCURVE",
"399 238 OFFCURVE",
"399 173 CURVE SMOOTH",
"399 94 OFFCURVE",
"342 53 OFFCURVE",
"249 53 CURVE SMOOTH",
"182 53 OFFCURVE",
"114 76 OFFCURVE",
"75 106 CURVE",
"75 37 LINE",
"123 8 OFFCURVE",
"189 -7 OFFCURVE",
"252 -7 CURVE SMOOTH",
"368 -7 OFFCURVE",
"462 52 OFFCURVE",
"462 174 CURVE SMOOTH",
"462 288 OFFCURVE",
"369 328 OFFCURVE",
"283 365 CURVE SMOOTH",
"207 398 OFFCURVE",
"137 428 OFFCURVE",
"137 504 CURVE SMOOTH",
"137 573 OFFCURVE",
"194 619 OFFCURVE",
"284 619 CURVE SMOOTH",
"334 619 OFFCURVE",
"392 602 OFFCURVE",
"423 581 CURVE"
);
}
);
width = 527;
}
);
unicode = 0053;
},
{
glyphname = T;
lastChange = "2015-05-14 13:32:58 +0000";
layers = (
{
layerId = "9609CB55-EFEB-482C-9A6C-237B4D7F8578";
name = Bold;
paths = (
{
closed = 1;
nodes = (
"195 0 LINE",
"350 0 LINE",
"350 653 LINE",
"195 653 LINE"
);
},
{
closed = 1;
nodes = (
"30 550 LINE",
"514 550 LINE",
"514 674 LINE",
"30 674 LINE"
);
}
);
width = 544;
},
{
layerId = "DCCD84DA-95A9-4923-A49E-D7B289AC34C6";
name = Light;
paths = (
{
closed = 1;
nodes = (
"201 0 LINE",
"263 0 LINE",
"263 674 LINE",
"201 674 LINE"
);
},
{
closed = 1;
nodes = (
"15 617 LINE",
"450 617 LINE",
"450 674 LINE",
"15 674 LINE"
);
}
);
width = 465;
}
);
unicode = 0054;
},
{
glyphname = U;
lastChange = "2015-05-14 13:32:58 +0000";
layers = (
{
layerId = "9609CB55-EFEB-482C-9A6C-237B4D7F8578";
name = Bold;
paths = (
{
closed = 1;
nodes = (
"454 260 LINE",
"454 158 OFFCURVE",
"400 130 OFFCURVE",
"334 130 CURVE SMOOTH",
"271 130 OFFCURVE",
"214 158 OFFCURVE",
"214 255 CURVE",
"214 674 LINE",
"60 674 LINE",
"60 254 LINE",
"60 81 OFFCURVE",
"174 -10 OFFCURVE",
"334 -10 CURVE SMOOTH",
"497 -10 OFFCURVE",
"608 81 OFFCURVE",
"608 261 CURVE",
"608 674 LINE",
"454 674 LINE"
);
}
);
width = 668;
},
{
layerId = "DCCD84DA-95A9-4923-A49E-D7B289AC34C6";
name = Light;
paths = (
{
closed = 1;
nodes = (
"497 253 LINE",
"497 106 OFFCURVE",
"424 52 OFFCURVE",
"318 52 CURVE SMOOTH",
"217 52 OFFCURVE",
"142 107 OFFCURVE",
"142 248 CURVE SMOOTH",
"142 674 LINE",
"80 674 LINE",
"80 247 LINE SMOOTH",
"80 78 OFFCURVE",
"169 -8 OFFCURVE",
"318 -8 CURVE SMOOTH",
"468 -8 OFFCURVE",
"559 79 OFFCURVE",
"559 255 CURVE SMOOTH",
"559 674 LINE",
"497 674 LINE"
);
}
);
width = 639;
}
);
unicode = 0055;
},
{
glyphname = V;
lastChange = "2015-05-14 13:32:58 +0000";
layers = (
{
layerId = "9609CB55-EFEB-482C-9A6C-237B4D7F8578";
name = Bold;
paths = (
{
closed = 1;
nodes = (
"640 674 LINE",
"476 674 LINE",
"395 405 LINE SMOOTH",
"346 243 OFFCURVE",
"330 139 OFFCURVE",
"330 139 CURVE",
"330 139 OFFCURVE",
"315 243 OFFCURVE",
"266 405 CURVE SMOOTH",
"185 674 LINE",
"19 674 LINE",
"243 0 LINE",
"413 0 LINE"
);
}
);
width = 659;
},
{
layerId = "DCCD84DA-95A9-4923-A49E-D7B289AC34C6";
name = Light;
paths = (
{
closed = 1;
nodes = (
"591 674 LINE",
"524 674 LINE",
"432 407 LINE SMOOTH",
"357 187 OFFCURVE",
"312 55 OFFCURVE",
"312 55 CURVE",
"312 55 OFFCURVE",
"269 187 OFFCURVE",
"196 407 CURVE SMOOTH",
"107 674 LINE",
"40 674 LINE",
"269 0 LINE",
"354 0 LINE"
);
}
);
width = 631;
}
);
unicode = 0056;
},
{
glyphname = W;
lastChange = "2015-05-14 13:32:58 +0000";
layers = (
{
layerId = "9609CB55-EFEB-482C-9A6C-237B4D7F8578";
name = Bold;
paths = (
{
closed = 1;
nodes = (
"545 664 LINE",
"611 426 LINE SMOOTH",
"658 257 OFFCURVE",
"677 168 OFFCURVE",
"677 168 CURVE",
"677 168 OFFCURVE",
"690 257 OFFCURVE",
"733 427 CURVE SMOOTH",
"795 674 LINE",
"952 674 LINE",
"772 0 LINE",
"600 0 LINE",
"541 213 LINE SMOOTH",
"493 386 OFFCURVE",
"488 426 OFFCURVE",
"488 426 CURVE",
"488 426 OFFCURVE",
"485 385 OFFCURVE",
"434 213 CURVE SMOOTH",
"372 0 LINE",
"200 0 LINE",
"19 674 LINE",
"181 674 LINE",
"243 426 LINE SMOOTH",
"287 246 OFFCURVE",
"296 168 OFFCURVE",
"296 168 CURVE",
"296 168 OFFCURVE",
"313 246 OFFCURVE",
"364 426 CURVE SMOOTH",
"431 664 LINE"
);
}
);
width = 971;
},
{
layerId = "DCCD84DA-95A9-4923-A49E-D7B289AC34C6";
name = Light;
paths = (
{
closed = 1;
nodes = (
"505 664 LINE",
"580 423 LINE SMOOTH",
"610 326 OFFCURVE",
"692 59 OFFCURVE",
"692 59 CURVE",
"692 59 OFFCURVE",
"747 315 OFFCURVE",
"771 422 CURVE SMOOTH",
"827 674 LINE",
"889 674 LINE",
"736 0 LINE",
"651 0 LINE",
"584 213 LINE SMOOTH",
"511 445 OFFCURVE",
"470 583 OFFCURVE",
"470 583 CURVE",
"470 583 OFFCURVE",
"432 445 OFFCURVE",
"363 213 CURVE SMOOTH",
"300 0 LINE",
"215 0 LINE",
"40 674 LINE",
"105 674 LINE",
"168 424 LINE SMOOTH",
"190 339 OFFCURVE",
"259 63 OFFCURVE",
"259 63 CURVE",
"259 63 OFFCURVE",
"326 302 OFFCURVE",
"362 424 CURVE SMOOTH",
"432 664 LINE"
);
}
);
width = 929;
}
);
unicode = 0057;
},
{
glyphname = X;
lastChange = "2015-05-14 13:32:58 +0000";
layers = (
{
layerId = "9609CB55-EFEB-482C-9A6C-237B4D7F8578";
name = Bold;
paths = (
{
closed = 1;
nodes = (
"213 0 LINE",
"331 210 LINE",
"453 0 LINE",
"636 0 LINE",
"419 341 LINE",
"623 674 LINE",
"435 674 LINE",
"328 477 LINE",
"216 674 LINE",
"37 674 LINE",
"240 342 LINE",
"27 0 LINE"
);
}
);
width = 663;
},
{
layerId = "DCCD84DA-95A9-4923-A49E-D7B289AC34C6";
name = Light;
paths = (
{
closed = 1;
nodes = (
"114 0 LINE",
"295 287 LINE",
"486 0 LINE",
"558 0 LINE",
"329 340 LINE",
"533 674 LINE",
"461 674 LINE",
"294 396 LINE",
"127 674 LINE",
"55 674 LINE",
"260 340 LINE",
"42 0 LINE"
);
}
);
width = 600;
}
);
unicode = 0058;
},
{
glyphname = Y;
lastChange = "2015-05-14 13:32:58 +0000";
layers = (
{
layerId = "9609CB55-EFEB-482C-9A6C-237B4D7F8578";
name = Bold;
paths = (
{
closed = 1;
nodes = (
"260 215 LINE",
"13 674 LINE",
"193 674 LINE",
"234 576 LINE SMOOTH",
"305 405 OFFCURVE",
"319 360 OFFCURVE",
"319 360 CURVE",
"319 360 OFFCURVE",
"329 405 OFFCURVE",
"407 576 CURVE SMOOTH",
"451 674 LINE",
"630 674 LINE",
"379 215 LINE"
);
},
{
closed = 1;
nodes = (
"243 252 LINE",
"397 252 LINE",
"397 0 LINE",
"243 0 LINE"
);
}
);
width = 643;
},
{
layerId = "DCCD84DA-95A9-4923-A49E-D7B289AC34C6";
name = Light;
paths = (
{
closed = 1;
nodes = (
"258 252 LINE",
"30 674 LINE",
"101 674 LINE",
"154 575 LINE SMOOTH",
"282 334 OFFCURVE",
"289 315 OFFCURVE",
"289 315 CURVE",
"289 315 OFFCURVE",
"297 334 OFFCURVE",
"426 575 CURVE SMOOTH",
"479 674 LINE",
"550 674 LINE",
"320 252 LINE"
);
},
{
closed = 1;
nodes = (
"258 272 LINE",
"320 272 LINE",
"320 0 LINE",
"258 0 LINE"
);
}
);
width = 580;
}
);
unicode = 0059;
},
{
glyphname = Z;
lastChange = "2015-05-14 13:32:58 +0000";
layers = (
{
layerId = "9609CB55-EFEB-482C-9A6C-237B4D7F8578";
name = Bold;
paths = (
{
closed = 1;
nodes = (
"549 674 LINE",
"66 674 LINE",
"66 550 LINE",
"362 550 LINE",
"60 113 LINE",
"60 0 LINE",
"561 0 LINE",
"561 124 LINE",
"245 124 LINE",
"549 565 LINE"
);
}
);
width = 621;
},
{
layerId = "DCCD84DA-95A9-4923-A49E-D7B289AC34C6";
name = Light;
paths = (
{
closed = 1;
nodes = (
"490 674 LINE",
"54 674 LINE",
"54 619 LINE",
"420 619 LINE",
"50 55 LINE",
"50 0 LINE",
"505 0 LINE",
"505 55 LINE",
"120 55 LINE",
"490 619 LINE"
);
}
);
width = 555;
}
);
unicode = 005A;
},
{
glyphname = a;
lastChange = "2015-05-14 13:32:58 +0000";
layers = (
{
layerId = "9609CB55-EFEB-482C-9A6C-237B4D7F8578";
name = Bold;
paths = (
{
closed = 1;
nodes = (
"311 171 LINE",
"311 128 OFFCURVE",
"288 100 OFFCURVE",
"246 100 CURVE SMOOTH",
"206 100 OFFCURVE",
"187 118 OFFCURVE",
"187 151 CURVE SMOOTH",
"187 184 OFFCURVE",
"214 208 OFFCURVE",
"264 208 CURVE SMOOTH",
"328 208 LINE",
"328 298 LINE",
"247 298 LINE SMOOTH",
"103 298 OFFCURVE",
"35 238 OFFCURVE",
"35 144 CURVE SMOOTH",
"35 63 OFFCURVE",
"90 -3 OFFCURVE",
"192 -3 CURVE SMOOTH",
"266 -3 OFFCURVE",
"302 30 OFFCURVE",
"318 62 CURVE",
"318 0 LINE",
"461 0 LINE",
"461 325 LINE SMOOTH",
"461 456 OFFCURVE",
"390 516 OFFCURVE",
"247 516 CURVE SMOOTH",
"168 516 OFFCURVE",
"104 499 OFFCURVE",
"74 482 CURVE",
"74 351 LINE",
"112 376 OFFCURVE",
"167 397 OFFCURVE",
"226 397 CURVE SMOOTH",
"291 397 OFFCURVE",
"311 371 OFFCURVE",
"311 333 CURVE SMOOTH"
);
}
);
width = 516;
},
{
layerId = "DCCD84DA-95A9-4923-A49E-D7B289AC34C6";
name = Light;
paths = (
{
closed = 1;
nodes = (
"355 168 LINE",
"355 102 OFFCURVE",
"305 51 OFFCURVE",
"223 51 CURVE SMOOTH",
"150 51 OFFCURVE",
"115 92 OFFCURVE",
"115 145 CURVE SMOOTH",
"115 195 OFFCURVE",
"155 241 OFFCURVE",
"256 241 CURVE SMOOTH",
"367 241 LINE",
"367 297 LINE",
"256 297 LINE SMOOTH",
"134 297 OFFCURVE",
"50 242 OFFCURVE",
"50 143 CURVE SMOOTH",
"50 57 OFFCURVE",
"115 -5 OFFCURVE",
"209 -5 CURVE SMOOTH",
"295 -5 OFFCURVE",
"338 33 OFFCURVE",
"355 59 CURVE",
"355 0 LINE",
"416 0 LINE",
"416 320 LINE SMOOTH",
"416 442 OFFCURVE",
"364 515 OFFCURVE",
"230 515 CURVE SMOOTH",
"180 515 OFFCURVE",
"122 501 OFFCURVE",
"87 480 CURVE",
"87 414 LINE",
"125 440 OFFCURVE",
"182 457 OFFCURVE",
"229 457 CURVE SMOOTH",
"324 457 OFFCURVE",
"355 406 OFFCURVE",
"355 320 CURVE SMOOTH"
);
}
);
width = 486;
}
);
unicode = 0061;
},
{
glyphname = b;
lastChange = "2015-05-14 13:32:58 +0000";
layers = (
{
layerId = "9609CB55-EFEB-482C-9A6C-237B4D7F8578";
name = Bold;
paths = (
{
closed = 1;
nodes = (
"60 0 LINE",
"206 0 LINE",
"206 707 LINE",
"60 707 LINE"
);
},
{
closed = 1;
nodes = (
"206 259 CURVE SMOOTH",
"206 349 OFFCURVE",
"263 392 OFFCURVE",
"319 392 CURVE SMOOTH",
"377 392 OFFCURVE",
"428 344 OFFCURVE",
"428 252 CURVE SMOOTH",
"428 168 OFFCURVE",
"378 116 OFFCURVE",
"318 116 CURVE SMOOTH",
"252 116 OFFCURVE",
"206 171 OFFCURVE"
);
},
{
closed = 1;
nodes = (
"165 258 CURVE SMOOTH",
"165 66 OFFCURVE",
"257 -6 OFFCURVE",
"358 -6 CURVE SMOOTH",
"496 -6 OFFCURVE",
"576 119 OFFCURVE",
"576 255 CURVE SMOOTH",
"576 420 OFFCURVE",
"480 513 OFFCURVE",
"357 513 CURVE SMOOTH",
"253 513 OFFCURVE",
"165 434 OFFCURVE"
);
}
);
width = 611;
},
{
layerId = "DCCD84DA-95A9-4923-A49E-D7B289AC34C6";
name = Light;
paths = (
{
closed = 1;
nodes = (
"80 0 LINE",
"141 0 LINE",
"141 707 LINE",
"80 707 LINE"
);
},
{
closed = 1;
nodes = (
"141 256 CURVE SMOOTH",
"141 414 OFFCURVE",
"236 457 OFFCURVE",
"294 457 CURVE SMOOTH",
"380 457 OFFCURVE",
"450 388 OFFCURVE",
"450 247 CURVE SMOOTH",
"450 130 OFFCURVE",
"386 50 OFFCURVE",
"300 50 CURVE SMOOTH",
"227 50 OFFCURVE",
"141 94 OFFCURVE"
);
},
{
closed = 1;
nodes = (
"95 256 CURVE SMOOTH",
"95 141 OFFCURVE",
"139 -8 OFFCURVE",
"298 -8 CURVE SMOOTH",
"440 -8 OFFCURVE",
"514 113 OFFCURVE",
"514 248 CURVE SMOOTH",
"514 405 OFFCURVE",
"424 515 OFFCURVE",
"296 515 CURVE SMOOTH",
"165 515 OFFCURVE",
"95 397 OFFCURVE"
);
}
);
width = 559;
}
);
unicode = 0062;
},
{
glyphname = c;
lastChange = "2015-05-14 13:32:58 +0000";
layers = (
{
layerId = "9609CB55-EFEB-482C-9A6C-237B4D7F8578";
name = Bold;
paths = (
{
closed = 1;
nodes = (
"183 252 CURVE",
"184 347 OFFCURVE",
"243 394 OFFCURVE",
"321 394 CURVE SMOOTH",
"361 394 OFFCURVE",
"404 383 OFFCURVE",
"439 361 CURVE",
"439 486 LINE",
"393 510 OFFCURVE",
"346 515 OFFCURVE",
"306 515 CURVE SMOOTH",
"134 515 OFFCURVE",
"37 398 OFFCURVE",
"35 252 CURVE",
"35 98 OFFCURVE",
"146 -8 OFFCURVE",
"297 -8 CURVE SMOOTH",
"349 -8 OFFCURVE",
"400 3 OFFCURVE",
"439 24 CURVE",
"439 146 LINE",
"401 123 OFFCURVE",
"358 111 OFFCURVE",
"318 111 CURVE SMOOTH",
"239 111 OFFCURVE",
"188 163 OFFCURVE"
);
}
);
width = 469;
},
{
layerId = "DCCD84DA-95A9-4923-A49E-D7B289AC34C6";
name = Light;
paths = (
{
closed = 1;
nodes = (
"109 251 CURVE SMOOTH",
"109 358 OFFCURVE",
"183 457 OFFCURVE",
"312 457 CURVE SMOOTH",
"340 457 OFFCURVE",
"387 447 OFFCURVE",
"417 427 CURVE",
"417 489 LINE",
"381 509 OFFCURVE",
"335 516 OFFCURVE",
"306 516 CURVE SMOOTH",
"137 516 OFFCURVE",
"45 384 OFFCURVE",
"45 252 CURVE SMOOTH",
"45 116 OFFCURVE",
"134 -12 OFFCURVE",
"306 -12 CURVE SMOOTH",
"343 -12 OFFCURVE",
"392 0 OFFCURVE",
"417 17 CURVE",
"417 79 LINE",
"394 62 OFFCURVE",
"352 47 OFFCURVE",
"313 47 CURVE SMOOTH",
"175 47 OFFCURVE",
"109 145 OFFCURVE"
);
}
);
width = 472;
}
);
unicode = 0063;
},
{
glyphname = d;
lastChange = "2015-05-14 13:32:58 +0000";
layers = (
{
layerId = "9609CB55-EFEB-482C-9A6C-237B4D7F8578";
name = Bold;
paths = (
{
closed = 1;
nodes = (
"551 707 LINE",
"405 707 LINE",
"405 0 LINE",
"551 0 LINE"
);
},
{
closed = 1;
nodes = (
"405 259 CURVE SMOOTH",
"405 171 OFFCURVE",
"359 116 OFFCURVE",
"293 116 CURVE SMOOTH",
"233 116 OFFCURVE",
"183 168 OFFCURVE",
"183 252 CURVE SMOOTH",
"183 344 OFFCURVE",
"234 392 OFFCURVE",
"292 392 CURVE SMOOTH",
"348 392 OFFCURVE",
"405 349 OFFCURVE"
);
},
{
closed = 1;
nodes = (
"446 258 CURVE SMOOTH",
"446 434 OFFCURVE",
"358 513 OFFCURVE",
"254 513 CURVE SMOOTH",
"131 513 OFFCURVE",
"35 420 OFFCURVE",
"35 255 CURVE SMOOTH",
"35 119 OFFCURVE",
"115 -6 OFFCURVE",
"253 -6 CURVE SMOOTH",
"354 -6 OFFCURVE",
"446 66 OFFCURVE"
);
}
);
width = 611;
},
{
layerId = "DCCD84DA-95A9-4923-A49E-D7B289AC34C6";
name = Light;
paths = (
{
closed = 1;
nodes = (
"479 707 LINE",
"418 707 LINE",
"418 0 LINE",
"479 0 LINE"
);
},
{
closed = 1;
nodes = (
"418 256 CURVE SMOOTH",
"418 94 OFFCURVE",
"332 50 OFFCURVE",
"259 50 CURVE SMOOTH",
"173 50 OFFCURVE",
"109 130 OFFCURVE",
"109 247 CURVE SMOOTH",
"109 388 OFFCURVE",
"179 457 OFFCURVE",
"265 457 CURVE SMOOTH",
"323 457 OFFCURVE",
"418 414 OFFCURVE"
);
},
{
closed = 1;
nodes = (
"464 256 CURVE SMOOTH",
"464 397 OFFCURVE",
"394 515 OFFCURVE",
"263 515 CURVE SMOOTH",
"135 515 OFFCURVE",
"45 405 OFFCURVE",
"45 248 CURVE SMOOTH",
"45 113 OFFCURVE",
"119 -8 OFFCURVE",
"261 -8 CURVE SMOOTH",
"420 -8 OFFCURVE",
"464 141 OFFCURVE"
);
}
);
width = 555;
}
);
unicode = 0064;
},
{
glyphname = e;
lastChange = "2015-05-14 13:32:58 +0000";
layers = (
{
layerId = "9609CB55-EFEB-482C-9A6C-237B4D7F8578";
name = Bold;
paths = (
{
closed = 1;
nodes = (
"127 196 LINE",
"481 196 LINE",
"484 217 OFFCURVE",
"489 253 OFFCURVE",
"489 275 CURVE SMOOTH",
"489 437 OFFCURVE",
"400 512 OFFCURVE",
"269 512 CURVE SMOOTH",
"143 512 OFFCURVE",
"35 422 OFFCURVE",
"35 254 CURVE SMOOTH",
"35 107 OFFCURVE",
"127 -5 OFFCURVE",
"299 -5 CURVE SMOOTH",
"350 -5 OFFCURVE",
"421 5 OFFCURVE",
"458 29 CURVE",
"458 151 LINE",
"426 127 OFFCURVE",
"384 108 OFFCURVE",
"324 108 CURVE SMOOTH",
"236 108 OFFCURVE",
"173 160 OFFCURVE",
"173 254 CURVE",
"173 356 OFFCURVE",
"224 401 OFFCURVE",
"275 401 CURVE SMOOTH",
"331 401 OFFCURVE",
"349 361 OFFCURVE",
"353 312 CURVE SMOOTH",
"353 300 LINE",
"127 300 LINE"
);
}
);
width = 533;
},
{
layerId = "DCCD84DA-95A9-4923-A49E-D7B289AC34C6";
name = Light;
paths = (
{
closed = 1;
nodes = (
"85 226 LINE",
"467 226 LINE",
"470 241 OFFCURVE",
"471 270 OFFCURVE",
"471 280 CURVE SMOOTH",
"471 431 OFFCURVE",
"389 513 OFFCURVE",
"268 513 CURVE SMOOTH",
"138 513 OFFCURVE",
"45 416 OFFCURVE",
"45 251 CURVE SMOOTH",
"45 96 OFFCURVE",
"150 -5 OFFCURVE",
"299 -5 CURVE SMOOTH",
"342 -5 OFFCURVE",
"401 6 OFFCURVE",
"439 25 CURVE",
"439 87 LINE",
"403 63 OFFCURVE",
"343 53 OFFCURVE",
"302 53 CURVE SMOOTH",
"184 53 OFFCURVE",
"108 121 OFFCURVE",
"108 251 CURVE SMOOTH",
"108 387 OFFCURVE",
"177 456 OFFCURVE",
"266 456 CURVE SMOOTH",
"352 456 OFFCURVE",
"408 398 OFFCURVE",
"408 305 CURVE SMOOTH",
"408 282 LINE",
"85 282 LINE"
);
}
);
width = 519;
}
);
unicode = 0065;
},
{
glyphname = f;
lastChange = "2015-05-14 13:32:58 +0000";
layers = (
{
layerId = "9609CB55-EFEB-482C-9A6C-237B4D7F8578";
name = Bold;
paths = (
{
closed = 1;
nodes = (
"366 592 LINE",
"346 600 OFFCURVE",
"330 603 OFFCURVE",
"314 603 CURVE SMOOTH",
"268 603 OFFCURVE",
"241 587 OFFCURVE",
"241 526 CURVE SMOOTH",
"241 0 LINE",
"96 0 LINE",
"96 526 LINE SMOOTH",
"96 650 OFFCURVE",
"169 720 OFFCURVE",
"290 720 CURVE SMOOTH",
"316 720 OFFCURVE",
"340 719 OFFCURVE",
"366 710 CURVE"
);
},
{
closed = 1;
nodes = (
"30 507 LINE",
"336 507 LINE",
"336 400 LINE",
"30 400 LINE"
);
}
);
width = 346;
},
{
layerId = "DCCD84DA-95A9-4923-A49E-D7B289AC34C6";
name = Light;
paths = (
{
closed = 1;
nodes = (
"301 646 LINE",
"288 651 OFFCURVE",
"273 654 OFFCURVE",
"257 654 CURVE SMOOTH",
"221 654 OFFCURVE",
"184 627 OFFCURVE",
"184 560 CURVE SMOOTH",
"184 0 LINE",
"123 0 LINE",
"123 561 LINE SMOOTH",
"123 651 OFFCURVE",
"171 712 OFFCURVE",
"260 712 CURVE SMOOTH",
"269 712 OFFCURVE",
"290 709 OFFCURVE",
"301 706 CURVE"
);
},
{
closed = 1;
nodes = (
"30 507 LINE",
"300 507 LINE",
"300 455 LINE",
"30 455 LINE"
);
}
);
width = 325;
}
);
unicode = 0066;
},
{
glyphname = g;
lastChange = "2015-05-14 13:32:58 +0000";
layers = (
{
layerId = "9609CB55-EFEB-482C-9A6C-237B4D7F8578";
name = Bold;
paths = (
{
closed = 1;
nodes = (
"87 -158 LINE",
"146 -186 OFFCURVE",
"212 -196 OFFCURVE",
"274 -196 CURVE SMOOTH",
"410 -196 OFFCURVE",
"530 -123 OFFCURVE",
"530 49 CURVE SMOOTH",
"530 507 LINE",
"385 507 LINE",
"385 51 LINE SMOOTH",
"385 -28 OFFCURVE",
"348 -65 OFFCURVE",
"259 -65 CURVE SMOOTH",
"195 -65 OFFCURVE",
"132 -45 OFFCURVE",
"87 -9 CURVE"
);
},
{
closed = 1;
nodes = (
"123 512 OFFCURVE",
"40 405 OFFCURVE",
"40 263 CURVE SMOOTH",
"40 89 OFFCURVE",
"144 17 OFFCURVE",
"245 17 CURVE SMOOTH",
"362 17 OFFCURVE",
"423 92 OFFCURVE",
"423 253 CURVE SMOOTH",
"423 259 LINE SMOOTH",
"423 404 OFFCURVE",
"379 512 OFFCURVE",
"252 512 CURVE SMOOTH"
);
},
{
closed = 1;
nodes = (
"226 133 OFFCURVE",
"192 177 OFFCURVE",
"192 262 CURVE SMOOTH",
"192 342 OFFCURVE",
"228 390 OFFCURVE",
"286 390 CURVE SMOOTH",
"345 390 OFFCURVE",
"385 352 OFFCURVE",
"385 254 CURVE SMOOTH",
"385 191 OFFCURVE",
"351 133 OFFCURVE",
"285 133 CURVE SMOOTH"
);
}
);
width = 585;
},
{
layerId = "DCCD84DA-95A9-4923-A49E-D7B289AC34C6";
name = Light;
paths = (
{
closed = 1;
nodes = (
"99 -162 LINE",
"141 -182 OFFCURVE",
"198 -191 OFFCURVE",
"247 -191 CURVE SMOOTH",
"370 -191 OFFCURVE",
"469 -122 OFFCURVE",
"469 39 CURVE SMOOTH",
"469 507 LINE",
"408 507 LINE",
"408 39 LINE SMOOTH",
"408 -85 OFFCURVE",
"337 -133 OFFCURVE",
"242 -133 CURVE SMOOTH",
"196 -133 OFFCURVE",
"141 -123 OFFCURVE",
"99 -102 CURVE"
);
},
{
closed = 1;
nodes = (
"125 515 OFFCURVE",
"45 403 OFFCURVE",
"45 253 CURVE SMOOTH",
"45 98 OFFCURVE",
"145 12 OFFCURVE",
"256 12 CURVE SMOOTH",
"377 12 OFFCURVE",
"443 124 OFFCURVE",
"443 251 CURVE SMOOTH",
"443 256 LINE SMOOTH",
"442 376 OFFCURVE",
"397 515 OFFCURVE",
"250 515 CURVE SMOOTH"
);
},
{
closed = 1;
nodes = (
"194 70 OFFCURVE",
"109 123 OFFCURVE",
"109 256 CURVE SMOOTH",
"109 373 OFFCURVE",
"166 457 OFFCURVE",
"262 457 CURVE SMOOTH",
"325 457 OFFCURVE",
"408 404 OFFCURVE",
"408 251 CURVE SMOOTH",
"408 115 OFFCURVE",
"319 70 OFFCURVE",
"257 70 CURVE SMOOTH"
);
}
);
width = 539;
}
);
note = "\012    g from Lato\012  ";
unicode = 0067;
},
{
glyphname = h;
lastChange = "2015-05-14 13:32:58 +0000";
layers = (
{
layerId = "9609CB55-EFEB-482C-9A6C-237B4D7F8578";
name = Bold;
paths = (
{
closed = 1;
nodes = (
"60 0 LINE",
"206 0 LINE",
"206 707 LINE",
"60 707 LINE"
);
},
{
closed = 1;
nodes = (
"379 0 LINE",
"525 0 LINE",
"525 323 LINE SMOOTH",
"525 456 OFFCURVE",
"451 512 OFFCURVE",
"358 512 CURVE SMOOTH",
"237 512 OFFCURVE",
"189 430 OFFCURVE",
"186 321 CURVE",
"206 268 LINE",
"206 380 OFFCURVE",
"269 394 OFFCURVE",
"300 394 CURVE SMOOTH",
"346 394 OFFCURVE",
"379 360 OFFCURVE",
"379 300 CURVE SMOOTH"
);
}
);
width = 580;
},
{
layerId = "DCCD84DA-95A9-4923-A49E-D7B289AC34C6";
name = Light;
paths = (
{
closed = 1;
nodes = (
"76 0 LINE",
"137 0 LINE",
"137 707 LINE",
"76 707 LINE"
);
},
{
closed = 1;
nodes = (
"398 0 LINE",
"459 0 LINE",
"459 354 LINE SMOOTH",
"459 448 OFFCURVE",
"397 515 OFFCURVE",
"298 515 CURVE SMOOTH",
"185 515 OFFCURVE",
"110 441 OFFCURVE",
"110 280 CURVE",
"137 280 LINE",
"137 394 OFFCURVE",
"212 456 OFFCURVE",
"289 456 CURVE SMOOTH",
"351 456 OFFCURVE",
"398 416 OFFCURVE",
"398 335 CURVE SMOOTH"
);
}
);
width = 529;
}
);
unicode = 0068;
},
{
glyphname = i;
lastChange = "2015-05-14 13:32:58 +0000";
layers = (
{
layerId = "9609CB55-EFEB-482C-9A6C-237B4D7F8578";
name = Bold;
paths = (
{
closed = 1;
nodes = (
"65 0 LINE",
"211 0 LINE",
"211 507 LINE",
"65 507 LINE"
);
},
{
closed = 1;
nodes = (
"53 654 CURVE SMOOTH",
"53 607 OFFCURVE",
"91 569 OFFCURVE",
"138 569 CURVE SMOOTH",
"185 569 OFFCURVE",
"223 607 OFFCURVE",
"223 654 CURVE SMOOTH",
"223 701 OFFCURVE",
"185 739 OFFCURVE",
"138 739 CURVE SMOOTH",
"91 739 OFFCURVE",
"53 701 OFFCURVE"
);
}
);
width = 276;
},
{
layerId = "DCCD84DA-95A9-4923-A49E-D7B289AC34C6";
name = Light;
paths = (
{
closed = 1;
nodes = (
"80 0 LINE",
"141 0 LINE",
"141 507 LINE",
"80 507 LINE"
);
},
{
closed = 1;
nodes = (
"68 669 CURVE SMOOTH",
"68 645 OFFCURVE",
"86 627 OFFCURVE",
"110 627 CURVE SMOOTH",
"134 627 OFFCURVE",
"153 645 OFFCURVE",
"153 669 CURVE SMOOTH",
"153 693 OFFCURVE",
"134 712 OFFCURVE",
"110 712 CURVE SMOOTH",
"86 712 OFFCURVE",
"68 693 OFFCURVE"
);
}
);
width = 221;
}
);
unicode = 0069;
},
{
glyphname = j;
lastChange = "2015-05-14 13:32:58 +0000";
layers = (
{
layerId = "9609CB55-EFEB-482C-9A6C-237B4D7F8578";
name = Bold;
paths = (
{
closed = 1;
nodes = (
"-40 -182 LINE",
"-7 -194 OFFCURVE",
"16 -198 OFFCURVE",
"39 -198 CURVE SMOOTH",
"155 -198 OFFCURVE",
"214 -125 OFFCURVE",
"214 -21 CURVE SMOOTH",
"214 507 LINE",
"69 507 LINE",
"69 -19 LINE",
"69 -68 OFFCURVE",
"47 -86 OFFCURVE",
"17 -86 CURVE SMOOTH",
"0 -86 OFFCURVE",
"-20 -80 OFFCURVE",
"-40 -71 CURVE"
);
},
{
closed = 1;
nodes = (
"56 654 CURVE SMOOTH",
"56 607 OFFCURVE",
"94 569 OFFCURVE",
"141 569 CURVE SMOOTH",
"188 569 OFFCURVE",
"226 607 OFFCURVE",
"226 654 CURVE SMOOTH",
"226 701 OFFCURVE",
"188 739 OFFCURVE",
"141 739 CURVE SMOOTH",
"94 739 OFFCURVE",
"56 701 OFFCURVE"
);
}
);
width = 274;
},
{
layerId = "DCCD84DA-95A9-4923-A49E-D7B289AC34C6";
name = Light;
paths = (
{
closed = 1;
nodes = (
"-47 -180 LINE",
"-24 -189 OFFCURVE",
"-5 -194 OFFCURVE",
"22 -194 CURVE SMOOTH",
"96 -194 OFFCURVE",
"141 -148 OFFCURVE",
"141 -64 CURVE SMOOTH",
"141 507 LINE",
"80 507 LINE",
"80 -62 LINE SMOOTH",
"80 -116 OFFCURVE",
"58 -136 OFFCURVE",
"23 -136 CURVE SMOOTH",
"1 -136 OFFCURVE",
"-23 -131 OFFCURVE",
"-47 -120 CURVE"
);
},
{
closed = 1;
nodes = (
"67 669 CURVE SMOOTH",
"67 645 OFFCURVE",
"85 627 OFFCURVE",
"109 627 CURVE SMOOTH",
"133 627 OFFCURVE",
"152 645 OFFCURVE",
"152 669 CURVE SMOOTH",
"152 693 OFFCURVE",
"133 712 OFFCURVE",
"109 712 CURVE SMOOTH",
"85 712 OFFCURVE",
"67 693 OFFCURVE"
);
}
);
width = 216;
}
);
unicode = 006A;
},
{
glyphname = k;
lastChange = "2015-05-14 13:32:58 +0000";
layers = (
{
layerId = "9609CB55-EFEB-482C-9A6C-237B4D7F8578";
name = Bold;
paths = (
{
closed = 1;
nodes = (
"195 264 LINE",
"358 264 LINE",
"534 507 LINE",
"366 507 LINE"
);
},
{
closed = 1;
nodes = (
"60 0 LINE",
"206 0 LINE",
"206 690 LINE",
"60 690 LINE"
);
},
{
closed = 1;
nodes = (
"368 0 LINE",
"537 0 LINE",
"358 264 LINE",
"196 264 LINE"
);
}
);
width = 548;
},
{
layerId = "DCCD84DA-95A9-4923-A49E-D7B289AC34C6";
name = Light;
paths = (
{
closed = 1;
nodes = (
"152 266 LINE",
"226 266 LINE",
"433 507 LINE",
"358 507 LINE"
);
},
{
closed = 1;
nodes = (
"76 0 LINE",
"137 0 LINE",
"137 707 LINE",
"76 707 LINE"
);
},
{
closed = 1;
nodes = (
"364 0 LINE",
"440 0 LINE",
"226 266 LINE",
"152 266 LINE"
);
}
);
width = 462;
}
);
unicode = 006B;
},
{
glyphname = l;
lastChange = "2015-05-14 13:32:58 +0000";
layers = (
{
layerId = "9609CB55-EFEB-482C-9A6C-237B4D7F8578";
name = Bold;
paths = (
{
closed = 1;
nodes = (
"65 0 LINE",
"211 0 LINE",
"211 707 LINE",
"65 707 LINE"
);
}
);
width = 276;
},
{
layerId = "DCCD84DA-95A9-4923-A49E-D7B289AC34C6";
name = Light;
paths = (
{
closed = 1;
nodes = (
"80 0 LINE",
"141 0 LINE",
"141 707 LINE",
"80 707 LINE"
);
}
);
width = 221;
}
);
unicode = 006C;
},
{
glyphname = m;
lastChange = "2015-05-14 13:32:58 +0000";
layers = (
{
layerId = "9609CB55-EFEB-482C-9A6C-237B4D7F8578";
name = Bold;
paths = (
{
closed = 1;
nodes = (
"60 0 LINE",
"206 0 LINE",
"206 507 LINE",
"60 507 LINE"
);
},
{
closed = 1;
nodes = (
"359 0 LINE",
"505 0 LINE",
"505 325 LINE SMOOTH",
"505 448 OFFCURVE",
"445 512 OFFCURVE",
"349 512 CURVE SMOOTH",
"244 512 OFFCURVE",
"179 431 OFFCURVE",
"186 321 CURVE",
"206 268 LINE",
"206 374 OFFCURVE",
"259 394 OFFCURVE",
"293 394 CURVE SMOOTH",
"336 394 OFFCURVE",
"359 358 OFFCURVE",
"359 301 CURVE SMOOTH"
);
},
{
closed = 1;
nodes = (
"658 0 LINE",
"804 0 LINE",
"804 325 LINE SMOOTH",
"804 450 OFFCURVE",
"740 512 OFFCURVE",
"642 512 CURVE SMOOTH",
"541 512 OFFCURVE",
"472 440 OFFCURVE",
"479 334 CURVE",
"505 268 LINE",
"505 374 OFFCURVE",
"558 394 OFFCURVE",
"592 394 CURVE SMOOTH",
"635 394 OFFCURVE",
"658 358 OFFCURVE",
"658 301 CURVE SMOOTH"
);
}
);
width = 859;
},
{
layerId = "DCCD84DA-95A9-4923-A49E-D7B289AC34C6";
name = Light;
paths = (
{
closed = 1;
nodes = (
"76 0 LINE",
"137 0 LINE",
"137 507 LINE",
"76 507 LINE"
);
},
{
closed = 1;
nodes = (
"376 0 LINE",
"437 0 LINE",
"437 354 LINE SMOOTH",
"437 447 OFFCURVE",
"392 515 OFFCURVE",
"279 515 CURVE SMOOTH",
"180 515 OFFCURVE",
"110 441 OFFCURVE",
"110 280 CURVE",
"137 280 LINE",
"137 394 OFFCURVE",
"207 456 OFFCURVE",
"270 456 CURVE SMOOTH",
"343 456 OFFCURVE",
"376 414 OFFCURVE",
"376 335 CURVE SMOOTH"
);
},
{
closed = 1;
nodes = (
"676 0 LINE",
"737 0 LINE",
"737 354 LINE SMOOTH",
"737 444 OFFCURVE",
"692 515 OFFCURVE",
"579 515 CURVE SMOOTH",
"485 515 OFFCURVE",
"403 440 OFFCURVE",
"403 280 CURVE",
"437 280 LINE",
"437 394 OFFCURVE",
"507 456 OFFCURVE",
"570 456 CURVE SMOOTH",
"643 456 OFFCURVE",
"676 414 OFFCURVE",
"676 335 CURVE SMOOTH"
);
}
);
width = 807;
}
);
unicode = 006D;
},
{
glyphname = n;
lastChange = "2015-05-14 13:32:58 +0000";
layers = (
{
layerId = "9609CB55-EFEB-482C-9A6C-237B4D7F8578";
name = Bold;
paths = (
{
closed = 1;
nodes = (
"60 0 LINE",
"206 0 LINE",
"206 507 LINE",
"60 507 LINE"
);
},
{
closed = 1;
nodes = (
"379 0 LINE",
"525 0 LINE",
"525 329 LINE SMOOTH",
"525 451 OFFCURVE",
"460 512 OFFCURVE",
"359 512 CURVE SMOOTH",
"251 512 OFFCURVE",
"189 437 OFFCURVE",
"189 339 CURVE",
"189 268 LINE",
"206 268 LINE",
"206 356 OFFCURVE",
"249 394 OFFCURVE",
"299 394 CURVE SMOOTH",
"348 394 OFFCURVE",
"379 364 OFFCURVE",
"379 302 CURVE SMOOTH"
);
}
);
width = 580;
},
{
layerId = "DCCD84DA-95A9-4923-A49E-D7B289AC34C6";
name = Light;
paths = (
{
closed = 1;
nodes = (
"76 0 LINE",
"137 0 LINE",
"137 507 LINE",
"76 507 LINE"
);
},
{
closed = 1;
nodes = (
"398 0 LINE",
"459 0 LINE",
"459 354 LINE SMOOTH",
"459 448 OFFCURVE",
"397 515 OFFCURVE",
"298 515 CURVE SMOOTH",
"190 515 OFFCURVE",
"116 447 OFFCURVE",
"110 299 CURVE",
"110 280 LINE",
"137 280 LINE",
"137 394 OFFCURVE",
"212 456 OFFCURVE",
"289 456 CURVE SMOOTH",
"351 456 OFFCURVE",
"398 416 OFFCURVE",
"398 335 CURVE SMOOTH"
);
}
);
width = 529;
}
);
unicode = 006E;
},
{
glyphname = o;
lastChange = "2015-05-14 13:32:58 +0000";
layers = (
{
layerId = "9609CB55-EFEB-482C-9A6C-237B4D7F8578";
name = Bold;
paths = (
{
closed = 1;
nodes = (
"284 -8 CURVE SMOOTH",
"445 -8 OFFCURVE",
"532 108 OFFCURVE",
"532 256 CURVE SMOOTH",
"532 400 OFFCURVE",
"448 515 OFFCURVE",
"284 515 CURVE SMOOTH",
"130 515 OFFCURVE",
"35 400 OFFCURVE",
"35 247 CURVE SMOOTH",
"35 105 OFFCURVE",
"119 -8 OFFCURVE"
);
},
{
closed = 1;
nodes = (
"283 400 CURVE SMOOTH",
"356 400 OFFCURVE",
"380 332 OFFCURVE",
"380 251 CURVE SMOOTH",
"380 170 OFFCURVE",
"353 105 OFFCURVE",
"285 105 CURVE SMOOTH",
"217 105 OFFCURVE",
"187 172 OFFCURVE",
"187 253 CURVE SMOOTH",
"187 334 OFFCURVE",
"216 400 OFFCURVE"
);
}
);
width = 567;
},
{
layerId = "DCCD84DA-95A9-4923-A49E-D7B289AC34C6";
name = Light;
paths = (
{
closed = 1;
nodes = (
"278 -9 CURVE SMOOTH",
"430 -9 OFFCURVE",
"516 106 OFFCURVE",
"516 251 CURVE SMOOTH",
"516 396 OFFCURVE",
"435 514 OFFCURVE",
"278 514 CURVE SMOOTH",
"138 514 OFFCURVE",
"45 396 OFFCURVE",
"45 251 CURVE SMOOTH",
"45 106 OFFCURVE",
"132 -9 OFFCURVE"
);
},
{
closed = 1;
nodes = (
"278 456 CURVE SMOOTH",
"403 456 OFFCURVE",
"452 358 OFFCURVE",
"452 251 CURVE SMOOTH",
"452 144 OFFCURVE",
"394 49 OFFCURVE",
"278 49 CURVE SMOOTH",
"174 49 OFFCURVE",
"109 144 OFFCURVE",
"109 251 CURVE SMOOTH",
"109 358 OFFCURVE",
"168 456 OFFCURVE"
);
}
);
width = 561;
}
);
unicode = 006F;
},
{
glyphname = p;
lastChange = "2015-05-14 13:32:58 +0000";
layers = (
{
layerId = "9609CB55-EFEB-482C-9A6C-237B4D7F8578";
name = Bold;
paths = (
{
closed = 1;
nodes = (
"60 -187 LINE",
"206 -187 LINE",
"206 507 LINE",
"60 507 LINE"
);
},
{
closed = 1;
nodes = (
"206 259 CURVE",
"206 349 OFFCURVE",
"264 392 OFFCURVE",
"320 392 CURVE SMOOTH",
"379 392 OFFCURVE",
"428 348 OFFCURVE",
"428 252 CURVE SMOOTH",
"428 166 OFFCURVE",
"383 116 OFFCURVE",
"320 116 CURVE SMOOTH",
"254 116 OFFCURVE",
"206 171 OFFCURVE"
);
},
{
closed = 1;
nodes = (
"165 258 CURVE",
"165 66 OFFCURVE",
"250 -6 OFFCURVE",
"359 -6 CURVE SMOOTH",
"500 -6 OFFCURVE",
"576 111 OFFCURVE",
"576 255 CURVE SMOOTH",
"576 415 OFFCURVE",
"489 513 OFFCURVE",
"359 513 CURVE SMOOTH",
"252 513 OFFCURVE",
"165 433 OFFCURVE"
);
}
);
width = 611;
},
{
layerId = "DCCD84DA-95A9-4923-A49E-D7B289AC34C6";
name = Light;
paths = (
{
closed = 1;
nodes = (
"76 -200 LINE",
"137 -200 LINE",
"137 507 LINE",
"76 507 LINE"
);
},
{
closed = 1;
nodes = (
"137 251 CURVE SMOOTH",
"137 413 OFFCURVE",
"223 457 OFFCURVE",
"296 457 CURVE SMOOTH",
"382 457 OFFCURVE",
"446 377 OFFCURVE",
"446 260 CURVE SMOOTH",
"446 119 OFFCURVE",
"376 50 OFFCURVE",
"290 50 CURVE SMOOTH",
"232 50 OFFCURVE",
"137 93 OFFCURVE"
);
},
{
closed = 1;
nodes = (
"91 251 CURVE SMOOTH",
"91 110 OFFCURVE",
"161 -8 OFFCURVE",
"292 -8 CURVE SMOOTH",
"420 -8 OFFCURVE",
"510 102 OFFCURVE",
"510 259 CURVE SMOOTH",
"510 394 OFFCURVE",
"436 515 OFFCURVE",
"294 515 CURVE SMOOTH",
"135 515 OFFCURVE",
"91 366 OFFCURVE"
);
}
);
width = 555;
}
);
unicode = 0070;
},
{
glyphname = q;
lastChange = "2015-05-14 13:32:58 +0000";
layers = (
{
layerId = "9609CB55-EFEB-482C-9A6C-237B4D7F8578";
name = Bold;
paths = (
{
closed = 1;
nodes = (
"551 507 LINE",
"405 507 LINE",
"405 -187 LINE",
"551 -187 LINE"
);
},
{
closed = 1;
nodes = (
"405 259 CURVE SMOOTH",
"405 171 OFFCURVE",
"359 116 OFFCURVE",
"293 116 CURVE SMOOTH",
"233 116 OFFCURVE",
"183 168 OFFCURVE",
"183 252 CURVE SMOOTH",
"183 344 OFFCURVE",
"234 392 OFFCURVE",
"292 392 CURVE SMOOTH",
"348 392 OFFCURVE",
"405 349 OFFCURVE"
);
},
{
closed = 1;
nodes = (
"446 258 CURVE SMOOTH",
"446 434 OFFCURVE",
"358 513 OFFCURVE",
"254 513 CURVE SMOOTH",
"124 513 OFFCURVE",
"35 415 OFFCURVE",
"35 255 CURVE SMOOTH",
"35 111 OFFCURVE",
"112 -6 OFFCURVE",
"253 -6 CURVE SMOOTH",
"354 -6 OFFCURVE",
"446 66 OFFCURVE"
);
}
);
width = 611;
},
{
layerId = "DCCD84DA-95A9-4923-A49E-D7B289AC34C6";
name = Light;
paths = (
{
closed = 1;
nodes = (
"479 507 LINE",
"418 507 LINE",
"418 -200 LINE",
"479 -200 LINE"
);
},
{
closed = 1;
nodes = (
"418 251 CURVE SMOOTH",
"418 93 OFFCURVE",
"323 50 OFFCURVE",
"265 50 CURVE SMOOTH",
"179 50 OFFCURVE",
"109 119 OFFCURVE",
"109 260 CURVE SMOOTH",
"109 377 OFFCURVE",
"173 457 OFFCURVE",
"259 457 CURVE SMOOTH",
"332 457 OFFCURVE",
"418 413 OFFCURVE"
);
},
{
closed = 1;
nodes = (
"464 251 CURVE SMOOTH",
"464 366 OFFCURVE",
"420 515 OFFCURVE",
"261 515 CURVE SMOOTH",
"119 515 OFFCURVE",
"45 394 OFFCURVE",
"45 259 CURVE SMOOTH",
"45 102 OFFCURVE",
"135 -8 OFFCURVE",
"263 -8 CURVE SMOOTH",
"394 -8 OFFCURVE",
"464 110 OFFCURVE"
);
}
);
width = 555;
}
);
unicode = 0071;
},
{
glyphname = r;
lastChange = "2015-05-14 13:32:58 +0000";
layers = (
{
layerId = "9609CB55-EFEB-482C-9A6C-237B4D7F8578";
name = Bold;
paths = (
{
closed = 1;
nodes = (
"59 0 LINE",
"205 0 LINE",
"205 507 LINE",
"60 507 LINE"
);
},
{
closed = 1;
nodes = (
"365 506 LINE",
"351 510 OFFCURVE",
"340 510 OFFCURVE",
"327 510 CURVE SMOOTH",
"246 510 OFFCURVE",
"193 436 OFFCURVE",
"196 346 CURVE",
"205 253 LINE",
"205 330 OFFCURVE",
"247 379 OFFCURVE",
"310 379 CURVE SMOOTH",
"327 379 OFFCURVE",
"345 377 OFFCURVE",
"365 368 CURVE"
);
}
);
width = 370;
},
{
layerId = "DCCD84DA-95A9-4923-A49E-D7B289AC34C6";
name = Light;
paths = (
{
closed = 1;
nodes = (
"76 0 LINE",
"137 0 LINE",
"137 507 LINE",
"76 507 LINE"
);
},
{
closed = 1;
nodes = (
"304 511 LINE",
"295 512 OFFCURVE",
"287 513 OFFCURVE",
"279 513 CURVE SMOOTH",
"154 513 OFFCURVE",
"114 406 OFFCURVE",
"110 280 CURVE",
"137 283 LINE",
"137 365 OFFCURVE",
"188 455 OFFCURVE",
"264 455 CURVE SMOOTH",
"279 455 OFFCURVE",
"291 453 OFFCURVE",
"304 449 CURVE"
);
}
);
width = 314;
}
);
unicode = 0072;
},
{
glyphname = s;
lastChange = "2015-05-14 13:32:58 +0000";
layers = (
{
layerId = "9609CB55-EFEB-482C-9A6C-237B4D7F8578";
name = Bold;
paths = (
{
closed = 1;
nodes = (
"380 492 LINE",
"345 506 OFFCURVE",
"297 513 OFFCURVE",
"250 513 CURVE SMOOTH",
"143 513 OFFCURVE",
"53 459 OFFCURVE",
"53 357 CURVE SMOOTH",
"53 277 OFFCURVE",
"103 237 OFFCURVE",
"154 213 CURVE SMOOTH",
"204 190 OFFCURVE",
"256 176 OFFCURVE",
"256 144 CURVE SMOOTH",
"256 121 OFFCURVE",
"235 109 OFFCURVE",
"201 109 CURVE SMOOTH",
"143 109 OFFCURVE",
"88 134 OFFCURVE",
"55 157 CURVE",
"55 27 LINE",
"89 10 OFFCURVE",
"146 -4 OFFCURVE",
"209 -4 CURVE SMOOTH",
"324 -4 OFFCURVE",
"406 50 OFFCURVE",
"406 153 CURVE SMOOTH",
"406 226 OFFCURVE",
"354 263 OFFCURVE",
"304 289 CURVE SMOOTH",
"253 315 OFFCURVE",
"202 329 OFFCURVE",
"202 361 CURVE SMOOTH",
"202 382 OFFCURVE",
"220 398 OFFCURVE",
"256 398 CURVE SMOOTH",
"303 398 OFFCURVE",
"349 385 OFFCURVE",
"380 367 CURVE"
);
}
);
width = 436;
},
{
layerId = "DCCD84DA-95A9-4923-A49E-D7B289AC34C6";
name = Light;
paths = (
{
closed = 1;
nodes = (
"341 489 LINE",
"320 500 OFFCURVE",
"275 512 OFFCURVE",
"215 512 CURVE SMOOTH",
"127 512 OFFCURVE",
"57 462 OFFCURVE",
"57 378 CURVE SMOOTH",
"57 295 OFFCURVE",
"126 259 OFFCURVE",
"190 234 CURVE SMOOTH",
"264 205 OFFCURVE",
"308 182 OFFCURVE",
"308 125 CURVE SMOOTH",
"308 82 OFFCURVE",
"275 49 OFFCURVE",
"204 49 CURVE SMOOTH",
"157 49 OFFCURVE",
"104 62 OFFCURVE",
"60 87 CURVE",
"60 24 LINE",
"90 8 OFFCURVE",
"147 -6 OFFCURVE",
"208 -6 CURVE SMOOTH",
"310 -6 OFFCURVE",
"371 47 OFFCURVE",
"371 130 CURVE SMOOTH",
"371 214 OFFCURVE",
"302 251 OFFCURVE",
"226 282 CURVE SMOOTH",
"170 305 OFFCURVE",
"119 325 OFFCURVE",
"119 381 CURVE SMOOTH",
"119 424 OFFCURVE",
"155 455 OFFCURVE",
"214 455 CURVE SMOOTH",
"264 455 OFFCURVE",
"313 444 OFFCURVE",
"341 428 CURVE"
);
}
);
width = 406;
}
);
unicode = 0073;
},
{
glyphname = t;
lastChange = "2015-05-15 05:52:01 +0000";
layers = (
{
layerId = "9609CB55-EFEB-482C-9A6C-237B4D7F8578";
name = Bold;
paths = (
{
closed = 1;
nodes = (
"83 168 LINE",
"83 56 OFFCURVE",
"140 -5 OFFCURVE",
"256 -5 CURVE SMOOTH",
"284 -5 OFFCURVE",
"328 -1 OFFCURVE",
"356 11 CURVE",
"356 132 LINE",
"334 118 OFFCURVE",
"308 112 OFFCURVE",
"285 112 CURVE SMOOTH",
"254 112 OFFCURVE",
"229 129 OFFCURVE",
"229 167 CURVE SMOOTH",
"229 627 LINE",
"83 627 LINE"
);
},
{
closed = 1;
nodes = (
"10 400 LINE",
"347 400 LINE",
"347 507 LINE",
"10 507 LINE"
);
}
);
width = 386;
},
{
layerId = "DCCD84DA-95A9-4923-A49E-D7B289AC34C6";
name = Light;
paths = (
{
closed = 1;
nodes = (
"108 143 LINE",
"108 50 OFFCURVE",
"149 -5 OFFCURVE",
"252 -5 CURVE SMOOTH",
"271 -5 OFFCURVE",
"302 3 OFFCURVE",
"319 14 CURVE",
"319 76 LINE",
"303 63 OFFCURVE",
"276 53 OFFCURVE",
"251 53 CURVE SMOOTH",
"194 53 OFFCURVE",
"170 84 OFFCURVE",
"170 140 CURVE SMOOTH",
"170 634 LINE",
"108 634 LINE"
);
},
{
closed = 1;
nodes = (
"25 455 LINE",
"315 455 LINE",
"315 507 LINE",
"25 507 LINE"
);
}
);
width = 364;
}
);
unicode = 0074;
},
{
glyphname = u;
lastChange = "2015-05-14 13:32:58 +0000";
layers = (
{
layerId = "9609CB55-EFEB-482C-9A6C-237B4D7F8578";
name = Bold;
paths = (
{
closed = 1;
nodes = (
"520 507 LINE",
"374 507 LINE",
"374 0 LINE",
"520 0 LINE"
);
},
{
closed = 1;
nodes = (
"201 507 LINE",
"55 507 LINE",
"55 168 LINE SMOOTH",
"55 53 OFFCURVE",
"118 -4 OFFCURVE",
"220 -4 CURVE SMOOTH",
"335 -4 OFFCURVE",
"396 68 OFFCURVE",
"391 177 CURVE",
"374 239 LINE",
"374 143 OFFCURVE",
"335 112 OFFCURVE",
"279 112 CURVE SMOOTH",
"230 112 OFFCURVE",
"201 142 OFFCURVE",
"201 201 CURVE SMOOTH"
);
}
);
width = 580;
},
{
layerId = "DCCD84DA-95A9-4923-A49E-D7B289AC34C6";
name = Light;
paths = (
{
closed = 1;
nodes = (
"453 507 LINE",
"392 507 LINE",
"392 0 LINE",
"453 0 LINE"
);
},
{
closed = 1;
nodes = (
"131 507 LINE",
"70 507 LINE",
"70 155 LINE SMOOTH",
"70 59 OFFCURVE",
"132 -7 OFFCURVE",
"231 -7 CURVE SMOOTH",
"339 -7 OFFCURVE",
"411 53 OFFCURVE",
"411 206 CURVE",
"392 225 LINE",
"392 123 OFFCURVE",
"332 52 OFFCURVE",
"242 52 CURVE SMOOTH",
"177 52 OFFCURVE",
"131 92 OFFCURVE",
"131 172 CURVE SMOOTH"
);
}
);
width = 529;
}
);
unicode = 0075;
},
{
glyphname = v;
lastChange = "2015-05-14 13:32:58 +0000";
layers = (
{
layerId = "9609CB55-EFEB-482C-9A6C-237B4D7F8578";
name = Bold;
paths = (
{
closed = 1;
nodes = (
"5 507 LINE",
"158 507 LINE",
"224 291 LINE SMOOTH",
"258 178 OFFCURVE",
"268 113 OFFCURVE",
"268 113 CURVE",
"268 113 OFFCURVE",
"277 178 OFFCURVE",
"313 291 CURVE SMOOTH",
"381 507 LINE",
"531 507 LINE",
"342 0 LINE",
"192 0 LINE"
);
}
);
width = 536;
},
{
layerId = "DCCD84DA-95A9-4923-A49E-D7B289AC34C6";
name = Light;
paths = (
{
closed = 1;
nodes = (
"30 507 LINE",
"94 507 LINE",
"165 294 LINE SMOOTH",
"234 86 OFFCURVE",
"246 49 OFFCURVE",
"246 49 CURVE",
"246 49 OFFCURVE",
"256 86 OFFCURVE",
"329 294 CURVE SMOOTH",
"403 507 LINE",
"467 507 LINE",
"287 0 LINE",
"205 0 LINE"
);
}
);
width = 497;
}
);
unicode = 0076;
},
{
glyphname = w;
lastChange = "2015-05-14 13:32:58 +0000";
layers = (
{
layerId = "9609CB55-EFEB-482C-9A6C-237B4D7F8578";
name = Bold;
paths = (
{
closed = 1;
nodes = (
"5 507 LINE",
"156 507 LINE",
"200 340 LINE SMOOTH",
"237 198 OFFCURVE",
"243 138 OFFCURVE",
"243 138 CURVE",
"243 138 OFFCURVE",
"250 198 OFFCURVE",
"292 340 CURVE SMOOTH",
"341 507 LINE",
"467 507 LINE",
"515 340 LINE SMOOTH",
"556 197 OFFCURVE",
"563 138 OFFCURVE",
"563 138 CURVE",
"563 138 OFFCURVE",
"570 197 OFFCURVE",
"610 340 CURVE SMOOTH",
"657 507 LINE",
"801 507 LINE",
"639 0 LINE",
"489 0 LINE",
"445 166 LINE SMOOTH",
"413 287 OFFCURVE",
"404 354 OFFCURVE",
"404 354 CURVE",
"404 354 OFFCURVE",
"394 287 OFFCURVE",
"362 166 CURVE SMOOTH",
"318 0 LINE",
"168 0 LINE"
);
}
);
width = 806;
},
{
layerId = "DCCD84DA-95A9-4923-A49E-D7B289AC34C6";
name = Light;
paths = (
{
closed = 1;
nodes = (
"30 507 LINE",
"97 507 LINE",
"147 339 LINE SMOOTH",
"211 127 OFFCURVE",
"225 61 OFFCURVE",
"225 61 CURVE",
"225 61 OFFCURVE",
"243 126 OFFCURVE",
"305 340 CURVE SMOOTH",
"353 507 LINE",
"425 507 LINE",
"475 340 LINE SMOOTH",
"541 118 OFFCURVE",
"557 59 OFFCURVE",
"557 59 CURVE",
"557 59 OFFCURVE",
"573 118 OFFCURVE",
"642 340 CURVE SMOOTH",
"694 507 LINE",
"758 507 LINE",
"598 0 LINE",
"516 0 LINE",
"467 166 LINE SMOOTH",
"406 374 OFFCURVE",
"389 436 OFFCURVE",
"389 436 CURVE",
"389 436 OFFCURVE",
"372 373 OFFCURVE",
"314 166 CURVE SMOOTH",
"267 0 LINE",
"185 0 LINE"
);
}
);
width = 788;
}
);
unicode = 0077;
},
{
glyphname = x;
lastChange = "2015-05-14 13:32:58 +0000";
layers = (
{
layerId = "9609CB55-EFEB-482C-9A6C-237B4D7F8578";
name = Bold;
paths = (
{
closed = 1;
nodes = (
"509 0 LINE",
"350 0 LINE",
"265 152 LINE",
"174 0 LINE",
"16 0 LINE",
"197 254 LINE",
"27 507 LINE",
"189 507 LINE",
"271 356 LINE",
"362 507 LINE",
"522 507 LINE",
"340 253 LINE"
);
}
);
width = 526;
},
{
layerId = "DCCD84DA-95A9-4923-A49E-D7B289AC34C6";
name = Light;
paths = (
{
closed = 1;
nodes = (
"438 0 LINE",
"365 0 LINE",
"232 213 LINE",
"96 0 LINE",
"27 0 LINE",
"194 261 LINE",
"37 508 LINE",
"109 508 LINE",
"233 308 LINE",
"356 508 LINE",
"427 508 LINE",
"268 260 LINE"
);
}
);
width = 465;
}
);
unicode = 0078;
},
{
glyphname = y;
lastChange = "2015-05-14 13:32:58 +0000";
layers = (
{
layerId = "9609CB55-EFEB-482C-9A6C-237B4D7F8578";
name = Bold;
paths = (
{
closed = 1;
nodes = (
"5 507 LINE",
"164 507 LINE",
"219 349 LINE SMOOTH",
"267 212 OFFCURVE",
"273 172 OFFCURVE",
"273 172 CURVE SMOOTH",
"273 172 OFFCURVE",
"284 212 OFFCURVE",
"327 349 CURVE SMOOTH",
"377 507 LINE",
"527 507 LINE",
"344 15 LINE SMOOTH",
"290 -130 OFFCURVE",
"209 -198 OFFCURVE",
"103 -198 CURVE SMOOTH",
"78 -198 OFFCURVE",
"67 -197 OFFCURVE",
"47 -193 CURVE",
"47 -77 LINE",
"59 -80 OFFCURVE",
"70 -81 OFFCURVE",
"81 -81 CURVE SMOOTH",
"141 -81 OFFCURVE",
"176 -52 OFFCURVE",
"201 8 CURVE"
);
}
);
width = 532;
},
{
layerId = "DCCD84DA-95A9-4923-A49E-D7B289AC34C6";
name = Light;
paths = (
{
closed = 1;
nodes = (
"9 507 LINE",
"79 507 LINE",
"148 337 LINE SMOOTH",
"237 116 OFFCURVE",
"246 93 OFFCURVE",
"246 93 CURVE",
"246 93 OFFCURVE",
"253 116 OFFCURVE",
"333 337 CURVE SMOOTH",
"395 507 LINE",
"463 507 LINE",
"279 13 LINE SMOOTH",
"224 -135 OFFCURVE",
"148 -168 OFFCURVE",
"71 -168 CURVE SMOOTH",
"60 -168 OFFCURVE",
"44 -166 OFFCURVE",
"33 -163 CURVE",
"33 -103 LINE",
"44 -106 OFFCURVE",
"57 -108 OFFCURVE",
"67 -108 CURVE SMOOTH",
"135 -108 OFFCURVE",
"188 -67 OFFCURVE",
"216 14 CURVE"
);
}
);
width = 482;
}
);
unicode = 0079;
},
{
glyphname = z;
lastChange = "2015-05-14 13:32:58 +0000";
layers = (
{
layerId = "9609CB55-EFEB-482C-9A6C-237B4D7F8578";
name = Bold;
paths = (
{
closed = 1;
nodes = (
"427 507 LINE",
"49 507 LINE",
"49 395 LINE",
"262 395 LINE",
"40 105 LINE",
"40 0 LINE",
"439 0 LINE",
"439 113 LINE",
"205 113 LINE",
"427 406 LINE"
);
}
);
width = 479;
},
{
layerId = "DCCD84DA-95A9-4923-A49E-D7B289AC34C6";
name = Light;
paths = (
{
closed = 1;
nodes = (
"387 507 LINE",
"55 507 LINE",
"55 448 LINE",
"311 448 LINE",
"45 51 LINE",
"45 0 LINE",
"401 0 LINE",
"401 60 LINE",
"117 60 LINE",
"387 461 LINE"
);
}
);
width = 446;
}
);
unicode = 007A;
},
{
glyphname = Aogonek;
lastChange = "2015-05-14 13:32:58 +0000";
layers = (
{
layerId = "9609CB55-EFEB-482C-9A6C-237B4D7F8578";
name = Bold;
paths = (
{
closed = 1;
nodes = (
"18 0 LINE",
"179 0 LINE",
"264 286 LINE SMOOTH",
"330 507 OFFCURVE",
"338 562 OFFCURVE",
"338 562 CURVE",
"338 562 OFFCURVE",
"346 507 OFFCURVE",
"412 286 CURVE SMOOTH",
"497 0 LINE",
"662 0 LINE",
"437 674 LINE",
"243 674 LINE"
);
},
{
closed = 1;
nodes = (
"194 138 LINE",
"509 138 LINE",
"509 262 LINE",
"194 262 LINE"
);
},
{
closed = 1;
nodes = (
"674 -235 CURVE",
"674 -134 LINE",
"651 -150 OFFCURVE",
"623 -164 OFFCURVE",
"587 -164 CURVE SMOOTH",
"560 -164 OFFCURVE",
"544 -152 OFFCURVE",
"544 -130 CURVE SMOOTH",
"544 -86 OFFCURVE",
"604 -36 OFFCURVE",
"662 0 CURVE",
"596 64 LINE",
"538 39 OFFCURVE",
"428 -31 OFFCURVE",
"428 -143 CURVE SMOOTH",
"428 -206 OFFCURVE",
"466 -260 OFFCURVE",
"565 -260 CURVE SMOOTH",
"611 -260 OFFCURVE",
"645 -250 OFFCURVE"
);
}
);
width = 680;
},
{
layerId = "DCCD84DA-95A9-4923-A49E-D7B289AC34C6";
name = Light;
paths = (
{
closed = 1;
nodes = (
"38 0 LINE",
"105 0 LINE",
"204 284 LINE SMOOTH",
"308 583 OFFCURVE",
"321 622 OFFCURVE",
"321 622 CURVE",
"321 622 OFFCURVE",
"333 583 OFFCURVE",
"435 285 CURVE SMOOTH",
"532 0 LINE",
"599 0 LINE",
"366 674 LINE",
"276 674 LINE"
);
},
{
closed = 1;
nodes = (
"135 187 LINE",
"496 187 LINE",
"496 242 LINE",
"135 242 LINE"
);
},
{
closed = 1;
nodes = (
"622 -219 CURVE",
"622 -169 LINE",
"607 -180 OFFCURVE",
"580 -189 OFFCURVE",
"558 -189 CURVE SMOOTH",
"516 -189 OFFCURVE",
"488 -167 OFFCURVE",
"488 -124 CURVE SMOOTH",
"488 -70 OFFCURVE",
"537 -28 OFFCURVE",
"599 0 CURVE",
"573 31 LINE",
"501 7 OFFCURVE",
"432 -54 OFFCURVE",
"432 -129 CURVE SMOOTH",
"432 -190 OFFCURVE",
"475 -237 OFFCURVE",
"551 -237 CURVE SMOOTH",
"575 -237 OFFCURVE",
"602 -232 OFFCURVE"
);
}
);
width = 637;
}
);
unicode = 0104;
},
{
glyphname = AE;
lastChange = "2015-05-14 13:32:58 +0000";
layers = (
{
layerId = "9609CB55-EFEB-482C-9A6C-237B4D7F8578";
name = Bold;
paths = (
{
closed = 1;
nodes = (
"8 0 LINE",
"169 0 LINE",
"313 286 LINE",
"402 462 OFFCURVE",
"471 609 OFFCURVE",
"487 674 CURVE",
"333 674 LINE"
);
},
{
closed = 1;
nodes = (
"214 138 LINE",
"529 138 LINE",
"529 262 LINE",
"214 262 LINE"
);
},
{
closed = 1;
nodes = (
"519 0 LINE",
"880 0 LINE",
"880 123 LINE",
"519 123 LINE"
);
},
{
closed = 1;
nodes = (
"467 0 LINE",
"616 0 LINE",
"616 674 LINE",
"467 674 LINE"
);
},
{
closed = 1;
nodes = (
"519 276 LINE",
"848 276 LINE",
"848 398 LINE",
"519 398 LINE"
);
},
{
closed = 1;
nodes = (
"519 551 LINE",
"876 551 LINE",
"876 674 LINE",
"519 674 LINE"
);
}
);
width = 940;
},
{
layerId = "DCCD84DA-95A9-4923-A49E-D7B289AC34C6";
name = Light;
paths = (
{
closed = 1;
nodes = (
"27 0 LINE",
"94 0 LINE",
"263 284 LINE SMOOTH",
"421 550 OFFCURVE",
"487 674 OFFCURVE",
"487 674 CURVE",
"425 674 LINE"
);
},
{
closed = 1;
nodes = (
"185 187 LINE",
"483 187 LINE",
"483 242 LINE",
"185 242 LINE"
);
},
{
closed = 1;
nodes = (
"461 0 LINE",
"818 0 LINE",
"818 57 LINE",
"461 57 LINE"
);
},
{
closed = 1;
nodes = (
"453 0 LINE",
"515 0 LINE",
"515 674 LINE",
"453 674 LINE"
);
},
{
closed = 1;
nodes = (
"461 308 LINE",
"777 308 LINE",
"777 365 LINE",
"461 365 LINE"
);
},
{
closed = 1;
nodes = (
"461 617 LINE",
"812 617 LINE",
"812 674 LINE",
"461 674 LINE"
);
}
);
width = 863;
}
);
unicode = 00C6;
},
{
glyphname = Eth;
lastChange = "2015-05-14 13:32:58 +0000";
layers = (
{
layerId = "9609CB55-EFEB-482C-9A6C-237B4D7F8578";
name = Bold;
paths = (
{
closed = 1;
nodes = (
"131 0 LINE",
"289 0 LINE",
"289 674 LINE",
"131 674 LINE"
);
},
{
closed = 1;
nodes = (
"361 0 LINE",
"568 0 OFFCURVE",
"709 130 OFFCURVE",
"709 348 CURVE SMOOTH",
"709 530 OFFCURVE",
"569 674 OFFCURVE",
"363 674 CURVE SMOOTH",
"131 674 LINE",
"131 547 LINE",
"358 547 LINE SMOOTH",
"485 547 OFFCURVE",
"553 464 OFFCURVE",
"553 348 CURVE SMOOTH",
"553 207 OFFCURVE",
"484 126 OFFCURVE",
"359 126 CURVE SMOOTH",
"131 126 LINE",
"131 0 LINE"
);
},
{
closed = 1;
nodes = (
"427 269 LINE",
"427 393 LINE",
"65 393 LINE",
"65 269 LINE"
);
}
);
width = 749;
},
{
layerId = "DCCD84DA-95A9-4923-A49E-D7B289AC34C6";
name = Light;
paths = (
{
closed = 1;
nodes = (
"150 0 LINE",
"212 0 LINE",
"212 674 LINE",
"150 674 LINE"
);
},
{
closed = 1;
nodes = (
"347 0 LINE",
"573 0 OFFCURVE",
"680 166 OFFCURVE",
"680 341 CURVE SMOOTH",
"680 541 OFFCURVE",
"538 674 OFFCURVE",
"342 674 CURVE SMOOTH",
"150 674 LINE",
"150 617 LINE",
"342 617 LINE SMOOTH",
"506 617 OFFCURVE",
"615 491 OFFCURVE",
"615 341 CURVE SMOOTH",
"615 198 OFFCURVE",
"537 57 OFFCURVE",
"347 57 CURVE SMOOTH",
"150 57 LINE",
"150 0 LINE"
);
},
{
closed = 1;
nodes = (
"396 313 LINE",
"396 366 LINE",
"60 366 LINE",
"60 313 LINE"
);
}
);
width = 725;
}
);
unicode = 00D0;
},
{
glyphname = Gcommaaccent;
lastChange = "2015-05-14 13:32:58 +0000";
layers = (
{
layerId = "9609CB55-EFEB-482C-9A6C-237B4D7F8578";
name = Bold;
paths = (
{
closed = 1;
nodes = (
"610 490 LINE",
"530 536 OFFCURVE",
"463 545 OFFCURVE",
"413 545 CURVE SMOOTH",
"286 545 OFFCURVE",
"206 463 OFFCURVE",
"206 338 CURVE SMOOTH",
"206 212 OFFCURVE",
"283 131 OFFCURVE",
"411 131 CURVE SMOOTH",
"520 131 OFFCURVE",
"603 193 OFFCURVE",
"646 235 CURVE",
"646 62 LINE",
"602 30 OFFCURVE",
"522 -8 OFFCURVE",
"404 -8 CURVE SMOOTH",
"191 -8 OFFCURVE",
"40 122 OFFCURVE",
"40 338 CURVE SMOOTH",
"40 553 OFFCURVE",
"201 686 OFFCURVE",
"413 686 CURVE SMOOTH",
"475 686 OFFCURVE",
"545 677 OFFCURVE",
"610 644 CURVE"
);
},
{
closed = 1;
nodes = (
"496 402 LINE",
"646 402 LINE",
"646 77 LINE",
"496 37 LINE"
);
},
{
closed = 1;
nodes = (
"387 402 LINE",
"646 402 LINE",
"646 271 LINE",
"387 271 LINE"
);
},
{
closed = 1;
nodes = (
"229 -262 LINE",
"335 -262 LINE",
"451 -51 LINE",
"300 -51 LINE"
);
}
);
width = 706;
},
{
layerId = "DCCD84DA-95A9-4923-A49E-D7B289AC34C6";
name = Light;
paths = (
{
closed = 1;
nodes = (
"569 570 LINE",
"516 607 OFFCURVE",
"445 624 OFFCURVE",
"381 624 CURVE SMOOTH",
"225 624 OFFCURVE",
"114 512 OFFCURVE",
"114 338 CURVE SMOOTH",
"114 160 OFFCURVE",
"219 54 OFFCURVE",
"392 54 CURVE SMOOTH",
"478 54 OFFCURVE",
"533 84 OFFCURVE",
"561 104 CURVE",
"591 50 LINE",
"542 14 OFFCURVE",
"466 -8 OFFCURVE",
"391 -8 CURVE SMOOTH",
"189 -8 OFFCURVE",
"50 121 OFFCURVE",
"50 338 CURVE SMOOTH",
"50 541 OFFCURVE",
"187 686 OFFCURVE",
"373 686 CURVE SMOOTH",
"439 686 OFFCURVE",
"513 673 OFFCURVE",
"569 639 CURVE"
);
},
{
closed = 1;
nodes = (
"529 371 LINE",
"591 371 LINE",
"591 50 LINE",
"529 35 LINE"
);
},
{
closed = 1;
nodes = (
"370 371 LINE",
"591 371 LINE",
"591 316 LINE",
"370 316 LINE"
);
},
{
closed = 1;
nodes = (
"249 -238 LINE",
"303 -238 LINE",
"413 -51 LINE",
"337 -51 LINE"
);
}
);
width = 661;
}
);
unicode = 0122;
},
{
glyphname = Kcommaaccent;
lastChange = "2015-05-14 13:32:58 +0000";
layers = (
{
layerId = "9609CB55-EFEB-482C-9A6C-237B4D7F8578";
name = Bold;
paths = (
{
closed = 1;
nodes = (
"189 -262 LINE",
"295 -262 LINE",
"411 -51 LINE",
"260 -51 LINE"
);
},
{
closed = 1;
nodes = (
"65 0 LINE",
"219 0 LINE",
"219 674 LINE",
"65 674 LINE"
);
},
{
closed = 1;
nodes = (
"226 335 LINE",
"452 0 LINE",
"645 0 LINE",
"406 337 LINE"
);
},
{
closed = 1;
nodes = (
"406 337 LINE",
"627 674 LINE",
"444 674 LINE",
"226 335 LINE"
);
}
);
width = 662;
},
{
layerId = "DCCD84DA-95A9-4923-A49E-D7B289AC34C6";
name = Light;
paths = (
{
closed = 1;
nodes = (
"159 -238 LINE",
"213 -238 LINE",
"323 -51 LINE",
"247 -51 LINE"
);
},
{
closed = 1;
nodes = (
"80 0 LINE",
"142 0 LINE",
"142 674 LINE",
"80 674 LINE"
);
},
{
closed = 1;
nodes = (
"160 332 LINE",
"437 0 LINE",
"519 0 LINE",
"239 332 LINE"
);
},
{
closed = 1;
nodes = (
"239 332 LINE",
"505 674 LINE",
"427 674 LINE",
"160 332 LINE"
);
}
);
width = 549;
}
);
unicode = 0136;
},
{
glyphname = Lcaron;
lastChange = "2015-05-14 13:32:58 +0000";
layers = (
{
layerId = "9609CB55-EFEB-482C-9A6C-237B4D7F8578";
name = Bold;
paths = (
{
closed = 1;
nodes = (
"65 674 LINE",
"219 674 LINE",
"219 0 LINE",
"65 0 LINE"
);
},
{
closed = 1;
nodes = (
"123 135 LINE",
"468 135 LINE",
"468 0 LINE",
"123 0 LINE"
);
},
{
closed = 1;
nodes = (
"279 488 LINE",
"385 488 LINE",
"501 699 LINE",
"350 699 LINE"
);
}
);
width = 488;
},
{
layerId = "DCCD84DA-95A9-4923-A49E-D7B289AC34C6";
name = Light;
paths = (
{
closed = 1;
nodes = (
"80 674 LINE",
"142 674 LINE",
"142 0 LINE",
"80 0 LINE"
);
},
{
closed = 1;
nodes = (
"88 57 LINE",
"439 57 LINE",
"439 0 LINE",
"88 0 LINE"
);
},
{
closed = 1;
nodes = (
"240 515 LINE",
"294 515 LINE",
"404 702 LINE",
"328 702 LINE"
);
}
);
width = 474;
}
);
unicode = 013D;
},
{
glyphname = Lcommaaccent;
lastChange = "2015-05-14 13:32:58 +0000";
layers = (
{
layerId = "9609CB55-EFEB-482C-9A6C-237B4D7F8578";
name = Bold;
paths = (
{
closed = 1;
nodes = (
"65 674 LINE",
"65 0 LINE",
"219 0 LINE",
"219 674 LINE"
);
},
{
closed = 1;
nodes = (
"123 135 LINE",
"123 0 LINE",
"468 0 LINE",
"468 135 LINE"
);
},
{
closed = 1;
nodes = (
"139 -262 LINE",
"245 -262 LINE",
"361 -51 LINE",
"210 -51 LINE"
);
}
);
width = 488;
},
{
layerId = "DCCD84DA-95A9-4923-A49E-D7B289AC34C6";
name = Light;
paths = (
{
closed = 1;
nodes = (
"80 674 LINE",
"80 0 LINE",
"142 0 LINE",
"142 674 LINE"
);
},
{
closed = 1;
nodes = (
"88 57 LINE",
"88 0 LINE",
"439 0 LINE",
"439 57 LINE"
);
},
{
closed = 1;
nodes = (
"139 -238 LINE",
"193 -238 LINE",
"303 -51 LINE",
"227 -51 LINE"
);
}
);
width = 474;
}
);
unicode = 013B;
},
{
glyphname = Lslash;
lastChange = "2015-05-14 13:32:58 +0000";
layers = (
{
layerId = "9609CB55-EFEB-482C-9A6C-237B4D7F8578";
name = Bold;
paths = (
{
closed = 1;
nodes = (
"125 674 LINE",
"279 674 LINE",
"279 0 LINE",
"125 0 LINE"
);
},
{
closed = 1;
nodes = (
"183 135 LINE",
"528 135 LINE",
"528 0 LINE",
"183 0 LINE"
);
},
{
closed = 1;
nodes = (
"45 160 LINE",
"45 281 LINE",
"443 504 LINE",
"443 383 LINE"
);
}
);
width = 563;
},
{
layerId = "DCCD84DA-95A9-4923-A49E-D7B289AC34C6";
name = Light;
paths = (
{
closed = 1;
nodes = (
"89 674 LINE",
"151 674 LINE",
"151 0 LINE",
"89 0 LINE"
);
},
{
closed = 1;
nodes = (
"97 57 LINE",
"448 57 LINE",
"448 0 LINE",
"97 0 LINE"
);
},
{
closed = 1;
nodes = (
"25 208 LINE",
"25 274 LINE",
"297 476 LINE",
"297 410 LINE"
);
}
);
width = 483;
}
);
unicode = 0141;
},
{
glyphname = Ncommaaccent;
lastChange = "2015-05-14 13:32:58 +0000";
layers = (
{
layerId = "9609CB55-EFEB-482C-9A6C-237B4D7F8578";
name = Bold;
paths = (
{
closed = 1;
nodes = (
"209 -262 LINE",
"315 -262 LINE",
"431 -51 LINE",
"280 -51 LINE"
);
},
{
closed = 1;
nodes = (
"65 0 LINE",
"219 0 LINE",
"219 279 LINE SMOOTH",
"219 398 OFFCURVE",
"204 488 OFFCURVE",
"204 488 CURVE",
"204 488 OFFCURVE",
"231 401 OFFCURVE",
"302 279 CURVE SMOOTH",
"463 0 LINE",
"632 0 LINE",
"632 674 LINE",
"478 674 LINE",
"478 395 LINE SMOOTH",
"478 264 OFFCURVE",
"488 190 OFFCURVE",
"488 190 CURVE",
"488 190 OFFCURVE",
"466 262 OFFCURVE",
"391 395 CURVE SMOOTH",
"234 674 LINE",
"65 674 LINE"
);
}
);
width = 697;
},
{
layerId = "DCCD84DA-95A9-4923-A49E-D7B289AC34C6";
name = Light;
paths = (
{
closed = 1;
nodes = (
"220 -238 LINE",
"274 -238 LINE",
"384 -51 LINE",
"308 -51 LINE"
);
},
{
closed = 1;
nodes = (
"80 0 LINE",
"142 0 LINE",
"142 285 LINE SMOOTH",
"142 493 OFFCURVE",
"140 601 OFFCURVE",
"140 601 CURVE",
"140 601 OFFCURVE",
"205 492 OFFCURVE",
"331 283 CURVE SMOOTH",
"502 0 LINE",
"587 0 LINE",
"587 674 LINE",
"525 674 LINE",
"525 388 LINE SMOOTH",
"525 177 OFFCURVE",
"527 73 OFFCURVE",
"527 73 CURVE",
"527 73 OFFCURVE",
"465 177 OFFCURVE",
"337 389 CURVE SMOOTH",
"165 674 LINE",
"80 674 LINE"
);
}
);
width = 667;
}
);
unicode = 0145;
},
{
glyphname = Oslash;
lastChange = "2015-05-14 13:32:58 +0000";
layers = (
{
layerId = "9609CB55-EFEB-482C-9A6C-237B4D7F8578";
name = Bold;
paths = (
{
closed = 1;
nodes = (
"38 339 CURVE SMOOTH",
"38 132 OFFCURVE",
"165 -7 OFFCURVE",
"366 -7 CURVE SMOOTH",
"566 -7 OFFCURVE",
"694 133 OFFCURVE",
"694 339 CURVE SMOOTH",
"694 546 OFFCURVE",
"567 685 OFFCURVE",
"366 685 CURVE SMOOTH",
"166 685 OFFCURVE",
"38 545 OFFCURVE"
);
},
{
closed = 1;
nodes = (
"196 339 CURVE SMOOTH",
"196 470 OFFCURVE",
"262 553 OFFCURVE",
"366 553 CURVE SMOOTH",
"470 553 OFFCURVE",
"536 475 OFFCURVE",
"536 339 CURVE SMOOTH",
"536 208 OFFCURVE",
"470 125 OFFCURVE",
"366 125 CURVE SMOOTH",
"262 125 OFFCURVE",
"196 202 OFFCURVE"
);
},
{
closed = 1;
nodes = (
"39 -7 LINE",
"185 -7 LINE",
"695 684 LINE",
"550 684 LINE"
);
}
);
width = 714;
},
{
layerId = "DCCD84DA-95A9-4923-A49E-D7B289AC34C6";
name = Light;
paths = (
{
closed = 1;
nodes = (
"42 340 CURVE SMOOTH",
"42 128 OFFCURVE",
"161 -8 OFFCURVE",
"339 -8 CURVE SMOOTH",
"521 -8 OFFCURVE",
"633 128 OFFCURVE",
"633 340 CURVE SMOOTH",
"633 552 OFFCURVE",
"525 688 OFFCURVE",
"337 688 CURVE SMOOTH",
"156 688 OFFCURVE",
"42 552 OFFCURVE"
);
},
{
closed = 1;
nodes = (
"106 340 CURVE SMOOTH",
"106 519 OFFCURVE",
"192 628 OFFCURVE",
"337 628 CURVE SMOOTH",
"487 628 OFFCURVE",
"569 519 OFFCURVE",
"569 340 CURVE SMOOTH",
"569 161 OFFCURVE",
"487 52 OFFCURVE",
"339 52 CURVE SMOOTH",
"199 52 OFFCURVE",
"106 161 OFFCURVE"
);
},
{
closed = 1;
nodes = (
"41 -9 LINE",
"112 -9 LINE",
"634 688 LINE",
"562 688 LINE"
);
}
);
width = 664;
}
);
unicode = 00D8;
},
{
glyphname = OE;
lastChange = "2015-05-14 13:32:58 +0000";
layers = (
{
layerId = "9609CB55-EFEB-482C-9A6C-237B4D7F8578";
name = Bold;
paths = (
{
closed = 1;
nodes = (
"40 339 CURVE",
"40 132 OFFCURVE",
"162 -7 OFFCURVE",
"363 -7 CURVE SMOOTH",
"533 -7 OFFCURVE",
"656 143 OFFCURVE",
"656 339 CURVE SMOOTH",
"656 536 OFFCURVE",
"534 685 OFFCURVE",
"363 685 CURVE SMOOTH",
"163 685 OFFCURVE",
"40 545 OFFCURVE"
);
},
{
closed = 1;
nodes = (
"205 339 CURVE",
"205 465 OFFCURVE",
"263 545 OFFCURVE",
"363 545 CURVE SMOOTH",
"463 545 OFFCURVE",
"521 465 OFFCURVE",
"521 339 CURVE SMOOTH",
"521 213 OFFCURVE",
"463 133 OFFCURVE",
"363 133 CURVE SMOOTH",
"263 133 OFFCURVE",
"205 213 OFFCURVE"
);
},
{
closed = 1;
nodes = (
"579 0 LINE",
"940 0 LINE",
"940 123 LINE",
"579 123 LINE"
);
},
{
closed = 1;
nodes = (
"521 0 LINE",
"666 0 LINE",
"666 674 LINE",
"521 674 LINE"
);
},
{
closed = 1;
nodes = (
"579 276 LINE",
"908 276 LINE",
"908 398 LINE",
"579 398 LINE"
);
},
{
closed = 1;
nodes = (
"579 551 LINE",
"936 551 LINE",
"936 674 LINE",
"579 674 LINE"
);
}
);
width = 1000;
},
{
layerId = "DCCD84DA-95A9-4923-A49E-D7B289AC34C6";
name = Light;
paths = (
{
closed = 1;
nodes = (
"50 340 CURVE SMOOTH",
"50 128 OFFCURVE",
"164 -8 OFFCURVE",
"342 -8 CURVE SMOOTH",
"524 -8 OFFCURVE",
"631 128 OFFCURVE",
"631 340 CURVE SMOOTH",
"631 552 OFFCURVE",
"528 688 OFFCURVE",
"340 688 CURVE SMOOTH",
"159 688 OFFCURVE",
"50 552 OFFCURVE"
);
},
{
closed = 1;
nodes = (
"114 340 CURVE SMOOTH",
"114 519 OFFCURVE",
"195 628 OFFCURVE",
"340 628 CURVE SMOOTH",
"490 628 OFFCURVE",
"569 519 OFFCURVE",
"569 340 CURVE SMOOTH",
"569 161 OFFCURVE",
"490 52 OFFCURVE",
"342 52 CURVE SMOOTH",
"202 52 OFFCURVE",
"114 161 OFFCURVE"
);
},
{
closed = 1;
nodes = (
"577 0 LINE",
"934 0 LINE",
"934 57 LINE",
"577 57 LINE"
);
},
{
closed = 1;
nodes = (
"569 0 LINE",
"631 0 LINE",
"631 674 LINE",
"569 674 LINE"
);
},
{
closed = 1;
nodes = (
"577 308 LINE",
"893 308 LINE",
"893 365 LINE",
"577 365 LINE"
);
},
{
closed = 1;
nodes = (
"577 617 LINE",
"928 617 LINE",
"928 674 LINE",
"577 674 LINE"
);
}
);
width = 979;
}
);
unicode = 0152;
},
{
glyphname = Thorn;
lastChange = "2015-05-14 13:32:58 +0000";
layers = (
{
layerId = "9609CB55-EFEB-482C-9A6C-237B4D7F8578";
name = Bold;
paths = (
{
closed = 1;
nodes = (
"297 110 LINE",
"430 110 OFFCURVE",
"548 186 OFFCURVE",
"548 342 CURVE SMOOTH",
"548 469 OFFCURVE",
"449 564 OFFCURVE",
"297 564 CURVE SMOOTH",
"65 564 LINE",
"65 441 LINE",
"285 441 LINE SMOOTH",
"369 441 OFFCURVE",
"392 383 OFFCURVE",
"392 336 CURVE SMOOTH",
"392 279 OFFCURVE",
"360 232 OFFCURVE",
"285 232 CURVE SMOOTH",
"65 232 LINE",
"65 110 LINE"
);
},
{
closed = 1;
nodes = (
"65 0 LINE",
"219 0 LINE",
"219 674 LINE",
"65 674 LINE"
);
}
);
width = 563;
},
{
layerId = "DCCD84DA-95A9-4923-A49E-D7B289AC34C6";
name = Light;
paths = (
{
closed = 1;
nodes = (
"243 128 LINE",
"407 128 OFFCURVE",
"485 223 OFFCURVE",
"485 330 CURVE SMOOTH",
"485 456 OFFCURVE",
"403 546 OFFCURVE",
"232 546 CURVE SMOOTH",
"80 546 LINE",
"80 491 LINE",
"239 491 LINE SMOOTH",
"366 491 OFFCURVE",
"422 427 OFFCURVE",
"422 330 CURVE SMOOTH",
"422 249 OFFCURVE",
"369 183 OFFCURVE",
"250 183 CURVE SMOOTH",
"80 183 LINE",
"80 128 LINE"
);
},
{
closed = 1;
nodes = (
"80 0 LINE",
"142 0 LINE",
"142 674 LINE",
"80 674 LINE"
);
}
);
width = 529;
}
);
unicode = 00DE;
},
{
glyphname = Rcommaaccent;
lastChange = "2015-05-14 13:32:58 +0000";
layers = (
{
layerId = "9609CB55-EFEB-482C-9A6C-237B4D7F8578";
name = Bold;
paths = (
{
closed = 1;
nodes = (
"165 -262 LINE",
"271 -262 LINE",
"387 -51 LINE",
"236 -51 LINE"
);
},
{
closed = 1;
nodes = (
"208 326 LINE",
"412 0 LINE",
"596 0 LINE",
"381 326 LINE"
);
},
{
closed = 1;
nodes = (
"392 457 CURVE SMOOTH",
"392 393 OFFCURVE",
"362 359 OFFCURVE",
"292 359 CURVE",
"65 359 LINE",
"65 234 LINE",
"298 234 LINE SMOOTH",
"430 234 OFFCURVE",
"548 301 OFFCURVE",
"548 458 CURVE SMOOTH",
"548 585 OFFCURVE",
"450 674 OFFCURVE",
"298 674 CURVE SMOOTH",
"65 674 LINE",
"65 549 LINE",
"295 549 LINE SMOOTH",
"354 549 OFFCURVE",
"392 515 OFFCURVE"
);
},
{
closed = 1;
nodes = (
"65 0 LINE",
"219 0 LINE",
"219 674 LINE",
"65 674 LINE"
);
}
);
width = 614;
},
{
layerId = "DCCD84DA-95A9-4923-A49E-D7B289AC34C6";
name = Light;
paths = (
{
closed = 1;
nodes = (
"155 -238 LINE",
"209 -238 LINE",
"319 -51 LINE",
"243 -51 LINE"
);
},
{
closed = 1;
nodes = (
"244 306 LINE",
"432 0 LINE",
"506 0 LINE",
"314 306 LINE"
);
},
{
closed = 1;
nodes = (
"405 472 CURVE SMOOTH",
"405 395 OFFCURVE",
"354 329 OFFCURVE",
"251 329 CURVE SMOOTH",
"80 329 LINE",
"80 274 LINE",
"244 274 LINE SMOOTH",
"391 274 OFFCURVE",
"463 357 OFFCURVE",
"467 469 CURVE",
"467 596 OFFCURVE",
"393 674 OFFCURVE",
"232 674 CURVE SMOOTH",
"80 674 LINE",
"80 619 LINE",
"239 619 LINE SMOOTH",
"353 619 OFFCURVE",
"405 568 OFFCURVE"
);
},
{
closed = 1;
nodes = (
"80 0 LINE",
"142 0 LINE",
"142 674 LINE",
"80 674 LINE"
);
}
);
width = 531;
}
);
unicode = 0156;
},
{
glyphname = Scommaaccent;
lastChange = "2015-05-14 13:32:58 +0000";
layers = (
{
layerId = "9609CB55-EFEB-482C-9A6C-237B4D7F8578";
name = Bold;
paths = (
{
closed = 1;
nodes = (
"454 644 LINE",
"400 669 OFFCURVE",
"336 678 OFFCURVE",
"280 678 CURVE",
"127 678 OFFCURVE",
"39 598 OFFCURVE",
"39 484 CURVE",
"39 376 OFFCURVE",
"112 326 OFFCURVE",
"183 293 CURVE SMOOTH",
"260 257 OFFCURVE",
"320 239 OFFCURVE",
"320 190 CURVE",
"320 150 OFFCURVE",
"285 123 OFFCURVE",
"239 123 CURVE",
"176 123 OFFCURVE",
"111 141 OFFCURVE",
"45 189 CURVE",
"45 34 LINE",
"95 6 OFFCURVE",
"169 -8 OFFCURVE",
"239 -8 CURVE",
"387 -8 OFFCURVE",
"484 75 OFFCURVE",
"484 196 CURVE",
"484 319 OFFCURVE",
"390 367 OFFCURVE",
"306 404 CURVE SMOOTH",
"249 429 OFFCURVE",
"206 453 OFFCURVE",
"206 490 CURVE",
"206 522 OFFCURVE",
"232 547 OFFCURVE",
"286 547 CURVE",
"343 547 OFFCURVE",
"404 529 OFFCURVE",
"454 500 CURVE"
);
},
{
closed = 1;
nodes = (
"119 -262 LINE",
"225 -262 LINE",
"341 -51 LINE",
"190 -51 LINE"
);
}
);
width = 514;
},
{
layerId = "DCCD84DA-95A9-4923-A49E-D7B289AC34C6";
name = Light;
paths = (
{
closed = 1;
nodes = (
"423 650 LINE",
"384 671 OFFCURVE",
"330 680 OFFCURVE",
"283 680 CURVE SMOOTH",
"173 680 OFFCURVE",
"73 619 OFFCURVE",
"73 500 CURVE SMOOTH",
"73 374 OFFCURVE",
"188 339 OFFCURVE",
"282 297 CURVE SMOOTH",
"345 269 OFFCURVE",
"399 238 OFFCURVE",
"399 173 CURVE SMOOTH",
"399 94 OFFCURVE",
"342 53 OFFCURVE",
"249 53 CURVE SMOOTH",
"182 53 OFFCURVE",
"114 76 OFFCURVE",
"75 106 CURVE",
"75 37 LINE",
"123 8 OFFCURVE",
"189 -7 OFFCURVE",
"252 -7 CURVE SMOOTH",
"368 -7 OFFCURVE",
"462 52 OFFCURVE",
"462 174 CURVE SMOOTH",
"462 288 OFFCURVE",
"369 328 OFFCURVE",
"283 365 CURVE SMOOTH",
"207 398 OFFCURVE",
"137 428 OFFCURVE",
"137 504 CURVE SMOOTH",
"137 573 OFFCURVE",
"194 619 OFFCURVE",
"284 619 CURVE SMOOTH",
"334 619 OFFCURVE",
"392 602 OFFCURVE",
"423 581 CURVE"
);
},
{
closed = 1;
nodes = (
"140 -238 LINE",
"194 -238 LINE",
"304 -51 LINE",
"228 -51 LINE"
);
}
);
width = 527;
}
);
unicode = 0218;
},
{
glyphname = Tcedilla;
lastChange = "2015-05-14 13:32:58 +0000";
layers = (
{
layerId = "9609CB55-EFEB-482C-9A6C-237B4D7F8578";
name = Bold;
paths = (
{
closed = 1;
nodes = (
"122 -262 LINE",
"228 -262 LINE",
"344 -51 LINE",
"193 -51 LINE"
);
},
{
closed = 1;
nodes = (
"195 0 LINE",
"350 0 LINE",
"350 653 LINE",
"195 653 LINE"
);
},
{
closed = 1;
nodes = (
"30 550 LINE",
"514 550 LINE",
"514 674 LINE",
"30 674 LINE"
);
}
);
width = 544;
},
{
layerId = "DCCD84DA-95A9-4923-A49E-D7B289AC34C6";
name = Light;
paths = (
{
closed = 1;
nodes = (
"100 -238 LINE",
"154 -238 LINE",
"264 -51 LINE",
"188 -51 LINE"
);
},
{
closed = 1;
nodes = (
"201 0 LINE",
"263 0 LINE",
"263 674 LINE",
"201 674 LINE"
);
},
{
closed = 1;
nodes = (
"15 617 LINE",
"450 617 LINE",
"450 674 LINE",
"15 674 LINE"
);
}
);
width = 465;
}
);
unicode = 0162;
},
{
glyphname = Tcommaaccent;
lastChange = "2015-05-14 13:32:58 +0000";
layers = (
{
layerId = "9609CB55-EFEB-482C-9A6C-237B4D7F8578";
name = Bold;
paths = (
{
closed = 1;
nodes = (
"195 0 LINE",
"350 0 LINE",
"350 653 LINE",
"195 653 LINE"
);
},
{
closed = 1;
nodes = (
"30 550 LINE",
"514 550 LINE",
"514 674 LINE",
"30 674 LINE"
);
},
{
closed = 1;
nodes = (
"125 -262 LINE",
"231 -262 LINE",
"347 -51 LINE",
"196 -51 LINE"
);
}
);
width = 544;
},
{
layerId = "DCCD84DA-95A9-4923-A49E-D7B289AC34C6";
name = Light;
paths = (
{
closed = 1;
nodes = (
"201 0 LINE",
"263 0 LINE",
"263 674 LINE",
"201 674 LINE"
);
},
{
closed = 1;
nodes = (
"15 617 LINE",
"450 617 LINE",
"450 674 LINE",
"15 674 LINE"
);
},
{
closed = 1;
nodes = (
"103 -238 LINE",
"157 -238 LINE",
"267 -51 LINE",
"191 -51 LINE"
);
}
);
width = 465;
}
);
unicode = 021A;
},
{
glyphname = aogonek;
lastChange = "2015-05-14 13:32:58 +0000";
layers = (
{
layerId = "9609CB55-EFEB-482C-9A6C-237B4D7F8578";
name = Bold;
paths = (
{
closed = 1;
nodes = (
"311 171 LINE",
"311 128 OFFCURVE",
"288 100 OFFCURVE",
"246 100 CURVE SMOOTH",
"206 100 OFFCURVE",
"187 118 OFFCURVE",
"187 151 CURVE SMOOTH",
"187 184 OFFCURVE",
"214 208 OFFCURVE",
"264 208 CURVE SMOOTH",
"328 208 LINE",
"328 298 LINE",
"247 298 LINE SMOOTH",
"103 298 OFFCURVE",
"35 238 OFFCURVE",
"35 144 CURVE SMOOTH",
"35 63 OFFCURVE",
"90 -3 OFFCURVE",
"192 -3 CURVE SMOOTH",
"266 -3 OFFCURVE",
"302 30 OFFCURVE",
"318 62 CURVE",
"318 0 LINE",
"461 0 LINE",
"461 325 LINE SMOOTH",
"461 456 OFFCURVE",
"390 516 OFFCURVE",
"247 516 CURVE SMOOTH",
"168 516 OFFCURVE",
"104 499 OFFCURVE",
"74 482 CURVE",
"74 351 LINE",
"112 376 OFFCURVE",
"167 397 OFFCURVE",
"226 397 CURVE SMOOTH",
"291 397 OFFCURVE",
"311 371 OFFCURVE",
"311 333 CURVE SMOOTH"
);
},
{
closed = 1;
nodes = (
"473 -235 CURVE",
"473 -134 LINE",
"450 -150 OFFCURVE",
"422 -164 OFFCURVE",
"386 -164 CURVE SMOOTH",
"359 -164 OFFCURVE",
"343 -152 OFFCURVE",
"343 -130 CURVE SMOOTH",
"343 -86 OFFCURVE",
"403 -36 OFFCURVE",
"461 0 CURVE",
"412 64 LINE",
"354 39 OFFCURVE",
"227 -31 OFFCURVE",
"227 -143 CURVE SMOOTH",
"227 -206 OFFCURVE",
"265 -260 OFFCURVE",
"364 -260 CURVE SMOOTH",
"410 -260 OFFCURVE",
"444 -250 OFFCURVE"
);
}
);
width = 511;
},
{
layerId = "DCCD84DA-95A9-4923-A49E-D7B289AC34C6";
name = Light;
paths = (
{
closed = 1;
nodes = (
"355 160 LINE",
"355 105 OFFCURVE",
"300 54 OFFCURVE",
"223 54 CURVE SMOOTH",
"150 54 OFFCURVE",
"114 91 OFFCURVE",
"114 144 CURVE SMOOTH",
"114 208 OFFCURVE",
"169 239 OFFCURVE",
"273 239 CURVE SMOOTH",
"368 239 LINE",
"368 298 LINE",
"259 298 LINE SMOOTH",
"135 298 OFFCURVE",
"50 242 OFFCURVE",
"50 142 CURVE SMOOTH",
"50 50 OFFCURVE",
"117 -5 OFFCURVE",
"209 -5 CURVE SMOOTH",
"269 -5 OFFCURVE",
"322 23 OFFCURVE",
"355 63 CURVE",
"355 0 LINE",
"416 0 LINE",
"416 320 LINE SMOOTH",
"416 442 OFFCURVE",
"364 515 OFFCURVE",
"230 515 CURVE SMOOTH",
"180 515 OFFCURVE",
"122 500 OFFCURVE",
"87 478 CURVE",
"87 415 LINE",
"125 441 OFFCURVE",
"182 457 OFFCURVE",
"229 457 CURVE SMOOTH",
"324 457 OFFCURVE",
"355 406 OFFCURVE",
"355 320 CURVE SMOOTH"
);
},
{
closed = 1;
nodes = (
"439 -219 CURVE",
"439 -169 LINE",
"424 -180 OFFCURVE",
"397 -189 OFFCURVE",
"375 -189 CURVE SMOOTH",
"333 -189 OFFCURVE",
"305 -167 OFFCURVE",
"305 -124 CURVE SMOOTH",
"305 -70 OFFCURVE",
"354 -28 OFFCURVE",
"416 0 CURVE",
"390 31 LINE",
"318 7 OFFCURVE",
"249 -54 OFFCURVE",
"249 -129 CURVE SMOOTH",
"249 -190 OFFCURVE",
"292 -237 OFFCURVE",
"368 -237 CURVE SMOOTH",
"392 -237 OFFCURVE",
"419 -232 OFFCURVE"
);
}
);
width = 486;
}
);
unicode = 0105;
},
{
glyphname = ae;
lastChange = "2015-05-14 13:32:58 +0000";
layers = (
{
layerId = "9609CB55-EFEB-482C-9A6C-237B4D7F8578";
name = Bold;
paths = (
{
closed = 1;
nodes = (
"760 196 LINE",
"763 217 OFFCURVE",
"768 253 OFFCURVE",
"768 275 CURVE SMOOTH",
"768 437 OFFCURVE",
"679 512 OFFCURVE",
"548 512 CURVE SMOOTH",
"482 512 OFFCURVE",
"422 486 OFFCURVE",
"391 442 CURVE",
"370 486 OFFCURVE",
"315 516 OFFCURVE",
"242 516 CURVE SMOOTH",
"163 516 OFFCURVE",
"109 499 OFFCURVE",
"79 482 CURVE",
"79 351 LINE",
"117 376 OFFCURVE",
"172 397 OFFCURVE",
"231 397 CURVE SMOOTH",
"296 397 OFFCURVE",
"316 371 OFFCURVE",
"316 333 CURVE SMOOTH",
"316 298 LINE",
"252 298 LINE SMOOTH",
"108 298 OFFCURVE",
"40 238 OFFCURVE",
"40 144 CURVE SMOOTH",
"40 56 OFFCURVE",
"102 -4 OFFCURVE",
"218 -4 CURVE SMOOTH",
"323 -4 OFFCURVE",
"374 46 OFFCURVE",
"392 88 CURVE",
"432 21 OFFCURVE",
"518 -5 OFFCURVE",
"585 -5 CURVE SMOOTH",
"637 -5 OFFCURVE",
"701 6 OFFCURVE",
"737 29 CURVE",
"737 151 LINE",
"705 127 OFFCURVE",
"663 108 OFFCURVE",
"603 108 CURVE SMOOTH",
"535 108 OFFCURVE",
"482 139 OFFCURVE",
"461 196 CURVE"
);
},
{
closed = 1;
nodes = (
"554 401 CURVE SMOOTH",
"610 401 OFFCURVE",
"628 361 OFFCURVE",
"632 311 CURVE",
"632 300 LINE",
"456 300 LINE",
"469 369 OFFCURVE",
"511 401 OFFCURVE"
);
},
{
closed = 1;
nodes = (
"316 171 LINE",
"316 128 OFFCURVE",
"293 100 OFFCURVE",
"251 100 CURVE SMOOTH",
"211 100 OFFCURVE",
"192 118 OFFCURVE",
"192 151 CURVE SMOOTH",
"192 184 OFFCURVE",
"219 208 OFFCURVE",
"269 208 CURVE SMOOTH",
"316 208 LINE"
);
}
);
width = 808;
},
{
layerId = "DCCD84DA-95A9-4923-A49E-D7B289AC34C6";
name = Light;
paths = (
{
closed = 1;
nodes = (
"778 226 LINE",
"781 241 OFFCURVE",
"782 265 OFFCURVE",
"782 275 CURVE SMOOTH",
"782 426 OFFCURVE",
"714 513 OFFCURVE",
"583 513 CURVE SMOOTH",
"507 513 OFFCURVE",
"444 481 OFFCURVE",
"404 420 CURVE",
"380 481 OFFCURVE",
"326 515 OFFCURVE",
"235 515 CURVE SMOOTH",
"185 515 OFFCURVE",
"127 500 OFFCURVE",
"92 478 CURVE",
"92 415 LINE",
"130 441 OFFCURVE",
"187 457 OFFCURVE",
"234 457 CURVE SMOOTH",
"329 457 OFFCURVE",
"360 406 OFFCURVE",
"360 320 CURVE SMOOTH",
"360 298 LINE",
"264 298 LINE SMOOTH",
"140 298 OFFCURVE",
"55 242 OFFCURVE",
"55 142 CURVE SMOOTH",
"55 50 OFFCURVE",
"122 -5 OFFCURVE",
"214 -5 CURVE SMOOTH",
"305 -5 OFFCURVE",
"371 38 OFFCURVE",
"397 102 CURVE",
"437 39 OFFCURVE",
"515 -5 OFFCURVE",
"608 -5 CURVE SMOOTH",
"651 -5 OFFCURVE",
"707 6 OFFCURVE",
"745 25 CURVE",
"745 87 LINE",
"709 63 OFFCURVE",
"652 53 OFFCURVE",
"611 53 CURVE SMOOTH",
"511 53 OFFCURVE",
"432 111 OFFCURVE",
"422 226 CURVE"
);
},
{
closed = 1;
nodes = (
"581 456 CURVE SMOOTH",
"658 456 OFFCURVE",
"719 407 OFFCURVE",
"719 305 CURVE SMOOTH",
"719 282 LINE",
"422 282 LINE",
"433 403 OFFCURVE",
"503 456 OFFCURVE"
);
},
{
closed = 1;
nodes = (
"360 178 LINE",
"360 101 OFFCURVE",
"299 54 OFFCURVE",
"228 54 CURVE SMOOTH",
"155 54 OFFCURVE",
"119 91 OFFCURVE",
"119 144 CURVE SMOOTH",
"119 208 OFFCURVE",
"174 239 OFFCURVE",
"278 239 CURVE SMOOTH",
"360 239 LINE"
);
}
);
width = 822;
}
);
unicode = 00E6;
},
{
glyphname = eth;
lastChange = "2015-05-14 13:32:58 +0000";
layers = (
{
layerId = "9609CB55-EFEB-482C-9A6C-237B4D7F8578";
name = Bold;
paths = (
{
closed = 1;
nodes = (
"312 674 LINE",
"441 586 OFFCURVE",
"510 418 OFFCURVE",
"510 289 CURVE SMOOTH",
"510 116 OFFCURVE",
"431 -10 OFFCURVE",
"268 -10 CURVE SMOOTH",
"116 -10 OFFCURVE",
"35 91 OFFCURVE",
"35 204 CURVE SMOOTH",
"35 323 OFFCURVE",
"114 402 OFFCURVE",
"226 402 CURVE SMOOTH",
"323 402 OFFCURVE",
"387 344 OFFCURVE",
"412 275 CURVE",
"406 176 LINE",
"372 232 OFFCURVE",
"333 279 OFFCURVE",
"266 279 CURVE SMOOTH",
"213 279 OFFCURVE",
"184 247 OFFCURVE",
"184 194 CURVE SMOOTH",
"184 151 OFFCURVE",
"215 120 OFFCURVE",
"267 120 CURVE SMOOTH",
"318 120 OFFCURVE",
"366 147 OFFCURVE",
"366 289 CURVE SMOOTH",
"366 451 OFFCURVE",
"282 574 OFFCURVE",
"128 674 CURVE"
);
},
{
closed = 1;
nodes = (
"157 442 LINE",
"157 523 LINE",
"482 682 LINE",
"482 601 LINE"
);
}
);
width = 557;
},
{
layerId = "DCCD84DA-95A9-4923-A49E-D7B289AC34C6";
name = Light;
paths = (
{
closed = 1;
nodes = (
"240 674 LINE",
"336 613 OFFCURVE",
"461 472 OFFCURVE",
"461 264 CURVE SMOOTH",
"461 76 OFFCURVE",
"372 -9 OFFCURVE",
"247 -9 CURVE SMOOTH",
"121 -9 OFFCURVE",
"39 90 OFFCURVE",
"39 202 CURVE SMOOTH",
"39 339 OFFCURVE",
"141 410 OFFCURVE",
"243 410 CURVE SMOOTH",
"316 410 OFFCURVE",
"384 372 OFFCURVE",
"420 304 CURVE",
"420 234 LINE",
"389 298 OFFCURVE",
"323 350 OFFCURVE",
"240 350 CURVE SMOOTH",
"166 350 OFFCURVE",
"103 299 OFFCURVE",
"103 202 CURVE SMOOTH",
"103 105 OFFCURVE",
"165 49 OFFCURVE",
"247 49 CURVE SMOOTH",
"329 49 OFFCURVE",
"404 112 OFFCURVE",
"404 265 CURVE SMOOTH",
"404 488 OFFCURVE",
"235 626 OFFCURVE",
"132 674 CURVE"
);
},
{
closed = 1;
nodes = (
"162 470 LINE",
"162 526 LINE",
"444 672 LINE",
"444 616 LINE"
);
}
);
width = 506;
}
);
unicode = 00F0;
},
{
glyphname = dcaron;
lastChange = "2015-05-14 13:32:58 +0000";
layers = (
{
layerId = "9609CB55-EFEB-482C-9A6C-237B4D7F8578";
name = Bold;
paths = (
{
closed = 1;
nodes = (
"551 707 LINE",
"405 707 LINE",
"405 0 LINE",
"551 0 LINE"
);
},
{
closed = 1;
nodes = (
"405 259 CURVE SMOOTH",
"405 171 OFFCURVE",
"359 116 OFFCURVE",
"293 116 CURVE SMOOTH",
"233 116 OFFCURVE",
"183 168 OFFCURVE",
"183 252 CURVE SMOOTH",
"183 344 OFFCURVE",
"234 392 OFFCURVE",
"292 392 CURVE SMOOTH",
"348 392 OFFCURVE",
"405 349 OFFCURVE"
);
},
{
closed = 1;
nodes = (
"446 258 CURVE SMOOTH",
"446 434 OFFCURVE",
"358 513 OFFCURVE",
"254 513 CURVE SMOOTH",
"131 513 OFFCURVE",
"35 420 OFFCURVE",
"35 255 CURVE SMOOTH",
"35 119 OFFCURVE",
"115 -6 OFFCURVE",
"253 -6 CURVE SMOOTH",
"354 -6 OFFCURVE",
"446 66 OFFCURVE"
);
},
{
closed = 1;
nodes = (
"599 497 LINE",
"705 497 LINE",
"821 708 LINE",
"670 708 LINE"
);
}
);
width = 745;
},
{
layerId = "DCCD84DA-95A9-4923-A49E-D7B289AC34C6";
name = Light;
paths = (
{
closed = 1;
nodes = (
"479 707 LINE",
"418 707 LINE",
"418 0 LINE",
"479 0 LINE"
);
},
{
closed = 1;
nodes = (
"418 256 CURVE SMOOTH",
"418 94 OFFCURVE",
"332 50 OFFCURVE",
"259 50 CURVE SMOOTH",
"173 50 OFFCURVE",
"109 130 OFFCURVE",
"109 247 CURVE SMOOTH",
"109 388 OFFCURVE",
"179 457 OFFCURVE",
"265 457 CURVE SMOOTH",
"323 457 OFFCURVE",
"418 414 OFFCURVE"
);
},
{
closed = 1;
nodes = (
"464 256 CURVE SMOOTH",
"464 397 OFFCURVE",
"394 515 OFFCURVE",
"263 515 CURVE SMOOTH",
"135 515 OFFCURVE",
"45 405 OFFCURVE",
"45 248 CURVE SMOOTH",
"45 113 OFFCURVE",
"119 -8 OFFCURVE",
"261 -8 CURVE SMOOTH",
"420 -8 OFFCURVE",
"464 141 OFFCURVE"
);
},
{
closed = 1;
nodes = (
"539 520 LINE",
"593 520 LINE",
"703 707 LINE",
"627 707 LINE"
);
}
);
width = 637;
}
);
unicode = 010F;
},
{
glyphname = dcroat;
lastChange = "2015-05-14 13:32:58 +0000";
layers = (
{
layerId = "9609CB55-EFEB-482C-9A6C-237B4D7F8578";
name = Bold;
paths = (
{
closed = 1;
nodes = (
"608 564 LINE",
"608 646 LINE",
"254 646 LINE",
"254 564 LINE"
);
},
{
closed = 1;
nodes = (
"551 707 LINE",
"405 707 LINE",
"405 0 LINE",
"551 0 LINE"
);
},
{
closed = 1;
nodes = (
"405 259 CURVE SMOOTH",
"405 171 OFFCURVE",
"359 116 OFFCURVE",
"293 116 CURVE SMOOTH",
"233 116 OFFCURVE",
"183 168 OFFCURVE",
"183 252 CURVE SMOOTH",
"183 344 OFFCURVE",
"234 392 OFFCURVE",
"292 392 CURVE SMOOTH",
"348 392 OFFCURVE",
"405 349 OFFCURVE"
);
},
{
closed = 1;
nodes = (
"446 258 CURVE SMOOTH",
"446 434 OFFCURVE",
"358 513 OFFCURVE",
"254 513 CURVE SMOOTH",
"131 513 OFFCURVE",
"35 420 OFFCURVE",
"35 255 CURVE SMOOTH",
"35 119 OFFCURVE",
"115 -6 OFFCURVE",
"253 -6 CURVE SMOOTH",
"354 -6 OFFCURVE",
"446 66 OFFCURVE"
);
}
);
width = 611;
},
{
layerId = "DCCD84DA-95A9-4923-A49E-D7B289AC34C6";
name = Light;
paths = (
{
closed = 1;
nodes = (
"554 593 LINE",
"554 641 LINE",
"213 641 LINE",
"213 593 LINE"
);
},
{
closed = 1;
nodes = (
"479 707 LINE",
"418 707 LINE",
"418 0 LINE",
"479 0 LINE"
);
},
{
closed = 1;
nodes = (
"418 256 CURVE SMOOTH",
"418 94 OFFCURVE",
"332 50 OFFCURVE",
"259 50 CURVE SMOOTH",
"173 50 OFFCURVE",
"109 130 OFFCURVE",
"109 247 CURVE SMOOTH",
"109 388 OFFCURVE",
"179 457 OFFCURVE",
"265 457 CURVE SMOOTH",
"323 457 OFFCURVE",
"418 414 OFFCURVE"
);
},
{
closed = 1;
nodes = (
"464 256 CURVE SMOOTH",
"464 397 OFFCURVE",
"394 515 OFFCURVE",
"263 515 CURVE SMOOTH",
"135 515 OFFCURVE",
"45 405 OFFCURVE",
"45 248 CURVE SMOOTH",
"45 113 OFFCURVE",
"119 -8 OFFCURVE",
"261 -8 CURVE SMOOTH",
"420 -8 OFFCURVE",
"464 141 OFFCURVE"
);
}
);
width = 555;
}
);
unicode = 0111;
},
{
glyphname = gcommaaccent;
lastChange = "2015-05-14 13:32:58 +0000";
layers = (
{
layerId = "9609CB55-EFEB-482C-9A6C-237B4D7F8578";
name = Bold;
paths = (
{
closed = 1;
nodes = (
"87 -158 LINE",
"146 -186 OFFCURVE",
"212 -196 OFFCURVE",
"274 -196 CURVE SMOOTH",
"410 -196 OFFCURVE",
"530 -123 OFFCURVE",
"530 49 CURVE SMOOTH",
"530 507 LINE",
"385 507 LINE",
"385 51 LINE SMOOTH",
"385 -28 OFFCURVE",
"348 -65 OFFCURVE",
"259 -65 CURVE SMOOTH",
"195 -65 OFFCURVE",
"132 -45 OFFCURVE",
"87 -9 CURVE"
);
},
{
closed = 1;
nodes = (
"123 512 OFFCURVE",
"40 405 OFFCURVE",
"40 263 CURVE SMOOTH",
"40 89 OFFCURVE",
"144 17 OFFCURVE",
"245 17 CURVE SMOOTH",
"362 17 OFFCURVE",
"423 92 OFFCURVE",
"423 253 CURVE SMOOTH",
"423 259 LINE SMOOTH",
"423 404 OFFCURVE",
"379 512 OFFCURVE",
"252 512 CURVE SMOOTH"
);
},
{
closed = 1;
nodes = (
"226 133 OFFCURVE",
"192 177 OFFCURVE",
"192 262 CURVE SMOOTH",
"192 342 OFFCURVE",
"228 390 OFFCURVE",
"286 390 CURVE SMOOTH",
"345 390 OFFCURVE",
"385 352 OFFCURVE",
"385 254 CURVE SMOOTH",
"385 191 OFFCURVE",
"351 133 OFFCURVE",
"285 133 CURVE SMOOTH"
);
},
{
closed = 1;
nodes = (
"471 765 LINE",
"365 765 LINE",
"249 554 LINE",
"400 554 LINE"
);
}
);
width = 585;
},
{
layerId = "DCCD84DA-95A9-4923-A49E-D7B289AC34C6";
name = Light;
paths = (
{
closed = 1;
nodes = (
"99 -162 LINE",
"141 -182 OFFCURVE",
"198 -191 OFFCURVE",
"247 -191 CURVE SMOOTH",
"370 -191 OFFCURVE",
"469 -122 OFFCURVE",
"469 39 CURVE SMOOTH",
"469 507 LINE",
"408 507 LINE",
"408 39 LINE SMOOTH",
"408 -85 OFFCURVE",
"337 -133 OFFCURVE",
"242 -133 CURVE SMOOTH",
"196 -133 OFFCURVE",
"141 -123 OFFCURVE",
"99 -102 CURVE"
);
},
{
closed = 1;
nodes = (
"125 515 OFFCURVE",
"45 403 OFFCURVE",
"45 253 CURVE SMOOTH",
"45 98 OFFCURVE",
"145 12 OFFCURVE",
"256 12 CURVE SMOOTH",
"377 12 OFFCURVE",
"443 124 OFFCURVE",
"443 251 CURVE SMOOTH",
"443 256 LINE SMOOTH",
"442 376 OFFCURVE",
"397 515 OFFCURVE",
"250 515 CURVE SMOOTH"
);
},
{
closed = 1;
nodes = (
"194 70 OFFCURVE",
"109 123 OFFCURVE",
"109 256 CURVE SMOOTH",
"109 373 OFFCURVE",
"166 457 OFFCURVE",
"262 457 CURVE SMOOTH",
"325 457 OFFCURVE",
"408 404 OFFCURVE",
"408 251 CURVE SMOOTH",
"408 115 OFFCURVE",
"319 70 OFFCURVE",
"257 70 CURVE SMOOTH"
);
},
{
closed = 1;
nodes = (
"429 748 LINE",
"375 748 LINE",
"265 561 LINE",
"341 561 LINE"
);
}
);
width = 539;
}
);
unicode = 0123;
},
{
glyphname = dotlessi;
lastChange = "2015-05-14 13:32:58 +0000";
layers = (
{
layerId = "9609CB55-EFEB-482C-9A6C-237B4D7F8578";
name = Bold;
paths = (
{
closed = 1;
nodes = (
"65 0 LINE",
"211 0 LINE",
"211 507 LINE",
"65 507 LINE"
);
}
);
width = 276;
},
{
layerId = "DCCD84DA-95A9-4923-A49E-D7B289AC34C6";
name = Light;
paths = (
{
closed = 1;
nodes = (
"80 0 LINE",
"141 0 LINE",
"141 507 LINE",
"80 507 LINE"
);
}
);
width = 221;
}
);
unicode = 0131;
},
{
glyphname = iacute;
lastChange = "2015-05-14 13:32:58 +0000";
layers = (
{
components = (
{
name = acute;
transform = "{1, 0, 0, 1, -49, -67}";
}
);
layerId = "9609CB55-EFEB-482C-9A6C-237B4D7F8578";
name = Bold;
paths = (
{
closed = 1;
nodes = (
"65 0 LINE",
"211 0 LINE",
"211 507 LINE",
"65 507 LINE"
);
}
);
width = 276;
},
{
components = (
{
name = acute;
transform = "{1, 0, 0, 1, -21, -86}";
}
);
layerId = "DCCD84DA-95A9-4923-A49E-D7B289AC34C6";
name = Light;
paths = (
{
closed = 1;
nodes = (
"80 0 LINE",
"141 0 LINE",
"141 507 LINE",
"80 507 LINE"
);
}
);
width = 221;
}
);
unicode = 00ED;
},
{
glyphname = icircumflex;
lastChange = "2015-05-14 13:32:58 +0000";
layers = (
{
components = (
{
name = circumflex;
transform = "{1, 0, 0, 1, -111, -67}";
}
);
layerId = "9609CB55-EFEB-482C-9A6C-237B4D7F8578";
name = Bold;
paths = (
{
closed = 1;
nodes = (
"65 0 LINE",
"211 0 LINE",
"211 507 LINE",
"65 507 LINE"
);
}
);
width = 276;
},
{
components = (
{
name = circumflex;
transform = "{1, 0, 0, 1, -88, -86}";
}
);
layerId = "DCCD84DA-95A9-4923-A49E-D7B289AC34C6";
name = Light;
paths = (
{
closed = 1;
nodes = (
"80 0 LINE",
"141 0 LINE",
"141 507 LINE",
"80 507 LINE"
);
}
);
width = 221;
}
);
unicode = 00EE;
},
{
glyphname = idieresis;
lastChange = "2015-05-14 13:32:58 +0000";
layers = (
{
components = (
{
name = dieresis;
transform = "{1, 0, 0, 1, -111, -67}";
}
);
layerId = "9609CB55-EFEB-482C-9A6C-237B4D7F8578";
name = Bold;
paths = (
{
closed = 1;
nodes = (
"65 0 LINE",
"211 0 LINE",
"211 507 LINE",
"65 507 LINE"
);
}
);
width = 276;
},
{
components = (
{
name = dieresis;
transform = "{1, 0, 0, 1, -89, -87}";
}
);
layerId = "DCCD84DA-95A9-4923-A49E-D7B289AC34C6";
name = Light;
paths = (
{
closed = 1;
nodes = (
"80 0 LINE",
"141 0 LINE",
"141 507 LINE",
"80 507 LINE"
);
}
);
width = 221;
}
);
unicode = 00EF;
},
{
glyphname = igrave;
lastChange = "2015-05-14 13:32:58 +0000";
layers = (
{
components = (
{
name = grave;
transform = "{1, 0, 0, 1, -177, -67}";
}
);
layerId = "9609CB55-EFEB-482C-9A6C-237B4D7F8578";
name = Bold;
paths = (
{
closed = 1;
nodes = (
"65 0 LINE",
"211 0 LINE",
"211 507 LINE",
"65 507 LINE"
);
}
);
width = 276;
},
{
components = (
{
name = grave;
transform = "{1, 0, 0, 1, -159, -87}";
}
);
layerId = "DCCD84DA-95A9-4923-A49E-D7B289AC34C6";
name = Light;
paths = (
{
closed = 1;
nodes = (
"80 0 LINE",
"141 0 LINE",
"141 507 LINE",
"80 507 LINE"
);
}
);
width = 221;
}
);
unicode = 00EC;
},
{
glyphname = imacron;
lastChange = "2015-05-14 13:32:58 +0000";
layers = (
{
components = (
{
name = macron;
transform = "{1, 0, 0, 1, -112, -58}";
}
);
layerId = "9609CB55-EFEB-482C-9A6C-237B4D7F8578";
name = Bold;
paths = (
{
closed = 1;
nodes = (
"65 0 LINE",
"211 0 LINE",
"211 507 LINE",
"65 507 LINE"
);
}
);
width = 276;
},
{
components = (
{
name = macron;
transform = "{1, 0, 0, 1, -88, -90}";
}
);
layerId = "DCCD84DA-95A9-4923-A49E-D7B289AC34C6";
name = Light;
paths = (
{
closed = 1;
nodes = (
"80 0 LINE",
"141 0 LINE",
"141 507 LINE",
"80 507 LINE"
);
}
);
width = 221;
}
);
unicode = 012B;
},
{
glyphname = kcommaaccent;
lastChange = "2015-05-14 13:32:58 +0000";
layers = (
{
layerId = "9609CB55-EFEB-482C-9A6C-237B4D7F8578";
name = Bold;
paths = (
{
closed = 1;
nodes = (
"148 -262 LINE",
"254 -262 LINE",
"370 -51 LINE",
"219 -51 LINE"
);
},
{
closed = 1;
nodes = (
"368 0 LINE",
"537 0 LINE",
"358 264 LINE",
"196 264 LINE"
);
},
{
closed = 1;
nodes = (
"60 0 LINE",
"206 0 LINE",
"206 690 LINE",
"60 690 LINE"
);
},
{
closed = 1;
nodes = (
"195 264 LINE",
"358 264 LINE",
"534 507 LINE",
"366 507 LINE"
);
}
);
width = 548;
},
{
layerId = "DCCD84DA-95A9-4923-A49E-D7B289AC34C6";
name = Light;
paths = (
{
closed = 1;
nodes = (
"109 -238 LINE",
"163 -238 LINE",
"273 -51 LINE",
"197 -51 LINE"
);
},
{
closed = 1;
nodes = (
"364 0 LINE",
"440 0 LINE",
"226 266 LINE",
"152 266 LINE"
);
},
{
closed = 1;
nodes = (
"76 0 LINE",
"137 0 LINE",
"137 707 LINE",
"76 707 LINE"
);
},
{
closed = 1;
nodes = (
"152 266 LINE",
"226 266 LINE",
"433 507 LINE",
"358 507 LINE"
);
}
);
width = 462;
}
);
unicode = 0137;
},
{
glyphname = lcaron;
lastChange = "2015-05-14 13:32:58 +0000";
layers = (
{
layerId = "9609CB55-EFEB-482C-9A6C-237B4D7F8578";
name = Bold;
paths = (
{
closed = 1;
nodes = (
"65 0 LINE",
"211 0 LINE",
"211 707 LINE",
"65 707 LINE"
);
},
{
closed = 1;
nodes = (
"269 498 LINE",
"375 498 LINE",
"491 709 LINE",
"340 709 LINE"
);
}
);
width = 276;
},
{
layerId = "DCCD84DA-95A9-4923-A49E-D7B289AC34C6";
name = Light;
paths = (
{
closed = 1;
nodes = (
"80 0 LINE",
"141 0 LINE",
"141 707 LINE",
"80 707 LINE"
);
},
{
closed = 1;
nodes = (
"211 520 LINE",
"265 520 LINE",
"375 707 LINE",
"299 707 LINE"
);
}
);
width = 254;
}
);
unicode = 013E;
},
{
glyphname = lcommaaccent;
lastChange = "2015-05-14 13:32:58 +0000";
layers = (
{
layerId = "9609CB55-EFEB-482C-9A6C-237B4D7F8578";
name = Bold;
paths = (
{
closed = 1;
nodes = (
"65 0 LINE",
"211 0 LINE",
"211 707 LINE",
"65 707 LINE"
);
},
{
closed = 1;
nodes = (
"-11 -262 LINE",
"95 -262 LINE",
"211 -51 LINE",
"60 -51 LINE"
);
}
);
width = 276;
},
{
layerId = "DCCD84DA-95A9-4923-A49E-D7B289AC34C6";
name = Light;
paths = (
{
closed = 1;
nodes = (
"80 0 LINE",
"141 0 LINE",
"141 707 LINE",
"80 707 LINE"
);
},
{
closed = 1;
nodes = (
"-14 -238 LINE",
"40 -238 LINE",
"150 -51 LINE",
"74 -51 LINE"
);
}
);
width = 221;
}
);
unicode = 013C;
},
{
glyphname = lslash;
lastChange = "2015-05-14 13:32:58 +0000";
layers = (
{
layerId = "9609CB55-EFEB-482C-9A6C-237B4D7F8578";
name = Bold;
paths = (
{
closed = 1;
nodes = (
"331 419 LINE",
"331 540 LINE",
"25 331 LINE",
"25 210 LINE"
);
},
{
closed = 1;
nodes = (
"102 0 LINE",
"248 0 LINE",
"248 707 LINE",
"102 707 LINE"
);
}
);
width = 341;
},
{
layerId = "DCCD84DA-95A9-4923-A49E-D7B289AC34C6";
name = Light;
paths = (
{
closed = 1;
nodes = (
"243 417 LINE",
"243 483 LINE",
"35 334 LINE",
"35 268 LINE"
);
},
{
closed = 1;
nodes = (
"101 0 LINE",
"162 0 LINE",
"162 707 LINE",
"101 707 LINE"
);
}
);
width = 278;
}
);
unicode = 0142;
},
{
glyphname = ncommaaccent;
lastChange = "2015-05-14 13:32:58 +0000";
layers = (
{
layerId = "9609CB55-EFEB-482C-9A6C-237B4D7F8578";
name = Bold;
paths = (
{
closed = 1;
nodes = (
"149 -262 LINE",
"255 -262 LINE",
"371 -51 LINE",
"220 -51 LINE"
);
},
{
closed = 1;
nodes = (
"60 0 LINE",
"206 0 LINE",
"206 507 LINE",
"60 507 LINE"
);
},
{
closed = 1;
nodes = (
"379 0 LINE",
"525 0 LINE",
"525 329 LINE SMOOTH",
"525 451 OFFCURVE",
"460 512 OFFCURVE",
"359 512 CURVE SMOOTH",
"251 512 OFFCURVE",
"189 437 OFFCURVE",
"189 339 CURVE",
"189 268 LINE",
"206 268 LINE",
"206 356 OFFCURVE",
"249 394 OFFCURVE",
"299 394 CURVE SMOOTH",
"348 394 OFFCURVE",
"379 364 OFFCURVE",
"379 302 CURVE SMOOTH"
);
}
);
width = 580;
},
{
layerId = "DCCD84DA-95A9-4923-A49E-D7B289AC34C6";
name = Light;
paths = (
{
closed = 1;
nodes = (
"149 -238 LINE",
"203 -238 LINE",
"313 -51 LINE",
"237 -51 LINE"
);
},
{
closed = 1;
nodes = (
"76 0 LINE",
"137 0 LINE",
"137 507 LINE",
"76 507 LINE"
);
},
{
closed = 1;
nodes = (
"398 0 LINE",
"459 0 LINE",
"459 354 LINE SMOOTH",
"459 448 OFFCURVE",
"397 515 OFFCURVE",
"298 515 CURVE SMOOTH",
"190 515 OFFCURVE",
"116 447 OFFCURVE",
"110 299 CURVE",
"110 280 LINE",
"137 280 LINE",
"137 394 OFFCURVE",
"212 456 OFFCURVE",
"289 456 CURVE SMOOTH",
"351 456 OFFCURVE",
"398 416 OFFCURVE",
"398 335 CURVE SMOOTH"
);
}
);
width = 529;
}
);
unicode = 0146;
},
{
glyphname = oslash;
lastChange = "2015-05-14 13:32:58 +0000";
layers = (
{
layerId = "9609CB55-EFEB-482C-9A6C-237B4D7F8578";
name = Bold;
paths = (
{
closed = 1;
nodes = (
"284 -8 CURVE SMOOTH",
"445 -8 OFFCURVE",
"532 108 OFFCURVE",
"532 256 CURVE SMOOTH",
"532 400 OFFCURVE",
"448 515 OFFCURVE",
"284 515 CURVE SMOOTH",
"130 515 OFFCURVE",
"35 400 OFFCURVE",
"35 247 CURVE SMOOTH",
"35 105 OFFCURVE",
"119 -8 OFFCURVE"
);
},
{
closed = 1;
nodes = (
"283 416 CURVE SMOOTH",
"370 416 OFFCURVE",
"398 340 OFFCURVE",
"398 251 CURVE SMOOTH",
"398 161 OFFCURVE",
"365 89 OFFCURVE",
"285 89 CURVE SMOOTH",
"205 89 OFFCURVE",
"169 164 OFFCURVE",
"169 253 CURVE SMOOTH",
"169 343 OFFCURVE",
"204 416 OFFCURVE"
);
},
{
closed = 1;
nodes = (
"35 -8 LINE",
"156 -8 LINE",
"532 515 LINE",
"410 515 LINE"
);
}
);
width = 562;
},
{
layerId = "DCCD84DA-95A9-4923-A49E-D7B289AC34C6";
name = Light;
paths = (
{
closed = 1;
nodes = (
"295 -9 CURVE SMOOTH",
"447 -9 OFFCURVE",
"533 106 OFFCURVE",
"533 251 CURVE SMOOTH",
"533 396 OFFCURVE",
"452 514 OFFCURVE",
"295 514 CURVE SMOOTH",
"155 514 OFFCURVE",
"62 396 OFFCURVE",
"62 251 CURVE SMOOTH",
"62 106 OFFCURVE",
"149 -9 OFFCURVE"
);
},
{
closed = 1;
nodes = (
"295 459 CURVE SMOOTH",
"422 459 OFFCURVE",
"472 360 OFFCURVE",
"472 251 CURVE SMOOTH",
"472 142 OFFCURVE",
"413 46 OFFCURVE",
"295 46 CURVE SMOOTH",
"189 46 OFFCURVE",
"123 142 OFFCURVE",
"123 251 CURVE SMOOTH",
"123 360 OFFCURVE",
"183 459 OFFCURVE"
);
},
{
closed = 1;
nodes = (
"62 -9 LINE",
"133 -9 LINE",
"533 514 LINE",
"461 514 LINE"
);
}
);
width = 563;
}
);
unicode = 00F8;
},
{
glyphname = oe;
lastChange = "2015-05-14 13:32:58 +0000";
layers = (
{
layerId = "9609CB55-EFEB-482C-9A6C-237B4D7F8578";
name = Bold;
paths = (
{
closed = 1;
nodes = (
"284 -8 CURVE SMOOTH",
"432 -8 OFFCURVE",
"525 108 OFFCURVE",
"525 256 CURVE SMOOTH",
"525 400 OFFCURVE",
"435 515 OFFCURVE",
"284 515 CURVE SMOOTH",
"130 515 OFFCURVE",
"35 400 OFFCURVE",
"35 247 CURVE SMOOTH",
"35 105 OFFCURVE",
"119 -8 OFFCURVE"
);
},
{
closed = 1;
nodes = (
"283 400 CURVE SMOOTH",
"356 400 OFFCURVE",
"387 332 OFFCURVE",
"387 251 CURVE SMOOTH",
"387 170 OFFCURVE",
"353 105 OFFCURVE",
"285 105 CURVE SMOOTH",
"217 105 OFFCURVE",
"187 172 OFFCURVE",
"187 253 CURVE SMOOTH",
"187 334 OFFCURVE",
"216 400 OFFCURVE"
);
},
{
closed = 1;
nodes = (
"479 196 LINE",
"833 196 LINE",
"836 217 OFFCURVE",
"841 253 OFFCURVE",
"841 275 CURVE SMOOTH",
"841 437 OFFCURVE",
"752 512 OFFCURVE",
"621 512 CURVE SMOOTH",
"508 512 OFFCURVE",
"387 422 OFFCURVE",
"387 254 CURVE SMOOTH",
"387 107 OFFCURVE",
"492 -5 OFFCURVE",
"651 -5 CURVE SMOOTH",
"702 -5 OFFCURVE",
"773 5 OFFCURVE",
"810 29 CURVE",
"810 151 LINE",
"778 127 OFFCURVE",
"736 108 OFFCURVE",
"676 108 CURVE SMOOTH",
"588 108 OFFCURVE",
"525 160 OFFCURVE",
"525 254 CURVE",
"525 356 OFFCURVE",
"576 401 OFFCURVE",
"627 401 CURVE SMOOTH",
"679 401 OFFCURVE",
"699 366 OFFCURVE",
"704 321 CURVE",
"705 300 LINE",
"479 300 LINE"
);
}
);
width = 879;
},
{
layerId = "DCCD84DA-95A9-4923-A49E-D7B289AC34C6";
name = Light;
paths = (
{
closed = 1;
nodes = (
"268 -9 CURVE SMOOTH",
"417 -9 OFFCURVE",
"491 106 OFFCURVE",
"491 251 CURVE SMOOTH",
"491 396 OFFCURVE",
"422 514 OFFCURVE",
"268 514 CURVE SMOOTH",
"128 514 OFFCURVE",
"45 396 OFFCURVE",
"45 251 CURVE SMOOTH",
"45 106 OFFCURVE",
"122 -9 OFFCURVE"
);
},
{
closed = 1;
nodes = (
"268 456 CURVE SMOOTH",
"393 456 OFFCURVE",
"427 358 OFFCURVE",
"427 251 CURVE SMOOTH",
"427 144 OFFCURVE",
"384 49 OFFCURVE",
"268 49 CURVE SMOOTH",
"164 49 OFFCURVE",
"109 144 OFFCURVE",
"109 251 CURVE SMOOTH",
"109 358 OFFCURVE",
"158 456 OFFCURVE"
);
},
{
closed = 1;
nodes = (
"467 226 LINE",
"848 226 LINE",
"851 241 OFFCURVE",
"852 265 OFFCURVE",
"852 275 CURVE SMOOTH",
"852 426 OFFCURVE",
"784 513 OFFCURVE",
"653 513 CURVE SMOOTH",
"524 513 OFFCURVE",
"427 420 OFFCURVE",
"427 251 CURVE SMOOTH",
"427 91 OFFCURVE",
"536 -5 OFFCURVE",
"678 -5 CURVE SMOOTH",
"721 -5 OFFCURVE",
"777 6 OFFCURVE",
"815 25 CURVE",
"815 87 LINE",
"779 63 OFFCURVE",
"722 53 OFFCURVE",
"681 53 CURVE SMOOTH",
"574 53 OFFCURVE",
"491 120 OFFCURVE",
"491 251 CURVE SMOOTH",
"491 394 OFFCURVE",
"567 456 OFFCURVE",
"651 456 CURVE SMOOTH",
"728 456 OFFCURVE",
"789 407 OFFCURVE",
"789 305 CURVE SMOOTH",
"789 282 LINE",
"467 282 LINE"
);
}
);
width = 896;
}
);
unicode = 0153;
},
{
glyphname = thorn;
lastChange = "2015-05-14 13:32:58 +0000";
layers = (
{
layerId = "9609CB55-EFEB-482C-9A6C-237B4D7F8578";
name = Bold;
paths = (
{
closed = 1;
nodes = (
"60 -187 LINE",
"206 -187 LINE",
"206 707 LINE",
"60 707 LINE"
);
},
{
closed = 1;
nodes = (
"206 259 CURVE SMOOTH",
"206 349 OFFCURVE",
"264 392 OFFCURVE",
"320 392 CURVE SMOOTH",
"379 392 OFFCURVE",
"428 348 OFFCURVE",
"428 252 CURVE SMOOTH",
"428 166 OFFCURVE",
"383 116 OFFCURVE",
"320 116 CURVE SMOOTH",
"254 116 OFFCURVE",
"206 171 OFFCURVE"
);
},
{
closed = 1;
nodes = (
"165 258 CURVE SMOOTH",
"165 66 OFFCURVE",
"250 -6 OFFCURVE",
"359 -6 CURVE SMOOTH",
"500 -6 OFFCURVE",
"576 111 OFFCURVE",
"576 255 CURVE SMOOTH",
"576 415 OFFCURVE",
"489 513 OFFCURVE",
"359 513 CURVE SMOOTH",
"252 513 OFFCURVE",
"165 433 OFFCURVE"
);
}
);
width = 611;
},
{
layerId = "DCCD84DA-95A9-4923-A49E-D7B289AC34C6";
name = Light;
paths = (
{
closed = 1;
nodes = (
"76 -200 LINE",
"137 -200 LINE",
"137 707 LINE",
"76 707 LINE"
);
},
{
closed = 1;
nodes = (
"137 251 CURVE SMOOTH",
"137 413 OFFCURVE",
"223 457 OFFCURVE",
"296 457 CURVE SMOOTH",
"382 457 OFFCURVE",
"446 377 OFFCURVE",
"446 260 CURVE SMOOTH",
"446 119 OFFCURVE",
"376 50 OFFCURVE",
"290 50 CURVE SMOOTH",
"232 50 OFFCURVE",
"137 93 OFFCURVE"
);
},
{
closed = 1;
nodes = (
"91 251 CURVE SMOOTH",
"91 110 OFFCURVE",
"161 -8 OFFCURVE",
"292 -8 CURVE SMOOTH",
"420 -8 OFFCURVE",
"510 102 OFFCURVE",
"510 259 CURVE SMOOTH",
"510 394 OFFCURVE",
"436 515 OFFCURVE",
"294 515 CURVE SMOOTH",
"135 515 OFFCURVE",
"91 366 OFFCURVE"
);
}
);
width = 555;
}
);
unicode = 00FE;
},
{
glyphname = rcommaaccent;
lastChange = "2015-05-14 13:32:58 +0000";
layers = (
{
layerId = "9609CB55-EFEB-482C-9A6C-237B4D7F8578";
name = Bold;
paths = (
{
closed = 1;
nodes = (
"59 0 LINE",
"205 0 LINE",
"205 507 LINE",
"60 507 LINE"
);
},
{
closed = 1;
nodes = (
"365 506 LINE",
"351 510 OFFCURVE",
"340 510 OFFCURVE",
"327 510 CURVE SMOOTH",
"246 510 OFFCURVE",
"193 436 OFFCURVE",
"196 346 CURVE",
"205 253 LINE",
"205 330 OFFCURVE",
"247 379 OFFCURVE",
"310 379 CURVE SMOOTH",
"327 379 OFFCURVE",
"345 377 OFFCURVE",
"365 368 CURVE"
);
},
{
closed = 1;
nodes = (
"-20 -262 LINE",
"86 -262 LINE",
"202 -51 LINE",
"51 -51 LINE"
);
}
);
width = 370;
},
{
layerId = "DCCD84DA-95A9-4923-A49E-D7B289AC34C6";
name = Light;
paths = (
{
closed = 1;
nodes = (
"76 0 LINE",
"137 0 LINE",
"137 507 LINE",
"76 507 LINE"
);
},
{
closed = 1;
nodes = (
"304 511 LINE",
"295 512 OFFCURVE",
"287 513 OFFCURVE",
"279 513 CURVE SMOOTH",
"154 513 OFFCURVE",
"114 406 OFFCURVE",
"110 280 CURVE",
"137 283 LINE",
"137 365 OFFCURVE",
"188 455 OFFCURVE",
"264 455 CURVE SMOOTH",
"279 455 OFFCURVE",
"291 453 OFFCURVE",
"304 449 CURVE"
);
},
{
closed = 1;
nodes = (
"-20 -238 LINE",
"34 -238 LINE",
"144 -51 LINE",
"68 -51 LINE"
);
}
);
width = 314;
}
);
unicode = 0157;
},
{
glyphname = scommaaccent;
lastChange = "2015-05-14 13:32:58 +0000";
layers = (
{
layerId = "9609CB55-EFEB-482C-9A6C-237B4D7F8578";
name = Bold;
paths = (
{
closed = 1;
nodes = (
"79 -262 LINE",
"185 -262 LINE",
"301 -51 LINE",
"150 -51 LINE"
);
},
{
closed = 1;
nodes = (
"380 492 LINE",
"345 506 OFFCURVE",
"297 513 OFFCURVE",
"250 513 CURVE SMOOTH",
"143 513 OFFCURVE",
"53 459 OFFCURVE",
"53 357 CURVE SMOOTH",
"53 277 OFFCURVE",
"103 237 OFFCURVE",
"154 213 CURVE SMOOTH",
"204 190 OFFCURVE",
"256 176 OFFCURVE",
"256 144 CURVE SMOOTH",
"256 121 OFFCURVE",
"235 109 OFFCURVE",
"201 109 CURVE SMOOTH",
"143 109 OFFCURVE",
"88 134 OFFCURVE",
"55 157 CURVE",
"55 27 LINE",
"89 10 OFFCURVE",
"146 -4 OFFCURVE",
"209 -4 CURVE SMOOTH",
"324 -4 OFFCURVE",
"406 50 OFFCURVE",
"406 153 CURVE SMOOTH",
"406 226 OFFCURVE",
"354 263 OFFCURVE",
"304 289 CURVE SMOOTH",
"253 315 OFFCURVE",
"202 329 OFFCURVE",
"202 361 CURVE SMOOTH",
"202 382 OFFCURVE",
"220 398 OFFCURVE",
"256 398 CURVE SMOOTH",
"303 398 OFFCURVE",
"349 385 OFFCURVE",
"380 367 CURVE"
);
}
);
width = 436;
},
{
layerId = "DCCD84DA-95A9-4923-A49E-D7B289AC34C6";
name = Light;
paths = (
{
closed = 1;
nodes = (
"89 -238 LINE",
"143 -238 LINE",
"253 -51 LINE",
"177 -51 LINE"
);
},
{
closed = 1;
nodes = (
"341 489 LINE",
"320 500 OFFCURVE",
"275 512 OFFCURVE",
"215 512 CURVE SMOOTH",
"127 512 OFFCURVE",
"57 462 OFFCURVE",
"57 378 CURVE SMOOTH",
"57 295 OFFCURVE",
"126 259 OFFCURVE",
"190 234 CURVE SMOOTH",
"264 205 OFFCURVE",
"308 182 OFFCURVE",
"308 125 CURVE SMOOTH",
"308 82 OFFCURVE",
"275 49 OFFCURVE",
"204 49 CURVE SMOOTH",
"157 49 OFFCURVE",
"104 62 OFFCURVE",
"60 87 CURVE",
"60 24 LINE",
"90 8 OFFCURVE",
"147 -6 OFFCURVE",
"208 -6 CURVE SMOOTH",
"310 -6 OFFCURVE",
"371 47 OFFCURVE",
"371 130 CURVE SMOOTH",
"371 214 OFFCURVE",
"302 251 OFFCURVE",
"226 282 CURVE SMOOTH",
"170 305 OFFCURVE",
"119 325 OFFCURVE",
"119 381 CURVE SMOOTH",
"119 424 OFFCURVE",
"155 455 OFFCURVE",
"214 455 CURVE SMOOTH",
"264 455 OFFCURVE",
"313 444 OFFCURVE",
"341 428 CURVE"
);
}
);
width = 406;
}
);
unicode = 0219;
},
{
glyphname = germandbls;
lastChange = "2015-05-14 13:32:58 +0000";
layers = (
{
layerId = "9609CB55-EFEB-482C-9A6C-237B4D7F8578";
name = Bold;
paths = (
{
closed = 1;
nodes = (
"280 138 LINE",
"320 112 OFFCURVE",
"346 105 OFFCURVE",
"381 105 CURVE SMOOTH",
"416 105 OFFCURVE",
"442 124 OFFCURVE",
"442 157 CURVE SMOOTH",
"442 231 OFFCURVE",
"297 247 OFFCURVE",
"297 351 CURVE SMOOTH",
"297 422 OFFCURVE",
"354 454 OFFCURVE",
"354 506 CURVE SMOOTH",
"354 540 OFFCURVE",
"335 563 OFFCURVE",
"292 563 CURVE SMOOTH",
"233 563 OFFCURVE",
"202 536 OFFCURVE",
"202 470 CURVE SMOOTH",
"202 0 LINE",
"60 0 LINE",
"60 461 LINE SMOOTH",
"60 606 OFFCURVE",
"139 690 OFFCURVE",
"283 690 CURVE SMOOTH",
"418 690 OFFCURVE",
"502 608 OFFCURVE",
"502 519 CURVE SMOOTH",
"502 430 OFFCURVE",
"447 405 OFFCURVE",
"447 366 CURVE SMOOTH",
"447 329 OFFCURVE",
"578 304 OFFCURVE",
"578 159 CURVE SMOOTH",
"578 58 OFFCURVE",
"507 -9 OFFCURVE",
"397 -9 CURVE SMOOTH",
"361 -9 OFFCURVE",
"307 -3 OFFCURVE",
"280 15 CURVE"
);
}
);
width = 598;
},
{
layerId = "DCCD84DA-95A9-4923-A49E-D7B289AC34C6";
name = Light;
paths = (
{
closed = 1;
nodes = (
"252 67 LINE",
"278 55 OFFCURVE",
"299 50 OFFCURVE",
"333 50 CURVE SMOOTH",
"394 50 OFFCURVE",
"432 82 OFFCURVE",
"432 126 CURVE SMOOTH",
"432 223 OFFCURVE",
"281 244 OFFCURVE",
"281 352 CURVE SMOOTH",
"281 437 OFFCURVE",
"368 457 OFFCURVE",
"368 541 CURVE SMOOTH",
"368 596 OFFCURVE",
"323 631 OFFCURVE",
"260 631 CURVE SMOOTH",
"185 631 OFFCURVE",
"142 592 OFFCURVE",
"142 505 CURVE",
"142 0 LINE",
"80 0 LINE",
"80 505 LINE",
"80 635 OFFCURVE",
"160 690 OFFCURVE",
"265 690 CURVE SMOOTH",
"367 690 OFFCURVE",
"430 622 OFFCURVE",
"430 541 CURVE SMOOTH",
"430 435 OFFCURVE",
"347 410 OFFCURVE",
"347 356 CURVE SMOOTH",
"347 281 OFFCURVE",
"494 258 OFFCURVE",
"494 131 CURVE SMOOTH",
"494 54 OFFCURVE",
"438 -7 OFFCURVE",
"330 -7 CURVE SMOOTH",
"300 -7 OFFCURVE",
"278 -5 OFFCURVE",
"252 3 CURVE"
);
}
);
width = 526;
}
);
unicode = 00DF;
},
{
glyphname = tcaron;
lastChange = "2015-05-14 13:32:58 +0000";
layers = (
{
layerId = "9609CB55-EFEB-482C-9A6C-237B4D7F8578";
name = Bold;
paths = (
{
closed = 1;
nodes = (
"83 168 LINE",
"83 56 OFFCURVE",
"140 -5 OFFCURVE",
"256 -5 CURVE SMOOTH",
"284 -5 OFFCURVE",
"328 -1 OFFCURVE",
"356 11 CURVE",
"356 132 LINE",
"334 118 OFFCURVE",
"308 112 OFFCURVE",
"285 112 CURVE SMOOTH",
"254 112 OFFCURVE",
"229 129 OFFCURVE",
"229 167 CURVE SMOOTH",
"229 627 LINE",
"83 627 LINE"
);
},
{
closed = 1;
nodes = (
"10 400 LINE",
"347 400 LINE",
"347 507 LINE",
"10 507 LINE"
);
},
{
closed = 1;
nodes = (
"280 588 LINE",
"386 588 LINE",
"502 799 LINE",
"351 799 LINE"
);
}
);
width = 386;
},
{
layerId = "DCCD84DA-95A9-4923-A49E-D7B289AC34C6";
name = Light;
paths = (
{
closed = 1;
nodes = (
"108 143 LINE",
"108 50 OFFCURVE",
"149 -5 OFFCURVE",
"252 -5 CURVE SMOOTH",
"271 -5 OFFCURVE",
"302 3 OFFCURVE",
"319 14 CURVE",
"319 76 LINE",
"303 63 OFFCURVE",
"276 53 OFFCURVE",
"251 53 CURVE SMOOTH",
"194 53 OFFCURVE",
"170 84 OFFCURVE",
"170 140 CURVE SMOOTH",
"170 634 LINE",
"108 634 LINE"
);
},
{
closed = 1;
nodes = (
"25 455 LINE",
"315 455 LINE",
"315 507 LINE",
"25 507 LINE"
);
},
{
closed = 1;
nodes = (
"231 562 LINE",
"285 562 LINE",
"395 749 LINE",
"319 749 LINE"
);
}
);
width = 364;
}
);
unicode = 0165;
},
{
glyphname = tcedilla;
lastChange = "2015-05-14 13:32:58 +0000";
layers = (
{
layerId = "9609CB55-EFEB-482C-9A6C-237B4D7F8578";
name = Bold;
paths = (
{
closed = 1;
nodes = (
"83 168 LINE",
"83 56 OFFCURVE",
"140 -5 OFFCURVE",
"256 -5 CURVE SMOOTH",
"284 -5 OFFCURVE",
"328 -1 OFFCURVE",
"356 11 CURVE",
"356 132 LINE",
"334 118 OFFCURVE",
"308 112 OFFCURVE",
"285 112 CURVE SMOOTH",
"254 112 OFFCURVE",
"229 129 OFFCURVE",
"229 167 CURVE SMOOTH",
"229 627 LINE",
"83 627 LINE"
);
},
{
closed = 1;
nodes = (
"10 400 LINE",
"347 400 LINE",
"347 507 LINE",
"10 507 LINE"
);
},
{
closed = 1;
nodes = (
"85 -262 LINE",
"191 -262 LINE",
"307 -51 LINE",
"156 -51 LINE"
);
}
);
width = 386;
},
{
layerId = "DCCD84DA-95A9-4923-A49E-D7B289AC34C6";
name = Light;
paths = (
{
closed = 1;
nodes = (
"108 143 LINE",
"108 50 OFFCURVE",
"149 -5 OFFCURVE",
"252 -5 CURVE SMOOTH",
"271 -5 OFFCURVE",
"302 3 OFFCURVE",
"319 14 CURVE",
"319 76 LINE",
"303 63 OFFCURVE",
"276 53 OFFCURVE",
"251 53 CURVE SMOOTH",
"194 53 OFFCURVE",
"170 84 OFFCURVE",
"170 140 CURVE SMOOTH",
"170 634 LINE",
"108 634 LINE"
);
},
{
closed = 1;
nodes = (
"25 455 LINE",
"315 455 LINE",
"315 507 LINE",
"25 507 LINE"
);
},
{
closed = 1;
nodes = (
"49 -238 LINE",
"103 -238 LINE",
"213 -51 LINE",
"137 -51 LINE"
);
}
);
width = 364;
}
);
unicode = 0163;
},
{
glyphname = tcommaaccent;
lastChange = "2015-05-14 13:32:58 +0000";
layers = (
{
layerId = "9609CB55-EFEB-482C-9A6C-237B4D7F8578";
name = Bold;
paths = (
{
closed = 1;
nodes = (
"83 168 LINE",
"83 56 OFFCURVE",
"140 -5 OFFCURVE",
"256 -5 CURVE SMOOTH",
"284 -5 OFFCURVE",
"328 -1 OFFCURVE",
"356 11 CURVE",
"356 132 LINE",
"334 118 OFFCURVE",
"308 112 OFFCURVE",
"285 112 CURVE SMOOTH",
"254 112 OFFCURVE",
"229 129 OFFCURVE",
"229 167 CURVE SMOOTH",
"229 627 LINE",
"83 627 LINE"
);
},
{
closed = 1;
nodes = (
"10 400 LINE",
"347 400 LINE",
"347 507 LINE",
"10 507 LINE"
);
},
{
closed = 1;
nodes = (
"108 -262 LINE",
"214 -262 LINE",
"330 -51 LINE",
"179 -51 LINE"
);
}
);
width = 386;
},
{
layerId = "DCCD84DA-95A9-4923-A49E-D7B289AC34C6";
name = Light;
paths = (
{
closed = 1;
nodes = (
"108 143 LINE",
"108 50 OFFCURVE",
"149 -5 OFFCURVE",
"252 -5 CURVE SMOOTH",
"271 -5 OFFCURVE",
"302 3 OFFCURVE",
"319 14 CURVE",
"319 76 LINE",
"303 63 OFFCURVE",
"276 53 OFFCURVE",
"251 53 CURVE SMOOTH",
"194 53 OFFCURVE",
"170 84 OFFCURVE",
"170 140 CURVE SMOOTH",
"170 634 LINE",
"108 634 LINE"
);
},
{
closed = 1;
nodes = (
"25 455 LINE",
"315 455 LINE",
"315 507 LINE",
"25 507 LINE"
);
},
{
closed = 1;
nodes = (
"113 -238 LINE",
"167 -238 LINE",
"277 -51 LINE",
"201 -51 LINE"
);
}
);
width = 364;
}
);
unicode = 021B;
},
